<svg width="26" height="26" viewBox="0 0 26 26" fill="none" xmlns="http://www.w3.org/2000/svg">
<g clip-path="url(#clip0)">
<path d="M26 3.96371V16.7721H23.967V3.96371C23.967 3.40314 23.5109 2.9471 22.9503 2.9471H3.04965C2.48907 2.9471 2.03304 3.40314 2.03304 3.96371V11.6563L6.23875 5.50957L9.61214 9.7262L11.1407 7.52892L17.6643 16.0096V16.7721H15.6859L11.2233 10.9705L5.51056 19.1824L3.84152 18.0214L8.40112 11.467L6.3663 8.92361L2.03304 15.2568V20.2284C2.03304 20.7888 2.48907 21.2448 3.04965 21.2448H13.4457V23.278H3.04965C1.36812 23.278 0 21.9099 0 20.2284V3.96371C0 2.28218 1.36812 0.914062 3.04965 0.914062H22.9503C24.6319 0.914062 26 2.28198 26 3.96371V3.96371ZM19.1892 10.6728C17.5076 10.6728 16.1395 9.30467 16.1395 7.62314C16.1395 5.9416 17.5076 4.57349 19.1892 4.57349C20.8707 4.57349 22.2388 5.9416 22.2388 7.62314C22.2388 9.30467 20.8707 10.6728 19.1892 10.6728ZM20.2058 7.62314C20.2058 7.06256 19.7497 6.60672 19.1892 6.60672C18.6286 6.60672 18.1725 7.06256 18.1725 7.62314C18.1725 8.18372 18.6286 8.63976 19.1892 8.63976C19.7497 8.63976 20.2058 8.18372 20.2058 7.62314ZM21.7306 14.5357H19.6974V18.8051H15.428V20.8382H19.6974V25.1078H21.7306V20.8382H26V18.8051H21.7306V14.5357Z" fill="#ED1C24"/>
</g>
<defs>
<clipPath id="clip0">
<rect width="26" height="26" fill="white"/>
</clipPath>
</defs>
</svg>
