<svg width="28" height="28" viewBox="0 0 28 28" fill="none" xmlns="http://www.w3.org/2000/svg">
<path d="M27.75 14C27.75 21.5939 21.5939 27.75 14 27.75C6.40608 27.75 0.25 21.5939 0.25 14C0.25 6.40608 6.40608 0.25 14 0.25C21.5939 0.25 27.75 6.40608 27.75 14Z" fill="#ED1C24"/>
<path d="M27.75 14C27.75 21.5939 21.5939 27.75 14 27.75C6.40608 27.75 0.25 21.5939 0.25 14C0.25 6.40608 6.40608 0.25 14 0.25C21.5939 0.25 27.75 6.40608 27.75 14Z" stroke="url(#paint0_linear)" stroke-width="0.5"/>
<path d="M27.75 14C27.75 21.5939 21.5939 27.75 14 27.75C6.40608 27.75 0.25 21.5939 0.25 14C0.25 6.40608 6.40608 0.25 14 0.25C21.5939 0.25 27.75 6.40608 27.75 14Z" stroke="url(#paint1_linear)" stroke-width="0.5"/>
<path d="M15.2236 14L18.6611 10.483C18.901 10.2432 18.901 9.8543 18.6611 9.61426L18.2267 9.17988C17.9869 8.94004 17.598 8.94004 17.358 9.17988L13.9205 12.6969L10.483 9.17988C10.2432 8.94004 9.85429 8.94004 9.61426 9.17988L9.17988 9.61426C8.94004 9.8541 8.94004 10.243 9.17988 10.483L12.6174 14L9.17988 17.517C8.94004 17.7568 8.94004 18.1457 9.17988 18.3857L9.61426 18.8201C9.8541 19.06 10.2432 19.06 10.483 18.8201L13.9205 15.3031L17.358 18.8201C17.5978 19.06 17.9869 19.06 18.2267 18.8201L18.6611 18.3857C18.901 18.1459 18.901 17.757 18.6611 17.517L15.2236 14Z" fill="white"/>
<defs>
<linearGradient id="paint0_linear" x1="0.136997" y1="0" x2="0.136997" y2="27.726" gradientUnits="userSpaceOnUse">
<stop stop-opacity="0"/>
<stop offset="0.8" stop-opacity="0.02"/>
<stop offset="1" stop-opacity="0.04"/>
</linearGradient>
<linearGradient id="paint1_linear" x1="0" y1="0" x2="0" y2="28" gradientUnits="userSpaceOnUse">
<stop stop-color="white" stop-opacity="0.12"/>
<stop offset="0.2" stop-color="white" stop-opacity="0.06"/>
<stop offset="1" stop-color="white" stop-opacity="0"/>
</linearGradient>
</defs>
</svg>
