<svg width="28" height="28" viewBox="0 0 28 28" fill="none" xmlns="http://www.w3.org/2000/svg">
<path d="M27.75 14.0001C27.75 21.594 21.5939 27.7501 14 27.7501C6.40608 27.7501 0.25 21.594 0.25 14.0001C0.25 6.40621 6.40608 0.250122 14 0.250122C21.5939 0.250122 27.75 6.40621 27.75 14.0001Z" fill="#ED1C24"/>
<path d="M27.75 14.0001C27.75 21.594 21.5939 27.7501 14 27.7501C6.40608 27.7501 0.25 21.594 0.25 14.0001C0.25 6.40621 6.40608 0.250122 14 0.250122C21.5939 0.250122 27.75 6.40621 27.75 14.0001Z" stroke="url(#paint0_linear)" stroke-width="0.5"/>
<path d="M27.75 14.0001C27.75 21.594 21.5939 27.7501 14 27.7501C6.40608 27.7501 0.25 21.594 0.25 14.0001C0.25 6.40621 6.40608 0.250122 14 0.250122C21.5939 0.250122 27.75 6.40621 27.75 14.0001Z" stroke="url(#paint1_linear)" stroke-width="0.5"/>
<path d="M17.4286 15.5589V18.2857H9.57143V9.71429H15.2138C15.2924 9.71429 15.3661 9.67946 15.4225 9.62054L16.4047 8.54911C16.5913 8.34554 16.4587 8 16.196 8H9.17857C8.5279 8 8 8.57589 8 9.28571V18.7143C8 19.4241 8.5279 20 9.17857 20H17.8214C18.4721 20 19 19.4241 19 18.7143V14.4875C19 14.2009 18.6833 14.0589 18.4967 14.2598L17.5145 15.3313C17.4605 15.3929 17.4286 15.4732 17.4286 15.5589Z" fill="white"/>
<path d="M12.8407 17.2412L11.3873 17.3726C11.1677 17.3924 10.9816 17.2063 11.0015 16.9867L11.1328 15.5333L16.6817 9.98444C16.7788 9.88734 16.9375 9.88861 17.0362 9.98729L18.3867 11.3378C18.4854 11.4365 18.4867 11.5952 18.3896 11.6923L12.8407 17.2412Z" fill="white"/>
<path d="M18.9462 10.8403L17.5361 9.43011C17.45 9.34402 17.45 9.20444 17.5361 9.11834L18.397 8.25743C18.7402 7.91419 19.2967 7.91419 19.6399 8.25743L20.1189 8.73639C20.4621 9.07962 20.4621 9.63611 20.1189 9.97934L19.258 10.8403C19.1719 10.9264 19.0323 10.9264 18.9462 10.8403Z" fill="white"/>
<defs>
<linearGradient id="paint0_linear" x1="0.136997" y1="0.00012207" x2="0.136997" y2="27.7261" gradientUnits="userSpaceOnUse">
<stop stop-opacity="0"/>
<stop offset="0.8" stop-opacity="0.02"/>
<stop offset="1" stop-opacity="0.04"/>
</linearGradient>
<linearGradient id="paint1_linear" x1="0" y1="0.00012207" x2="0" y2="28.0001" gradientUnits="userSpaceOnUse">
<stop stop-color="white" stop-opacity="0.12"/>
<stop offset="0.2" stop-color="white" stop-opacity="0.06"/>
<stop offset="1" stop-color="white" stop-opacity="0"/>
</linearGradient>
</defs>
</svg>
