<?xml version="1.0" encoding="UTF-8"?>
<svg xmlns="http://www.w3.org/2000/svg" xmlns:xlink="http://www.w3.org/1999/xlink" width="23pt" height="19pt" viewBox="0 0 23 19" version="1.1">
<g id="surface1">
<path style=" stroke:none;fill-rule:nonzero;fill:rgb(0%,0%,0%);fill-opacity:1;" d="M 22.785156 17.476562 L 1.292969 0.128906 C 1.046875 -0.0742188 0.683594 -0.0351562 0.484375 0.222656 L 0.125 0.6875 C 0.03125 0.808594 -0.0117188 0.964844 0.00390625 1.121094 C 0.0195312 1.28125 0.0976562 1.421875 0.214844 1.523438 L 21.707031 18.871094 C 21.953125 19.074219 22.316406 19.035156 22.515625 18.777344 L 22.875 18.3125 C 22.96875 18.191406 23.011719 18.035156 22.996094 17.878906 C 22.980469 17.71875 22.902344 17.578125 22.785156 17.480469 Z M 10.664062 5.433594 L 15.511719 9.347656 C 15.429688 7.121094 13.671875 5.34375 11.5 5.34375 C 11.21875 5.34375 10.941406 5.375 10.664062 5.433594 Z M 12.335938 13.566406 L 7.488281 9.65625 C 7.570312 11.878906 9.328125 13.65625 11.5 13.65625 C 11.78125 13.65625 12.058594 13.625 12.335938 13.566406 Z M 11.5 4.15625 C 15.046875 4.15625 18.296875 6.195312 20.050781 9.5 C 19.621094 10.3125 19.089844 11.0625 18.46875 11.734375 L 19.824219 12.828125 C 20.582031 11.996094 21.21875 11.054688 21.726562 10.042969 C 21.894531 9.699219 21.894531 9.296875 21.726562 8.957031 C 19.777344 5.03125 15.917969 2.375 11.5 2.375 C 10.179688 2.375 8.921875 2.632812 7.738281 3.074219 L 9.40625 4.417969 C 10.089844 4.261719 10.785156 4.15625 11.5 4.15625 Z M 11.5 14.84375 C 7.953125 14.84375 4.703125 12.804688 2.949219 9.5 C 3.378906 8.6875 3.914062 7.9375 4.53125 7.265625 L 3.175781 6.171875 C 2.421875 7.003906 1.78125 7.945312 1.277344 8.957031 C 1.109375 9.300781 1.109375 9.703125 1.277344 10.042969 C 3.222656 13.96875 7.082031 16.625 11.5 16.625 C 12.820312 16.625 14.078125 16.363281 15.261719 15.925781 L 13.59375 14.582031 C 12.910156 14.738281 12.214844 14.84375 11.5 14.84375 Z M 11.5 14.84375 "/>
</g>
</svg>
