<?xml version="1.0" encoding="UTF-8"?>
<svg xmlns="http://www.w3.org/2000/svg" xmlns:xlink="http://www.w3.org/1999/xlink" width="23pt" height="21pt" viewBox="0 0 23 21" version="1.1">
<g id="surface1">
<path style=" stroke:none;fill-rule:nonzero;fill:rgb(0%,0%,0%);fill-opacity:1;" d="M 11.5 5.90625 C 11.078125 5.914062 10.65625 5.980469 10.253906 6.109375 C 10.441406 6.449219 10.539062 6.832031 10.542969 7.21875 C 10.542969 8.488281 9.539062 9.515625 8.304688 9.515625 C 7.925781 9.511719 7.554688 9.410156 7.226562 9.21875 C 6.695312 11.113281 7.402344 13.144531 8.984375 14.261719 C 10.566406 15.378906 12.667969 15.332031 14.199219 14.144531 C 15.734375 12.957031 16.355469 10.894531 15.742188 9.027344 C 15.128906 7.15625 13.421875 5.898438 11.5 5.90625 Z M 22.859375 9.902344 C 20.695312 5.5625 16.410156 2.625 11.5 2.625 C 6.589844 2.625 2.304688 5.5625 0.140625 9.902344 C -0.046875 10.277344 -0.046875 10.722656 0.140625 11.097656 C 2.304688 15.4375 6.589844 18.375 11.5 18.375 C 16.410156 18.375 20.695312 15.4375 22.859375 11.097656 C 23.046875 10.722656 23.046875 10.277344 22.859375 9.902344 Z M 11.5 16.40625 C 7.5625 16.40625 3.949219 14.148438 2 10.5 C 3.949219 6.851562 7.558594 4.59375 11.5 4.59375 C 15.441406 4.59375 19.050781 6.851562 21 10.5 C 19.050781 14.148438 15.441406 16.40625 11.5 16.40625 Z M 11.5 16.40625 "/>
</g>
</svg>
