<svg width="92" height="92" viewBox="0 0 92 92" fill="none" xmlns="http://www.w3.org/2000/svg">
<path d="M67.281 59.6802L59.7301 56.384L55.5949 52.2489C55.3423 51.9963 54.9994 51.8541 54.642 51.8541C54.6109 51.8541 54.5802 51.8566 54.5493 51.8586V49.1426C58.0847 46.8531 60.6686 43.1716 61.4748 38.781C61.4824 38.7531 61.5275 38.7077 61.5586 38.6951C61.9779 38.7242 62.4024 38.6886 62.8203 38.59C64.7047 38.144 66.0723 36.3345 66.0723 34.2877V33.1652C66.0723 31.6217 65.2833 30.2367 64.0708 29.461C64.4415 28.0384 64.6319 26.5815 64.6319 25.1142C64.6319 18.7683 61.181 13.1829 55.989 10.0003C55.989 9.99672 55.9895 9.99348 55.9895 9.99007C55.9897 4.4814 51.5081 0 45.9996 0C40.4911 0 36.0096 4.4814 36.0096 9.99007C36.0096 9.99348 36.0101 9.99689 36.0101 10.0003C30.818 13.1829 27.3671 18.7683 27.3671 25.1142C27.3671 26.5779 27.5565 28.0312 27.9254 29.4505C26.7134 30.2216 25.9268 31.6116 25.9268 33.1823V34.2877C25.9268 36.3347 27.2944 38.144 29.1787 38.59C29.5967 38.6888 30.0213 38.7242 30.4405 38.6951C30.4716 38.7077 30.5167 38.7531 30.5241 38.7794C31.3307 43.1709 33.9146 46.8527 37.4499 49.1425V51.8586C37.419 51.8565 37.3883 51.8541 37.3572 51.8541C36.9998 51.8541 36.657 51.9963 36.4043 52.2489L32.2694 56.384L24.7184 59.6802C20.9656 61.3184 18.5605 65.1679 18.7339 69.259L19.6431 90.7091C19.6738 91.4333 20.2706 91.9998 20.9886 91.9998C21.0078 91.9998 21.0272 91.9995 21.0466 91.9986C21.7904 91.9671 22.3675 91.3388 22.3361 90.595L21.4269 69.1447C21.3627 67.6312 21.7826 66.1633 22.5682 64.9274L26.7832 69.9853C28.0888 71.5521 28.8079 73.538 28.8079 75.5775V90.6522C28.8079 91.3964 29.4113 91.9998 30.1555 91.9998C30.8998 91.9998 31.5032 91.3964 31.5032 90.6522V75.5775C31.5032 72.909 30.5623 70.3101 28.8539 68.2599L24.4228 62.9426C24.8458 62.6323 25.3052 62.3649 25.7969 62.1504L32.5013 59.2238L37.2187 66.881C37.6463 67.5751 38.3536 68.0459 39.1589 68.1726C39.3038 68.1954 39.4491 68.2065 39.5936 68.2065C40.2521 68.2065 40.8934 67.9731 41.4021 67.5392L44.6523 64.7655V90.6522C44.6523 91.3964 45.2557 91.9998 46 91.9998C46.7442 91.9998 47.3476 91.3964 47.3476 90.6522V64.7659L50.5978 67.5394C51.1065 67.9735 51.7478 68.2067 52.4064 68.2067C52.5508 68.2067 52.6962 68.1954 52.841 68.1728C53.6464 68.0461 54.3536 67.5753 54.7813 66.881L59.4986 59.2238L66.2031 62.1504C66.6947 62.3649 67.154 62.6325 67.5772 62.9426L63.1461 68.2599C61.4376 70.3101 60.4968 72.909 60.4968 75.5775V90.6522C60.4968 91.3964 61.1002 91.9998 61.8444 91.9998C62.5887 91.9998 63.1921 91.3964 63.1921 90.6522V75.5775C63.1921 73.5382 63.911 71.5521 65.2168 69.9854L69.4317 64.9276C70.2173 66.1635 70.6371 67.6314 70.5731 69.1449L69.6639 90.5952C69.6324 91.3388 70.2096 91.9671 70.9533 91.9987C70.9727 91.9996 70.9919 92 71.0114 92C71.7294 92 72.3261 91.4336 72.3569 90.7093L73.2661 69.259C73.4387 65.1677 71.0338 61.3182 67.281 59.6802ZM45.9996 2.69531C49.5384 2.69531 52.4955 5.22854 53.1557 8.57647C50.9511 7.69169 48.5339 7.20186 45.9996 7.20186C43.4653 7.20186 41.048 7.69169 38.8436 8.57647C39.5037 5.22854 42.4609 2.69531 45.9996 2.69531ZM33.175 38.2926C32.9209 36.909 31.6396 35.9053 30.2601 36.0059C30.1099 36.0169 29.9548 36.0037 29.7996 35.9671C29.1283 35.8081 28.6221 35.0863 28.6221 34.2875V33.1821C28.6221 32.364 29.1574 31.6532 29.8673 31.5286C30.4522 31.426 31.0144 31.6415 31.3702 32.1054C31.6282 32.4418 31.9718 32.6822 32.3635 32.8005C32.9376 32.974 33.5714 32.8723 34.058 32.5288C35.2367 31.6968 36.236 30.6413 37.0277 29.3918C37.426 28.7631 37.2395 27.9306 36.6108 27.532C35.9822 27.1338 35.1496 27.3204 34.751 27.9489C34.2693 28.709 33.6889 29.3731 33.0208 29.9298C32.338 29.2989 31.4696 28.916 30.5487 28.829C30.2276 27.6129 30.0623 26.3675 30.0623 25.114C30.0623 16.7233 37.2117 9.89699 45.9993 9.89699C54.7869 9.89699 61.9363 16.7233 61.9363 25.114C61.9363 26.3662 61.7715 27.6104 61.4509 28.8251C60.9796 28.8524 60.4928 28.9307 60.0547 29.0527L58.8226 28.0396C58.2785 27.5924 57.5963 27.3692 56.9014 27.4095C55.5762 27.4878 52.0666 27.5795 48.1082 26.7445C43.2075 25.7105 39.4513 23.6648 36.9441 20.6644C36.4669 20.0932 35.6169 20.0171 35.0459 20.4944C34.4747 20.9716 34.3987 21.8216 34.8759 22.3926C37.7802 25.8685 42.0451 28.22 47.5521 29.3819C51.8298 30.2843 55.6265 30.1849 57.0606 30.1003C57.0676 30.0998 57.0834 30.099 57.1109 30.1217L58.9472 31.6314C59.3824 31.9892 59.994 32.0386 60.4811 31.755C60.728 31.6115 61.6721 31.4408 62.1303 31.5319C62.841 31.6733 63.3768 32.3753 63.3768 33.165V34.2875C63.3768 35.0861 62.8706 35.8081 62.1995 35.9671C62.0441 36.0037 61.889 36.0169 61.7388 36.0059C60.36 35.9056 59.0781 36.909 58.8239 38.2926C57.6872 44.4814 52.2937 48.9732 45.9993 48.9732C39.7048 48.9732 34.3119 44.4816 33.175 38.2926ZM39.6524 65.489C39.6435 65.4965 39.62 65.5168 39.5776 65.5102C39.5354 65.5035 39.519 65.4769 39.5129 65.4672L34.742 57.7229L37.3572 55.1077L44.0153 61.7658L39.6524 65.489ZM45.9996 59.9384L40.1452 54.084V50.5383C41.9637 51.2676 43.9409 51.6687 45.9996 51.6687C48.0583 51.6687 50.0356 51.2676 51.854 50.5383V54.0839L45.9996 59.9384ZM52.4863 65.467C52.4802 65.4769 52.4639 65.5035 52.4216 65.5102C52.3792 65.5168 52.3559 65.4965 52.3469 65.4891L47.9839 61.7658L54.642 55.1077L57.2572 57.7229L52.4863 65.467Z" fill="black"/>
<path d="M40.2384 74.9006H35.9172C35.173 74.9006 34.5696 75.5038 34.5696 76.2483C34.5696 76.9925 35.173 77.5959 35.9172 77.5959H40.2384C40.9826 77.5959 41.586 76.9925 41.586 76.2483C41.586 75.5038 40.9826 74.9006 40.2384 74.9006Z" fill="black"/>
</svg>
