<svg width="64" height="64" viewBox="0 0 64 64" fill="none" xmlns="http://www.w3.org/2000/svg">
<path d="M28.9873 29.3897C32.5127 29.3897 35.3813 26.5215 35.3813 22.9961C35.3813 19.4702 32.5127 16.6021 28.9873 16.6021C25.4619 16.6021 22.5938 19.4702 22.5938 22.9961C22.5938 26.5215 25.4619 29.3897 28.9873 29.3897ZM28.9873 20.3521C30.4453 20.3521 31.6313 21.5381 31.6313 22.9961C31.6313 24.4536 30.4453 25.6397 28.9873 25.6397C27.5298 25.6397 26.3438 24.4536 26.3438 22.9961C26.3438 21.5381 27.5298 20.3521 28.9873 20.3521Z" fill="#758395"/>
<path d="M62.125 48.4613H56.6967V43.0329C56.6967 41.9974 55.8572 41.1579 54.8217 41.1579C53.7861 41.1579 52.9467 41.9974 52.9467 43.0329V48.4613H47.5183C46.4828 48.4613 45.6433 49.3007 45.6433 50.3363C45.6433 51.3718 46.4828 52.2113 47.5183 52.2113H52.9467V57.6396C52.9467 58.6751 53.7861 59.5146 54.8217 59.5146C55.8572 59.5146 56.6967 58.6751 56.6967 57.6396V52.2113H62.125C63.1606 52.2113 64 51.3718 64 50.3363C64 49.3007 63.1606 48.4613 62.125 48.4613Z" fill="#758395"/>
<path d="M45.0914 55.7646H3.75V49.3789L16.9375 36.1914L27.5578 46.8117C27.8896 47.1436 28.321 47.3692 28.7881 47.415C29.3877 47.4738 29.963 47.266 30.3818 46.8467L47.0625 30.166L53.265 36.3685C54.4941 37.5976 55.9681 37.2586 56.4315 35.5833C56.6161 34.9161 56.4214 34.2221 55.9514 33.752L48.4561 26.2563C47.687 25.4888 46.4365 25.4893 45.668 26.2578L28.9878 42.938L18.333 32.2837C17.9481 31.8983 17.4319 31.6916 16.885 31.7058C16.3624 31.7192 15.8701 31.9555 15.5005 32.3252L3.75 44.0757V8.375H60.25V26.7626H60.2505V39.2832C60.2505 40.3186 61.0898 41.1579 62.1252 41.1579C63.1606 41.1579 64 40.3186 64 39.2832V6.96191C64 5.67127 62.9537 4.625 61.6631 4.625H2.33691C1.04627 4.625 0 5.67127 0 6.96191V57.1777C0 58.4684 1.04627 59.5146 2.33691 59.5146H45.0914C46.127 59.5146 46.9664 58.6752 46.9664 57.6396C46.9664 56.6041 46.127 55.7646 45.0914 55.7646Z" fill="#758395"/>
</svg>
