<svg width="135" height="22" viewBox="0 0 135 22" fill="none" xmlns="http://www.w3.org/2000/svg">
<g clip-path="url(#clip0)">
<path d="M67.6452 0.187347H67.3548V21.8127H67.6452V0.187347Z" fill="white"/>
<path d="M22.1524 9.09976L22.126 8.85888L22.0731 8.61801L22.0203 8.37713L21.9675 8.13625L21.8883 7.89538L21.8091 7.68127L21.7035 7.46715L21.5979 7.25304L21.4923 7.03893L21.3603 6.85158L21.2282 6.66423L21.0962 6.47689L20.9378 6.28954L20.7794 6.12895L20.5946 5.94161L20.4097 5.78102L20.2249 5.6472L20.0401 5.51338L19.8553 5.37956L19.644 5.27251L19.4328 5.16545L19.2216 5.05839L19.0104 4.9781L18.7463 4.89781L18.5087 4.81752L18.2711 4.76399L18.0334 4.71046L17.7958 4.6837L17.5582 4.65693H17.3206H17.2413H17.1621H17.1093H17.0565H17.0037H16.9509H16.8981H16.8453H16.7925H16.7397H16.6869H16.6341H16.5813H16.5285H16.4757H16.4228L16.37 4.6837L16.1324 4.81752H16.0796L16.0268 4.84428L15.974 4.87105V4.84428L15.9476 4.60341L15.9212 4.36253L15.8684 4.12165L15.8156 3.88078L15.7364 3.6399L15.6571 3.39903L15.5779 3.18491L15.4987 2.94404L15.3931 2.72993L15.2875 2.51581L15.1555 2.32847L15.0235 2.14112L14.8915 1.95377L14.733 1.76642L14.5746 1.60584L14.4162 1.44526L14.2314 1.28467L14.0465 1.15085L13.8617 1.01703L13.6769 0.883211L13.4657 0.776155L13.2016 0.615571L12.9904 0.535279L12.7792 0.454988L12.5416 0.374696L12.3039 0.294404L12.0663 0.240876L11.8287 0.187348L11.591 0.160584L11.3534 0.13382H11.1158H10.8782L10.6405 0.160584L10.4029 0.187348L10.1653 0.240876L9.92764 0.294404L9.69001 0.374696L9.45238 0.454988L9.18834 0.535279L8.97712 0.615571L8.76589 0.722627L8.55467 0.829683L8.34344 0.963503L8.18502 1.12409L8.0002 1.25791L7.81537 1.41849L7.65695 1.57908L7.49853 1.73966L7.34011 1.92701L7.2081 2.11436L7.07608 2.3017L6.94406 2.48905L6.83845 2.70316L6.70643 2.94404L6.60082 3.15815L6.52161 3.37226L6.4424 3.61314L6.36319 3.85401L6.31039 4.09489L6.25758 4.33577L6.23118 4.57664V4.81752V4.84428L6.17837 4.81752H6.09916L6.04635 4.79075L5.99355 4.76399L5.94074 4.73723L5.88793 4.71046H5.83513H5.78232H5.72951H5.67671H5.6239H5.57109H5.51829H5.46548H5.41267H5.35987H5.30706H5.22785H5.14864H5.06943H4.99022H4.75259L4.51496 4.73723L4.27733 4.76399L4.0397 4.81752H3.67006L3.43243 4.87105L3.1948 4.95134L2.98357 5.03163L2.77235 5.13869L2.56112 5.24574L2.34989 5.3528L2.16507 5.48662L1.98025 5.62044L1.79542 5.75426L1.6106 5.91484L1.45218 6.07543L1.29376 6.23601L1.13534 6.42336L1.00332 6.61071L0.871308 6.79805L0.739292 6.9854L0.633679 7.19951L0.528066 7.41363L0.422453 7.62774L0.343243 7.84185L0.264033 8.08273L0.184823 8.3236L0.132016 8.56448L0.0792099 8.80535L0.0264033 9.09976L0 9.34063V9.58151V9.79562L0.0264033 10.0097L0.0528066 10.2238L0.0792099 10.438L0.132016 10.6521L0.184823 10.8662L0.23763 11.0803L0.316839 11.2676L0.396049 11.455L0.475259 11.6423L0.528066 11.8564L0.633679 12.0438L0.739292 12.2311L0.844905 12.3917L0.976922 12.5791L1.10894 12.7397L1.24095 12.9002L1.37297 13.0608L1.50499 13.1946L1.66341 13.3285L1.82183 13.4623L1.98025 13.5961L2.13867 13.7032L2.29709 13.8102L2.50831 13.9173L2.69314 14.0243L2.87796 14.1046L3.06278 14.1849L3.1948 14.2384L3.16839 14.292L3.11559 14.3723L3.06278 14.4793L3.00997 14.5864L2.95717 14.6934L2.90436 14.8005L2.85156 14.9075L2.79875 15.0146L2.74594 15.1217L2.69314 15.2287L2.66673 15.3358L2.64033 15.3893L2.61393 15.4964L2.58752 15.6034L2.56112 15.7105L2.53472 15.8175L2.50831 15.9246L2.48191 16.0316L2.45551 16.1387L2.4291 16.2457L2.4027 16.3528V16.4599V16.5669V16.674V16.781V16.8881V17.129L2.4291 17.3698L2.45551 17.6107L2.48191 17.9319L2.53472 18.1728L2.61393 18.4136L2.69314 18.6545L2.77235 18.8686L2.87796 19.0827L2.98357 19.2968L3.08918 19.511L3.2212 19.6983L3.35322 19.8856L3.48523 20.073L3.64365 20.2603L3.80207 20.4209L3.96049 20.5815L4.14532 20.7421L4.33014 20.8759L4.51496 21.0097L4.69978 21.1436L4.91101 21.2506L5.12224 21.3577L5.33346 21.4647L5.54469 21.545L5.80872 21.6788L6.04635 21.7591L6.28398 21.8127L6.52161 21.8662L6.75924 21.8929L6.99687 21.9197H7.2345H7.39292H7.55134L7.70976 21.8929L7.86818 21.8662L8.0266 21.8394L8.18502 21.8127L8.34344 21.7859L8.50186 21.7324L8.66028 21.6788L8.8187 21.6253L8.97712 21.5718L9.13554 21.5183L9.29396 21.4647L9.42597 21.3844L9.55799 21.3041L9.69001 21.2238L9.82202 21.1436L9.95404 21.0633L10.0861 20.983L10.2181 20.8759L10.3501 20.7689L10.4821 20.6618L10.5877 20.5547L10.6933 20.4477L10.7989 20.3406L10.9046 20.2336L11.0102 20.0998L11.063 20.0462L11.1158 20.0998L11.2214 20.2336L11.327 20.3674L11.4326 20.4745L11.5382 20.5815L11.6438 20.6886L11.7759 20.7956L11.9079 20.9027L12.0399 21.0097L12.1719 21.1168L12.3039 21.1971L12.4359 21.2774L12.568 21.3577L12.7 21.438L12.832 21.5183L12.9904 21.5985L13.1488 21.6521L13.3073 21.7056L13.4657 21.7591L13.6241 21.8127L13.7825 21.8662L13.9409 21.8929L14.0994 21.9197L14.2578 21.9465L14.4162 21.9732L14.5746 22H14.733H14.9179H15.1555L15.3931 21.9732L15.6307 21.9465L15.8684 21.8929L16.106 21.8394L16.3436 21.7591L16.5813 21.6788L16.7925 21.5985L17.0037 21.4915L17.2149 21.3844L17.4262 21.2774L17.611 21.1436L17.7958 21.0097L17.9806 20.8759L18.1655 20.7153L18.3239 20.5547L18.4823 20.3942L18.6407 20.2068L18.7727 20.0195L18.9048 19.8321L19.0368 19.6448L19.1424 19.4307L19.248 19.2165L19.3536 19.0024L19.4328 18.7883L19.512 18.5474L19.5912 18.3066L19.644 18.0657L19.6969 17.8248L19.7233 17.5839L19.7497 17.3431V17.1022V16.9684V16.8613V16.7543V16.6472V16.5401L19.8025 16.2725L19.7761 16.1655L19.7497 16.0584L19.7233 15.9513L19.6969 15.8443L19.6704 15.7372L19.644 15.6302L19.6176 15.5231L19.5912 15.4161L19.5384 15.2822L19.512 15.1752L19.4592 15.0681L19.4064 14.9611L19.3536 14.854L19.3008 14.747L19.2744 14.6667L19.2216 14.5596L19.1688 14.4526L19.116 14.3455L19.0632 14.2652L19.0368 14.2117L19.1688 14.1582L19.3536 14.0779L19.5384 13.9976L19.7233 13.8905L19.9081 13.7835L20.0665 13.6764L20.2249 13.5693L20.3833 13.4355L20.5418 13.3017L20.7002 13.1679L20.8322 13.0341L20.9642 12.8735L21.0962 12.7129L21.2282 12.5523L21.3339 12.3917L21.4395 12.2311L21.5451 12.0438L21.6507 11.8564L21.7299 11.6691L21.8091 11.4818L21.8883 11.2944L21.9675 11.1071L22.0203 10.8929L22.0731 10.6788L22.126 10.4647L22.1524 10.2506L22.1788 10.0365L22.2052 9.82239V9.60827V9.3674L22.1524 9.09976ZM18.2447 13.9976C18.9312 14.8005 19.38 15.8443 19.38 16.9684C19.38 19.4307 17.3998 21.438 14.9707 21.438C13.3073 21.438 11.8815 20.5012 11.1158 19.1363C10.3501 20.4745 8.92431 21.4112 7.28731 21.4112C4.8582 21.4112 2.87796 19.4039 2.87796 16.9416C2.87796 15.8175 3.30041 14.7737 3.9869 13.9976C1.95384 13.5426 0.448856 11.7494 0.448856 9.60827C0.448856 7.14599 2.4291 5.13869 4.8582 5.13869C5.49188 5.13869 6.12556 5.27251 6.68003 5.54015C6.65363 5.40633 6.65363 5.24574 6.65363 5.11192C6.65363 2.64964 8.63387 0.642335 11.063 0.642335C13.4921 0.642335 15.4723 2.64964 15.4723 5.11192C15.4723 5.27251 15.4723 5.40633 15.4459 5.54015C16.0004 5.29927 16.6077 5.13869 17.2413 5.13869C19.6705 5.13869 21.6507 7.14599 21.6507 9.60827C21.7299 11.7494 20.2249 13.5426 18.2447 13.9976Z" fill="#ED1C24"/>
<path d="M13.2545 4.8175H8.92434V9.2068H4.62061V13.5961H8.92434V17.9586H13.2545V13.5961H17.5582V9.2068H13.2545V4.8175Z" fill="#ED1C24"/>
<path d="M34.1131 16.6204C34.0867 16.6204 34.0603 16.6204 34.0603 16.6472C34.0603 17.1825 34.0603 17.7177 34.0603 18.2263C34.0603 18.2263 34.0603 18.253 34.0338 18.253C34.0338 18.253 34.0339 18.253 34.0074 18.253C33.9282 18.146 33.8226 18.0121 33.6906 17.9319C33.6378 17.8783 33.5586 17.8783 33.4794 17.8248C33.4002 17.798 33.321 17.798 33.2418 17.798C33.1361 17.798 33.0041 17.8248 32.8985 17.8248C32.8457 17.8248 32.8193 17.8516 32.7929 17.8516C32.7665 17.8783 32.7137 17.8783 32.6873 17.9051C32.6345 17.9319 32.5817 17.9854 32.5289 18.0122C32.344 18.1727 32.1856 18.4136 32.1328 18.6545C32.0536 18.8954 32.0272 19.1362 32.0008 19.3771C32.0008 19.6983 32.0008 20.0194 32.0008 20.3406C32.0272 20.4744 32.0272 20.635 32.0536 20.7688C32.0536 20.8224 32.08 20.9027 32.08 20.9562C32.1064 21.09 32.1592 21.1971 32.1856 21.3309C32.2648 21.5182 32.4497 21.7859 32.6345 21.8662C32.7401 21.9465 32.8721 21.9732 33.0041 21.9732C33.0833 22 33.4002 21.9732 33.5322 21.9465C33.7962 21.8394 33.9018 21.7591 34.0603 21.5182H34.0867C34.0867 21.6253 34.0867 21.7323 34.0867 21.8394L34.1131 21.8662C34.4035 21.8662 34.6939 21.8662 34.9844 21.8662C35.0108 21.8662 35.0372 21.8662 35.0636 21.8394C35.0636 20.0997 35.0636 18.3333 35.0636 16.5937C35.0372 16.5669 35.0372 16.5669 35.0108 16.5669C34.7203 16.6204 34.4035 16.6204 34.1131 16.6204ZM33.981 20.6885C33.9546 20.7421 33.9546 20.7956 33.9282 20.8759C33.9018 20.9027 33.9018 20.9562 33.8754 20.983C33.849 21.0365 33.7962 21.1168 33.7434 21.1435C33.717 21.1703 33.6906 21.1703 33.6642 21.1971C33.585 21.2238 33.4794 21.2238 33.4002 21.2238C33.3738 21.2238 33.3474 21.1971 33.321 21.1971C33.2153 21.1435 33.1361 21.09 33.0833 20.983C33.0569 20.9562 33.0569 20.9027 33.0305 20.8759C33.0041 20.7956 33.0041 20.7153 32.9777 20.635C32.9777 20.528 32.9513 20.4209 32.9513 20.3139C32.9513 20.1265 32.9513 19.9392 32.9513 19.7518C32.9513 19.5645 32.9777 19.4039 32.9777 19.2433C33.0041 19.0827 33.0305 18.9221 33.1361 18.7883C33.1361 18.7348 33.321 18.6545 33.3738 18.6277C33.453 18.6277 33.5322 18.6277 33.585 18.6277C33.6114 18.6277 33.6642 18.6545 33.6906 18.6545C33.717 18.6812 33.7434 18.6813 33.7698 18.708C33.849 18.7883 33.8754 18.8686 33.9018 18.9489C33.9282 18.9757 33.9282 19.0559 33.9546 19.1095C33.9546 19.2165 33.981 19.2968 33.981 19.4039C34.0338 19.8321 34.0603 20.2871 33.981 20.6885Z" fill="white"/>
<path d="M38.8656 18.7348C38.8656 18.7348 38.8392 18.7348 38.8656 18.7348C38.7864 18.4939 38.6808 18.2798 38.496 18.1192C38.496 18.1192 38.496 18.1192 38.496 18.0925C38.4696 18.0925 38.3904 18.0389 38.3904 18.0122C38.3375 17.9854 38.2847 17.9586 38.2319 17.9319C38.1263 17.8784 37.9943 17.8516 37.8887 17.8248C37.7831 17.7981 37.6775 17.7981 37.5719 17.7981C37.3342 17.7981 37.123 17.8248 36.9118 17.8784C36.8326 17.9051 36.7534 17.9319 36.7005 17.9586C36.6741 17.9586 36.6477 17.9854 36.6213 17.9854C36.5949 18.0122 36.4629 18.0657 36.4629 18.0925C36.4101 18.1192 36.3045 18.2263 36.2781 18.2798C36.2781 18.2798 36.2517 18.2798 36.2517 18.3066C36.2253 18.3333 36.1989 18.3601 36.1989 18.4136C36.1461 18.5475 36.0669 18.6545 36.0405 18.8151C35.9877 19.0024 35.9349 19.2166 35.9349 19.4039C35.9084 19.4574 35.9084 19.5377 35.9084 19.618C35.9084 19.8321 35.9084 20.0462 35.9084 20.2604C35.9084 20.2604 35.9084 20.2604 35.9084 20.2871C35.9349 20.4745 35.9613 20.6618 35.9877 20.8759C36.0141 20.983 36.0405 21.0633 36.0669 21.1703C36.0933 21.1971 36.2253 21.545 36.2781 21.545C36.3045 21.5986 36.3573 21.6521 36.3837 21.6788C36.4365 21.7324 36.4893 21.7591 36.5685 21.8127C36.6213 21.8394 36.6477 21.8662 36.7005 21.893C36.8326 21.9465 37.0174 21.9732 37.1494 22V22.0268C37.1494 22.0268 37.1494 22.0268 37.1758 22.0268V22H37.2022C37.2022 22 37.2022 22 37.2022 22.0268C37.3606 22.0268 37.519 22.0268 37.6775 22.0268V22C37.8359 21.9732 38.0471 21.9465 38.2055 21.8662C38.3111 21.8394 38.4168 21.7591 38.496 21.7056C38.496 21.6788 38.6016 21.5986 38.628 21.5986C38.7072 21.4915 38.7864 21.3577 38.8656 21.2239C38.8656 21.1971 38.892 21.1703 38.892 21.1436C38.9184 21.09 38.9184 21.0633 38.9448 21.0097C38.9712 20.9295 38.9712 20.8492 38.9976 20.7689C39.0504 20.6886 39.024 20.5012 39.0504 20.4209C39.0504 20.1801 39.0504 19.9124 39.0504 19.6715C39.0504 19.5377 39.0504 19.3771 39.024 19.2433C38.9448 19.0827 38.892 18.9222 38.8656 18.7348ZM37.9679 20.2068C37.9679 20.3674 37.9415 20.5548 37.9151 20.7153C37.8887 20.7689 37.8887 20.8224 37.8887 20.8759C37.8623 20.9295 37.8359 21.0365 37.8095 21.09C37.7831 21.1436 37.7567 21.1703 37.7039 21.2239C37.6511 21.2506 37.5983 21.2774 37.5455 21.3041C37.4662 21.3041 37.387 21.3041 37.3078 21.3041C37.255 21.2774 37.2286 21.2774 37.1758 21.2506C37.1758 21.2506 37.1758 21.2506 37.1758 21.2239C37.0966 21.1971 37.0702 21.1168 37.0174 21.0633C36.991 21.0097 36.9646 20.9562 36.9382 20.9027C36.9118 20.7689 36.8854 20.6083 36.8854 20.4745C36.8326 20.1265 36.859 19.7786 36.859 19.4307C36.8854 19.2166 36.8854 19.0024 36.9646 18.7883C36.991 18.7348 37.0174 18.708 37.0438 18.6545C37.123 18.5475 37.2022 18.5207 37.3078 18.4939C37.3606 18.4939 37.519 18.4672 37.5719 18.5207C37.5983 18.5475 37.6511 18.5475 37.6775 18.5742C37.6775 18.601 37.7039 18.601 37.7039 18.601C37.7303 18.6545 37.7831 18.7348 37.8095 18.8151C37.9943 19.2968 37.9679 19.7518 37.9679 20.2068Z" fill="white"/>
<path d="M46.6018 19.163C46.5754 19.056 46.5754 18.9757 46.549 18.8686C46.549 18.8686 46.549 18.8419 46.5226 18.8419C46.4962 18.7348 46.4698 18.6277 46.4169 18.5207C46.3377 18.3333 46.2321 18.1995 46.0737 18.0657C45.9417 17.9854 45.7833 17.8784 45.6248 17.8784C45.5192 17.8248 45.3344 17.8248 45.2288 17.8248C44.9648 17.8248 44.7007 17.8516 44.4631 17.9319C44.4631 17.9319 44.4367 17.9319 44.4367 17.9586C44.4103 17.9586 44.3839 17.9586 44.3839 17.9854C44.3575 18.0122 44.1991 18.0657 44.1991 18.1192C44.1463 18.146 44.0935 18.1995 44.0407 18.2531C43.9878 18.3066 43.935 18.3869 43.8822 18.4672C43.8822 18.4939 43.8294 18.5742 43.8294 18.601C43.803 18.6545 43.7766 18.7348 43.7502 18.7883C43.7238 18.8954 43.6974 19.0024 43.671 19.0827C43.6446 19.163 43.6446 19.2433 43.6446 19.3504C43.6446 19.4307 43.6182 19.5377 43.6182 19.6448C43.6182 19.7786 43.6182 19.9124 43.5918 20.0462C43.6446 20.1533 43.5654 20.3139 43.6182 20.3942C43.6182 20.5012 43.6182 20.6083 43.6182 20.7153C43.6446 20.8492 43.6446 21.0365 43.7238 21.1436C43.7502 21.3042 43.8558 21.4647 43.9614 21.6253C43.9878 21.6521 44.1463 21.8394 44.1991 21.8394C44.1991 21.8394 44.1991 21.8394 44.1991 21.8662C44.2255 21.893 44.3311 21.9465 44.3575 21.9465C44.5159 22.0268 44.7007 22.0535 44.8856 22.0803C44.8856 22.0803 44.8856 22.0803 44.8856 22.1071C45.044 22.1071 45.2024 22.1071 45.3608 22.1071V22.0803C45.4136 22.0803 45.4928 22.0535 45.572 22.0535C45.6513 22.0268 45.7305 22 45.8097 21.9733C45.8361 21.9465 46.0473 21.8662 46.0473 21.8394C46.2585 21.7324 46.4433 21.3844 46.4962 21.1436C46.5226 21.09 46.5226 21.0097 46.549 20.9562C46.549 20.8759 46.549 20.7689 46.5754 20.6886C46.5754 20.6618 46.549 20.6618 46.549 20.6618C46.2585 20.6618 45.9681 20.6618 45.6777 20.6618L45.6512 20.6886C45.6512 20.7956 45.5984 20.9295 45.572 21.0365C45.5192 21.1703 45.44 21.2774 45.3344 21.3577C45.308 21.3577 45.2552 21.3844 45.2288 21.3844C45.1496 21.3844 45.0968 21.3844 45.0176 21.3844C44.9912 21.3577 44.9384 21.3577 44.912 21.3309C44.7007 21.1436 44.6479 20.8492 44.6479 20.5815C44.6215 20.4745 44.6215 20.3406 44.6215 20.2068C44.6215 20.1801 44.6215 20.1801 44.6479 20.1533C45.308 20.1533 45.9417 20.1533 46.6018 20.1533C46.6282 20.1265 46.6018 19.7786 46.6018 19.6983C46.6282 19.4574 46.6018 19.3236 46.6018 19.163ZM45.6512 19.4574C45.3344 19.4574 44.9912 19.4574 44.6743 19.4574L44.6479 19.4307C44.6479 19.3771 44.6479 19.3236 44.6479 19.2969C44.6743 19.1095 44.6743 18.9222 44.7799 18.7616C44.7799 18.7348 44.7799 18.7348 44.8063 18.708C44.8063 18.708 44.8063 18.708 44.8327 18.708C44.8327 18.6545 44.9384 18.601 44.9648 18.5742C44.9912 18.5475 45.0176 18.5475 45.044 18.5475C45.1496 18.5207 45.2552 18.5207 45.3608 18.5475C45.4136 18.5742 45.4664 18.601 45.5192 18.6545C45.6512 18.8954 45.6512 19.163 45.6512 19.4574Z" fill="white"/>
<path d="M50.1926 20.073C50.1398 20.0195 50.1134 19.9659 50.0606 19.9124C50.0606 19.9124 50.0606 19.9124 50.0606 19.8856C50.0342 19.8589 50.0342 19.8589 50.0078 19.8321C49.9814 19.8053 49.955 19.8053 49.9286 19.7786C49.8758 19.725 49.7702 19.6983 49.7174 19.6448C49.559 19.5912 49.427 19.5377 49.2949 19.4842C49.1365 19.4574 48.9781 19.3771 48.8197 19.3236C48.7405 19.2701 48.6613 19.2165 48.582 19.1362C48.5556 19.1095 48.5556 19.0827 48.5292 19.0559C48.5292 19.0292 48.5028 19.0024 48.5028 18.9757C48.5028 18.9221 48.5028 18.8954 48.5028 18.8418C48.5028 18.7883 48.5292 18.7615 48.5292 18.708C48.5556 18.6813 48.582 18.6277 48.6085 18.601C48.6613 18.5474 48.7405 18.5207 48.8197 18.4671C48.9253 18.4671 49.0309 18.4404 49.1365 18.4671C49.1629 18.4671 49.1893 18.4939 49.2157 18.4939C49.2421 18.5207 49.2685 18.5474 49.3213 18.5742C49.3477 18.6277 49.3741 18.6813 49.4005 18.7348C49.4005 18.7883 49.427 18.8418 49.427 18.8954C49.427 18.9489 49.427 19.0024 49.4534 19.0292C49.7438 19.0292 50.0342 19.0292 50.3511 19.0292C50.3511 18.8418 50.3511 18.6277 50.2983 18.4404C50.2719 18.3333 50.1926 18.2263 50.1398 18.146C50.1134 18.1192 50.087 18.0924 50.0606 18.0657C50.0078 18.0122 49.9286 17.9586 49.8758 17.9319C49.7438 17.8516 49.5854 17.8248 49.427 17.7713C49.2421 17.7445 49.0309 17.7178 48.8461 17.7445C48.6877 17.7445 48.5028 17.7713 48.3444 17.8248C48.2388 17.8516 48.1596 17.9051 48.054 17.9586C47.9748 18.0122 47.922 18.0657 47.8428 18.1192C47.7107 18.253 47.6051 18.4136 47.5787 18.5742C47.5259 18.6813 47.5523 18.7883 47.5259 18.8686C47.5259 18.9221 47.5259 18.9757 47.5259 19.0292C47.5259 19.1095 47.5523 19.163 47.5523 19.2433C47.5787 19.2968 47.5787 19.3504 47.6051 19.4039C47.6051 19.4039 47.6051 19.4306 47.6315 19.4306C47.6579 19.5645 47.79 19.6983 47.8692 19.7786C47.9484 19.8856 48.0804 19.9392 48.186 19.9927C48.2652 20.0195 48.3444 20.0462 48.3972 20.073C48.45 20.1265 48.5556 20.1265 48.6349 20.18C48.6613 20.18 48.7405 20.2068 48.7405 20.2068C48.7669 20.2068 48.8197 20.2336 48.8461 20.2336C48.9517 20.2603 49.0573 20.3406 49.1893 20.3674C49.2421 20.3941 49.2949 20.4477 49.3477 20.5012C49.3741 20.528 49.3741 20.5547 49.4005 20.5547C49.4005 20.5815 49.427 20.5815 49.427 20.6083C49.427 20.6618 49.4534 20.6886 49.4534 20.7421C49.4534 20.8224 49.427 20.9027 49.427 20.9562C49.3741 21.0365 49.3477 21.09 49.2685 21.1435C49.2157 21.1703 49.1365 21.1971 49.0573 21.2238C48.9781 21.2238 48.8989 21.2238 48.8197 21.2238C48.7669 21.2238 48.5556 21.1435 48.5556 21.09C48.4764 21.0632 48.45 20.9027 48.4236 20.8224C48.4236 20.7153 48.3972 20.635 48.3972 20.528C48.1068 20.528 47.8164 20.528 47.5259 20.528L47.4995 20.5547C47.4995 20.6618 47.4995 20.7421 47.4995 20.8491C47.5259 21.0365 47.5259 21.2506 47.6579 21.4112C47.7107 21.5718 47.922 21.7056 48.0804 21.7859C48.1332 21.8126 48.186 21.8394 48.2652 21.8394C48.3972 21.8662 48.5292 21.8929 48.6613 21.8929C48.6613 21.8929 48.6613 21.8929 48.6613 21.9197H48.6877V21.8929H48.7141C48.7141 21.8929 48.7141 21.8929 48.7141 21.9197C48.8725 21.9197 49.0309 21.9197 49.1893 21.9197V21.8929C49.2685 21.8929 49.3477 21.8662 49.427 21.8662C49.5326 21.8394 49.6118 21.8126 49.7174 21.7859C49.7702 21.7591 50.0342 21.6521 50.0342 21.5985C50.1398 21.5182 50.2191 21.3844 50.3247 21.2774C50.4039 21.1168 50.4303 20.9562 50.4567 20.7956C50.4567 20.6618 50.4567 20.5012 50.4303 20.3674C50.3247 20.4209 50.2455 20.073 50.1926 20.073Z" fill="white"/>
<path d="M56.0541 21.8127C56.0013 21.7056 56.0013 21.5718 55.9749 21.4647C55.9749 20.5815 55.9749 19.6983 55.9485 18.8419C55.9485 18.7883 55.9221 18.7348 55.9221 18.6813C55.8693 18.5742 55.8693 18.3869 55.7637 18.2798C55.6845 18.1192 55.4997 17.9854 55.3413 17.9586C55.2884 17.9319 55.2356 17.9051 55.1828 17.9051C55.13 17.8784 55.0772 17.8784 55.0244 17.8784C54.9452 17.8784 54.8924 17.8516 54.8132 17.8516C54.6812 17.8516 54.5228 17.8248 54.3907 17.8516C54.2851 17.8516 54.2059 17.8784 54.1003 17.8784C54.0475 17.8784 53.9947 17.9051 53.9419 17.9051C53.8891 17.9319 53.8099 17.9319 53.7571 17.9586C53.6779 17.9854 53.5986 18.0389 53.5194 18.0925C53.4666 18.1192 53.4402 18.1728 53.3874 18.1995C53.229 18.4404 53.1498 18.601 53.097 18.8954C53.097 18.9757 53.097 19.056 53.097 19.163C53.097 19.163 53.097 19.163 53.1234 19.163C53.4138 19.163 53.7307 19.163 54.0211 19.163C54.0211 19.0827 54.0211 18.9757 54.0211 18.8954C54.0475 18.8151 54.0739 18.708 54.1531 18.6545C54.2587 18.5207 54.4964 18.5207 54.6548 18.5475C54.6812 18.5475 54.7076 18.5742 54.734 18.5742C54.7604 18.601 54.7868 18.601 54.7868 18.6277C54.8132 18.6545 54.8396 18.708 54.8396 18.7348C54.8396 18.7348 54.8396 18.7348 54.866 18.7348C54.866 18.7616 54.866 18.7616 54.8924 18.7883C54.9452 18.8419 54.9188 19.056 54.9188 19.1363C54.9188 19.1898 54.8924 19.2166 54.866 19.2701C54.8396 19.2968 54.8396 19.2968 54.8396 19.3236C54.7868 19.3504 54.7604 19.3771 54.7076 19.4039C54.6812 19.4039 54.6548 19.4307 54.6284 19.4307C54.602 19.4307 54.5492 19.4574 54.5228 19.4574C54.3643 19.4842 54.2059 19.5645 54.0211 19.5912C53.9947 19.5912 53.9683 19.618 53.9683 19.618C53.8891 19.618 53.8099 19.6715 53.7307 19.6983C53.5722 19.7518 53.4666 19.8054 53.3346 19.8857C53.3346 19.8857 53.3346 19.9124 53.3082 19.9124C53.1762 19.9927 53.0442 20.1801 53.0178 20.3406C52.965 20.4209 52.965 20.528 52.965 20.6083C52.965 20.7689 52.965 20.9294 52.965 21.0633C52.9914 21.1436 52.9914 21.3577 53.0706 21.438C53.097 21.5183 53.1498 21.5985 53.2026 21.6788C53.3082 21.8662 53.5458 21.9465 53.7307 21.9732V22C53.8627 22 53.9947 22 54.1003 22C54.1003 22 54.1003 22 54.1003 21.9732C54.2323 21.9465 54.3907 21.9465 54.4963 21.893C54.6548 21.8394 54.7868 21.6788 54.866 21.545C54.866 21.545 54.8924 21.545 54.8924 21.5183C54.8924 21.5718 54.9188 21.6253 54.9188 21.6788C54.9188 21.7056 54.9452 21.7591 54.9452 21.8127C54.9716 21.8394 54.9716 21.8662 54.998 21.9197C54.998 21.9197 55.0244 21.9197 55.0244 21.9465C55.3413 21.9465 55.6317 21.9465 55.9485 21.9465C56.0805 21.893 56.0541 21.8394 56.0541 21.8127ZM54.9716 20.8224C54.9452 20.9294 54.9188 21.0097 54.8396 21.09C54.7868 21.1436 54.734 21.1703 54.6812 21.2239C54.6284 21.2506 54.5492 21.2774 54.4963 21.3041C54.4171 21.3041 54.3379 21.3041 54.2587 21.3041C54.2059 21.2774 54.1531 21.2506 54.1267 21.1971C53.9947 21.0633 53.9947 20.8492 53.9947 20.6618C54.0211 20.4477 54.1003 20.2871 54.2851 20.2068C54.3115 20.1801 54.3643 20.1801 54.3907 20.1801C54.5756 20.0998 54.7868 20.073 54.9452 19.9659H54.9716C54.9716 20.2603 54.9716 20.5548 54.9716 20.8224Z" fill="white"/>
<path d="M27.301 16.6204C26.9842 16.6204 26.6673 16.6204 26.3241 16.6204C26.2977 16.6204 26.2977 16.6204 26.2977 16.6204C26.2977 18.3868 26.2977 20.1265 26.2977 21.8929C26.3241 21.8929 26.3505 21.8929 26.3769 21.9197C26.6937 21.9197 27.0106 21.9197 27.3538 21.9197L27.3802 21.8929C27.3802 20.1265 27.3802 18.3868 27.3802 16.6472C27.3274 16.6204 27.301 16.6204 27.301 16.6204Z" fill="white"/>
<path d="M31.0766 18.3333C31.0502 18.2798 31.0238 18.2263 30.971 18.146C30.9446 18.1192 30.9446 18.0925 30.9182 18.0925C30.8654 18.0122 30.7598 17.9854 30.707 17.9051C30.6806 17.8784 30.6278 17.8784 30.6014 17.8516C30.5486 17.8248 30.5222 17.8248 30.4694 17.8248C30.3902 17.7981 30.2845 17.7981 30.2053 17.7981C30.0469 17.7981 29.8621 17.8248 29.7037 17.8784C29.6509 17.9051 29.3604 18.0122 29.3604 18.0925C29.334 18.1192 29.334 18.1192 29.3076 18.146C29.2548 18.1995 29.2284 18.2531 29.1756 18.3333C29.1492 18.3601 29.1492 18.3601 29.1492 18.3869C29.1492 18.3869 29.1492 18.3601 29.1228 18.3601C29.1228 18.2263 29.1228 18.0925 29.1228 17.9586C29.1228 17.9586 29.1228 17.9319 29.0964 17.9319C28.7796 17.9319 28.4627 17.9319 28.1459 17.9319V17.9586C28.1459 19.2701 28.1459 20.5815 28.1459 21.893C28.1723 21.9197 28.1987 21.9197 28.2251 21.9197C28.5155 21.9197 28.806 21.9197 29.0964 21.9197C29.1228 21.9197 29.1756 21.9197 29.1756 21.8662C29.1756 20.983 29.1756 20.073 29.1756 19.1898C29.1756 19.1363 29.202 19.056 29.202 19.0024C29.202 18.9757 29.2284 18.9489 29.2284 18.9222C29.2548 18.8686 29.2812 18.8419 29.3076 18.7883C29.334 18.7616 29.3604 18.7348 29.4132 18.708C29.4396 18.6813 29.466 18.6813 29.4924 18.6545C29.5981 18.6277 29.6773 18.6277 29.7829 18.6277C29.8885 18.6545 29.9677 18.6545 30.0469 18.7616C30.0469 18.7616 30.0469 18.7616 30.0733 18.7616C30.0997 18.7883 30.0997 18.8151 30.1261 18.8419C30.1525 18.8954 30.1525 18.9489 30.1789 19.0292C30.1789 19.9927 30.1789 20.9562 30.1789 21.9197C30.1789 21.9197 30.1789 21.9465 30.2053 21.9465C30.5222 21.9465 30.8654 21.9465 31.1823 21.9465L31.2087 21.9197C31.2087 20.8759 31.2087 19.8321 31.2087 18.7883C31.2087 18.6813 31.1823 18.5742 31.1559 18.4672C31.103 18.4136 31.0766 18.3869 31.0766 18.3333Z" fill="white"/>
<path d="M42.4565 18.0122C42.4301 17.9587 42.3245 17.9051 42.2716 17.9051C42.2188 17.8784 42.166 17.8516 42.1132 17.8516C42.034 17.8248 41.9548 17.8248 41.8492 17.8248C41.6644 17.8248 41.4795 17.8516 41.3211 17.9319C41.2155 17.9586 41.1363 18.0389 41.0307 18.0925C41.0307 18.1192 40.9515 18.1728 40.9251 18.1995C40.9251 18.2263 40.8723 18.2798 40.8723 18.2798C40.8723 18.3066 40.8195 18.3869 40.7931 18.3869C40.7139 18.2798 40.8195 18.0925 40.7667 17.9586H40.7403C40.4234 17.9586 40.133 17.9586 39.8161 17.9586C39.8161 17.9586 39.7897 17.9854 39.7897 18.0122C39.7897 19.3236 39.7897 20.6083 39.7897 21.9197C39.7897 21.9465 39.8161 21.9465 39.8425 21.9465C40.1594 21.9465 40.4762 21.9465 40.7931 21.9465C40.7931 21.9465 40.7931 21.9465 40.8195 21.9197C40.8195 21.0097 40.8195 20.1265 40.8195 19.2166C40.8459 19.1363 40.8459 19.0292 40.8723 18.9489C40.8987 18.9222 40.8987 18.8954 40.8987 18.8686C40.9515 18.7883 40.9779 18.7616 41.0571 18.6813C41.0835 18.6813 41.0835 18.6545 41.1099 18.6545C41.1363 18.6277 41.1891 18.6277 41.2419 18.6277C41.3211 18.6277 41.4003 18.6277 41.4795 18.6277C41.506 18.6277 41.5324 18.6545 41.5588 18.6545C41.6116 18.6813 41.6644 18.7348 41.7172 18.7883C41.7172 18.8151 41.7436 18.8419 41.7436 18.8954C41.7436 18.9489 41.77 19.0024 41.77 19.056C41.77 19.9927 41.77 20.9562 41.7964 21.9197C41.7964 21.9197 41.8228 21.9197 41.8228 21.9465C42.1396 21.9465 42.4565 21.9465 42.7733 21.9465C42.7733 21.9465 42.7997 21.9465 42.7997 21.9197C42.7997 20.8759 42.7997 19.8321 42.7997 18.7883C42.7997 18.6545 42.7733 18.5475 42.7205 18.4136C42.6941 18.2798 42.5885 18.0925 42.4565 18.0122Z" fill="white"/>
<path d="M51.196 17.9319C51.196 17.9319 51.196 17.9586 51.1696 17.9586C51.1696 19.2701 51.1696 20.5815 51.1696 21.893C51.1696 21.893 51.1696 21.893 51.196 21.9197C51.5128 21.9197 51.856 21.9197 52.1729 21.9197C52.1729 21.9197 52.1729 21.9197 52.1729 21.893C52.1729 20.5815 52.1729 19.2433 52.1729 17.9319V17.9051C51.856 17.9319 51.5392 17.9319 51.196 17.9319Z" fill="white"/>
<path d="M52.1729 16.6204C51.8561 16.6204 51.5392 16.6204 51.2488 16.6204C51.2224 16.6204 51.2224 16.6204 51.2224 16.6472C51.2224 16.9148 51.2224 17.1825 51.2224 17.4501C51.2224 17.4769 51.2224 17.4769 51.2224 17.5036C51.5392 17.5036 51.8825 17.5036 52.2257 17.5036V17.4769C52.2257 17.1825 52.2257 16.9148 52.2257 16.6204C52.1729 16.6204 52.1729 16.6204 52.1729 16.6204Z" fill="white"/>
<path d="M32.4496 13.9708C32.476 13.9976 32.608 14.0243 32.6608 14.0243C32.7928 14.0243 32.9513 14.0511 33.0833 14.0511C33.1625 14.0511 33.2153 14.0511 33.2945 14.0511C33.3737 14.0511 33.4265 14.0243 33.5057 14.0243C33.5585 13.9976 33.6114 13.9976 33.6642 13.9976C33.717 13.9708 33.7434 13.9708 33.7962 13.944C33.8226 13.9173 33.849 13.9173 33.8754 13.9173C33.9282 13.8905 33.981 13.8638 34.0338 13.837C34.0602 13.8102 34.1658 13.7032 34.1922 13.6764C34.245 13.5961 34.3242 13.5158 34.3506 13.4355C34.377 13.3552 34.4034 13.2749 34.4299 13.1947C34.4827 13.0341 34.5091 12.8467 34.5091 12.6594V12.6326C34.2186 12.6326 33.9282 12.6326 33.6378 12.6326L33.6114 12.6594C33.5849 12.7397 33.5849 12.82 33.5585 12.9002C33.5585 12.927 33.4529 13.2214 33.4265 13.2214C33.4001 13.2482 33.3737 13.2749 33.3737 13.2749C33.3209 13.3017 33.2681 13.3285 33.2153 13.3552C33.1361 13.3552 33.0833 13.3552 33.0041 13.3552C32.9777 13.3285 32.9513 13.3285 32.9249 13.3285C32.7928 13.2482 32.74 13.1144 32.6872 12.9805C32.6608 12.927 32.6608 12.9002 32.6608 12.8467C32.6344 12.7397 32.6344 12.6058 32.6344 12.4988C32.6344 12.365 32.6344 12.2579 32.6344 12.1241C33.2945 12.1241 33.9546 12.0973 34.6411 12.0973C34.6411 11.9367 34.6411 11.8029 34.6411 11.6423C34.6147 11.4818 34.6147 11.3212 34.6147 11.1874C34.5883 11.1071 34.5883 11.0268 34.5883 10.9732C34.5619 10.9197 34.5619 10.8662 34.5619 10.8127C34.5355 10.7859 34.5355 10.7324 34.5355 10.7056C34.5091 10.6788 34.5091 10.6253 34.4827 10.5985C34.4299 10.5183 34.377 10.4112 34.3242 10.3309C34.2978 10.3041 34.2714 10.2506 34.2186 10.2238C34.1658 10.1971 34.1394 10.1436 34.0866 10.1168C34.0602 10.09 33.9282 10.0097 33.9018 10.0097C33.8226 9.95621 33.717 9.92944 33.6114 9.90268C33.5321 9.87592 33.4529 9.87592 33.3737 9.87592C33.2417 9.87592 33.1361 9.87592 33.0041 9.87592C32.9249 9.87592 32.8457 9.90268 32.7664 9.90268C32.6872 9.92944 32.608 9.92944 32.5552 9.95621C32.5024 9.98297 32.4496 9.98297 32.4232 10.0097C32.3704 10.0365 32.3176 10.0633 32.2912 10.09C32.2384 10.1436 32.1592 10.1971 32.1064 10.2506C32.08 10.2774 32.0536 10.3041 32.0272 10.3309V10.3577C31.9479 10.4112 31.8951 10.5183 31.8687 10.5985C31.8423 10.6521 31.8423 10.7056 31.8159 10.7591C31.7895 10.7859 31.7631 10.9197 31.7367 11C31.7103 11.0535 31.7103 11.1606 31.6839 11.2141C31.6575 11.4282 31.6575 11.6423 31.6311 11.8565C31.6311 12.0438 31.6311 12.2044 31.6311 12.3917C31.6311 12.5256 31.6575 12.6594 31.6575 12.7932C31.6839 12.8735 31.6839 12.9805 31.7103 13.0608C31.7367 13.2214 31.8159 13.3552 31.8687 13.4891C31.9215 13.5426 31.9479 13.6229 32.0007 13.6496C32.1064 13.7835 32.3176 13.9173 32.4496 13.9708C32.4232 13.9708 32.4232 13.9708 32.4496 13.9708ZM32.8457 10.6521C32.9513 10.5985 33.0041 10.5985 33.1361 10.5985C33.2417 10.6253 33.2945 10.6521 33.3737 10.7056C33.4001 10.7324 33.4265 10.7591 33.4529 10.7859C33.4529 10.8127 33.4793 10.8394 33.4793 10.8394C33.4793 10.8662 33.5057 10.8929 33.5057 10.9197C33.5057 10.9732 33.5321 11.0268 33.5321 11.0535C33.5321 11.1874 33.5585 11.3479 33.5585 11.4818C33.5585 11.4818 33.5585 11.4818 33.5585 11.5085C33.2417 11.5085 32.8985 11.5085 32.5816 11.5085C32.5552 11.5085 32.5552 11.4818 32.5552 11.4818C32.5816 11.1874 32.5816 10.8394 32.8457 10.6521Z" fill="white"/>
<path d="M39.8426 13.5961C39.869 13.6764 39.8954 13.7567 39.8954 13.837C39.9218 13.8905 39.9482 13.9976 40.001 13.9976C40.3178 13.9976 40.6083 13.9976 40.9251 13.9976C40.9251 13.9708 40.9251 13.9708 40.9251 13.944C40.8723 13.8102 40.8195 13.6496 40.8195 13.4891C40.8195 12.6326 40.8195 11.7762 40.8195 10.8929C40.7931 10.8127 40.7931 10.7324 40.7931 10.6788C40.7667 10.6253 40.7667 10.5718 40.7667 10.545C40.7403 10.4915 40.7139 10.438 40.6875 10.3844C40.6347 10.3309 40.6083 10.2774 40.5819 10.2238C40.5027 10.1436 40.4234 10.09 40.3178 10.0365C40.265 10.0097 40.1858 9.98297 40.133 9.95621C39.8426 9.87592 39.5521 9.87592 39.2617 9.87592C39.1825 9.87592 39.0769 9.90268 38.9977 9.90268C38.9449 9.90268 38.8921 9.92944 38.8393 9.92944C38.6016 10.0097 38.3112 10.1436 38.2056 10.3844C38.1792 10.4112 38.1792 10.438 38.1528 10.438C38.0736 10.5985 38.0472 10.7591 38.0207 10.9465C38.0207 11.0268 38.0207 11.1071 38.0207 11.1874C38.3112 11.1874 38.628 11.1874 38.9185 11.1874C38.9185 11.1338 38.9185 11.0535 38.9185 11C38.9449 10.8929 38.9713 10.6788 39.1033 10.6521C39.2089 10.545 39.4201 10.5718 39.5785 10.5985C39.7106 10.6253 39.7634 10.7324 39.8162 10.8394C39.8162 10.8929 39.8426 10.9465 39.8426 11C39.8426 11.0535 39.8426 11.1071 39.8426 11.1606C39.8162 11.2141 39.8162 11.2409 39.8162 11.2944C39.7898 11.3212 39.7898 11.3479 39.7898 11.3479C39.737 11.4015 39.6842 11.4282 39.6314 11.4818C39.6049 11.4818 39.5785 11.5085 39.5521 11.5085C39.4465 11.5353 39.3145 11.562 39.2089 11.5888C39.1561 11.6156 39.1033 11.6156 39.0505 11.6423C38.8921 11.6691 38.7336 11.7226 38.5752 11.8029C38.4696 11.8297 38.364 11.91 38.2584 11.9635C38.2584 11.9635 38.2584 11.9635 38.2584 11.9903C38.1 12.0706 37.9679 12.3114 37.9415 12.472C37.8887 12.6326 37.8887 12.8467 37.8887 13.0341C37.8887 13.1144 37.9151 13.1947 37.9151 13.2749C37.9415 13.3285 37.9415 13.382 37.9679 13.4355C37.9679 13.4623 37.9943 13.4891 37.9943 13.5158C38.0472 13.6229 38.1 13.7567 38.2056 13.8102C38.2584 13.9173 38.4696 13.9976 38.5752 14.0243C38.628 14.0243 38.6808 14.0511 38.76 14.0511C38.8657 14.0511 38.9713 14.0511 39.0769 14.0511C39.1297 14.0243 39.2089 14.0243 39.2617 14.0243C39.3145 13.9976 39.3673 13.9976 39.4465 13.9708C39.4729 13.944 39.6314 13.8905 39.6314 13.8638C39.6842 13.8102 39.7898 13.6764 39.8426 13.5961ZM39.6578 13.2214C39.6049 13.2482 39.5521 13.3017 39.4729 13.3285C39.3673 13.3552 39.2881 13.382 39.1825 13.382C39.1033 13.382 39.0241 13.3285 38.9713 13.2749C38.9449 13.2482 38.9449 13.2214 38.9185 13.1947C38.8921 13.1679 38.8921 13.1411 38.8921 13.0876C38.8657 13.0341 38.8657 12.9538 38.8657 12.9002C38.8657 12.7397 38.8921 12.6326 38.9449 12.4988C38.9449 12.472 38.9713 12.472 38.9713 12.4453C38.9977 12.4185 39.0505 12.365 39.0769 12.3382C39.2089 12.2579 39.3673 12.2044 39.5257 12.1776C39.5521 12.1509 39.6049 12.1509 39.6314 12.1509C39.6842 12.1241 39.7634 12.0973 39.8162 12.0438C39.8426 12.0438 39.8426 12.0438 39.869 12.0438C39.869 12.3114 39.869 12.6058 39.869 12.8735C39.8426 12.927 39.8426 12.9805 39.8426 13.0341C39.7634 13.0876 39.7106 13.1679 39.6578 13.2214Z" fill="white"/>
<path d="M28.2251 13.9708C28.4892 13.9708 28.7532 13.9708 29.0172 13.9708C29.07 13.9173 29.0964 13.7299 29.0964 13.6496C29.1228 13.5693 29.1228 13.4891 29.1492 13.4088C29.2021 13.0876 29.2813 12.7664 29.3605 12.472C29.4133 12.2847 29.4397 12.0973 29.4925 11.91C29.4925 11.8029 29.5189 11.6959 29.5717 11.6156C29.5981 11.5085 29.5981 11.3747 29.6509 11.2944C29.6773 11.0268 29.7565 10.7859 29.8093 10.5183C29.8885 10.3041 29.8885 10.0365 29.9677 9.82239V9.84915C29.9677 11.2141 29.9677 12.5791 29.9942 13.9708C30.311 13.9708 30.6278 13.9708 30.9447 13.9708C30.9447 13.9708 30.9447 13.944 30.9711 13.944C30.9711 12.2044 30.9711 10.438 30.9711 8.6983C30.9711 8.67154 30.9447 8.67154 30.9447 8.64478C30.443 8.64478 29.9149 8.64478 29.4133 8.64478C29.3341 8.75183 29.3341 8.88565 29.3341 8.99271C29.3077 9.12653 29.2813 9.26035 29.2549 9.39417C29.2549 9.39417 29.2549 9.42093 29.2285 9.42093C29.1757 9.71534 29.1228 10.0097 29.07 10.2774C29.0436 10.3577 29.0172 10.4647 29.0172 10.545C28.9908 10.8127 28.9116 11.0535 28.8588 11.3212C28.8324 11.4015 28.8324 11.5085 28.806 11.5888C28.7796 11.6959 28.7796 11.8029 28.7532 11.91C28.7268 11.9635 28.7268 12.0438 28.7004 12.0973C28.7004 12.1776 28.674 12.2847 28.6212 12.365C28.5684 12.0973 28.4892 11.8029 28.4628 11.5353C28.4364 11.4282 28.41 11.2944 28.3836 11.1874C28.3571 11.1071 28.3572 11 28.3307 10.9197C28.3043 10.8127 28.3043 10.7056 28.2779 10.5985C28.2515 10.545 28.2515 10.438 28.2251 10.3844C28.1987 10.2774 28.1723 10.1703 28.1723 10.0633C28.1459 10.0097 28.1459 9.95621 28.1459 9.90268C28.1195 9.84915 28.1195 9.76886 28.0931 9.68857C28.0403 9.50122 28.0139 9.31387 27.9875 9.12653C27.9875 9.09976 27.9875 9.09976 27.9611 9.09976C27.9347 8.99271 27.9347 8.88565 27.9083 8.7786C27.8819 8.75183 27.8819 8.6983 27.8819 8.67154C27.3802 8.67154 26.8522 8.67154 26.3505 8.67154L26.3241 8.6983C26.3241 10.4647 26.3241 12.2044 26.3241 13.9708H26.3505C26.6673 13.9708 26.9578 13.9708 27.2746 13.9708C27.2746 12.6058 27.2746 11.2141 27.2746 9.84915C27.2746 9.82239 27.2746 9.82239 27.2746 9.79563C27.2746 9.82239 27.301 9.84915 27.301 9.90268C27.301 9.92945 27.3274 9.92945 27.3274 9.95621C27.3538 10.1703 27.433 10.3577 27.4594 10.5718C27.5122 10.6788 27.4858 10.8127 27.5386 10.9197C27.6179 11.2944 27.7235 11.6691 27.7763 12.0706C27.8027 12.0973 27.8027 12.1776 27.8027 12.2311C27.8291 12.2847 27.8291 12.365 27.8555 12.4185C27.8819 12.5791 27.9083 12.7129 27.9347 12.8735C27.9611 12.927 27.9611 13.0073 27.9875 13.0608C28.0139 13.3017 28.0931 13.5426 28.1459 13.7567C28.1459 13.8102 28.1723 13.8905 28.2251 13.9708C28.1987 13.9708 28.1987 13.9708 28.2251 13.9708Z" fill="white"/>
<path d="M36.1989 13.944C36.1989 13.0876 36.1989 12.2579 36.1989 11.4014C36.1989 11.3479 36.2253 11.3212 36.2253 11.2676C36.2517 11.2141 36.2781 11.1873 36.3045 11.1338C36.3309 11.107 36.3573 11.0803 36.3837 11.0535C36.4365 10.9732 36.5685 10.9465 36.6477 10.8929C36.7005 10.8662 36.7798 10.8662 36.8326 10.8662C36.9646 10.8662 37.0966 10.8662 37.2286 10.8662C37.2286 10.8662 37.2286 10.8394 37.255 10.8394C37.255 10.5182 37.255 10.1971 37.255 9.90266C37.123 9.84914 36.9118 9.90266 36.7798 9.92943C36.7534 9.92943 36.727 9.95619 36.7005 9.95619C36.6741 9.98296 36.6477 9.98296 36.6213 10.0097C36.5685 10.0365 36.5157 10.0632 36.4893 10.1168C36.3837 10.2238 36.2781 10.3577 36.1989 10.4915C36.1989 10.4647 36.1725 10.4647 36.1725 10.4379C36.1725 10.2774 36.1725 10.1435 36.1725 10.0097C36.1725 10.0097 36.1725 10.0097 36.1461 10.0097C35.8292 10.0097 35.5124 10.0097 35.1956 10.0097C35.1956 11.3212 35.1956 12.6594 35.1956 13.9708C35.1956 13.9708 35.1956 13.9976 35.222 13.9976C35.5388 13.9976 35.882 13.9976 36.1989 13.9976C36.1989 13.9708 36.1989 13.944 36.1989 13.944Z" fill="white"/>
<path d="M44.5424 13.9708C44.5424 12.927 44.5424 11.91 44.5424 10.8662C44.5424 10.8127 44.516 10.7591 44.516 10.6788C44.4895 10.6253 44.4895 10.5718 44.4895 10.5183C44.4631 10.4915 44.4631 10.438 44.4367 10.4112C44.4103 10.3309 44.3575 10.2239 44.2783 10.1703C44.2519 10.1703 44.2519 10.1436 44.2519 10.1436C44.1463 10.0633 44.0143 10.0097 43.8823 9.95621C43.8031 9.92945 43.7503 9.92945 43.671 9.92945C43.5654 9.92945 43.4598 9.92945 43.3542 9.92945C43.3014 9.92945 43.1694 9.92945 43.143 9.98297C42.9318 10.0365 42.7205 10.1971 42.5885 10.3844C42.5621 10.3844 42.5621 10.3844 42.5357 10.3577C42.5357 9.82239 42.5357 9.28711 42.5357 8.75183C42.5357 8.72507 42.5093 8.72507 42.5093 8.6983C42.1925 8.6983 41.8756 8.6983 41.5324 8.6983C41.506 8.6983 41.506 8.72507 41.506 8.75183C41.506 10.4915 41.506 12.2311 41.506 13.9976C41.5324 13.9976 41.5324 14.0243 41.5588 14.0243C41.8756 14.0243 42.1925 14.0243 42.5357 14.0243C42.5357 13.9976 42.5621 13.9708 42.5621 13.9708C42.5621 13.0876 42.5621 12.2311 42.5621 11.3479C42.5621 11.2409 42.5885 11.1606 42.6149 11.0535C42.6413 11.0268 42.6941 10.893 42.7205 10.893C42.7733 10.8127 42.8789 10.7859 42.9582 10.7591C43.143 10.7324 43.3278 10.7591 43.4334 10.9197C43.4598 10.9732 43.4862 11.0535 43.5126 11.1338C43.5126 12.1241 43.5126 13.0876 43.539 14.0779C43.8823 13.9708 44.1991 13.9708 44.5424 13.9708Z" fill="white"/>
<path d="M43.3542 3.98782C43.3806 4.20194 43.407 4.41605 43.4862 4.63016C43.5126 4.71045 43.5654 4.79074 43.5918 4.87104C43.5918 4.87104 43.6974 5.00486 43.6974 5.03162C43.6974 5.03162 43.6974 5.03162 43.7238 5.03162C43.803 5.16544 43.9879 5.21897 44.0935 5.29926C44.1463 5.32602 44.1991 5.32602 44.2519 5.35279C44.3311 5.35279 44.4103 5.37955 44.4895 5.37955C44.5423 5.37955 44.5687 5.37955 44.6215 5.37955C44.6743 5.35279 44.7535 5.35279 44.8064 5.35279C44.8328 5.32602 44.8592 5.32602 44.912 5.32602C44.9648 5.29926 45.0176 5.2725 45.0704 5.24573C45.0968 5.21897 45.0968 5.21897 45.1232 5.1922C45.176 5.16544 45.2024 5.13868 45.2552 5.08515C45.308 5.03162 45.3608 4.97809 45.3872 4.92456H45.4136C45.4136 5.1922 45.44 5.45984 45.3872 5.70072C45.3608 5.75425 45.3344 5.83454 45.308 5.8613C45.2816 5.96836 45.176 6.02189 45.0968 6.04865C44.9648 6.07542 44.8064 6.07542 44.6743 6.04865C44.6479 6.02189 44.6215 6.02189 44.6215 6.02189C44.5687 5.99512 44.5423 5.96836 44.5159 5.9416C44.4895 5.91483 44.4895 5.91483 44.4631 5.88807C44.4367 5.8613 44.4367 5.83454 44.4367 5.80778C44.4367 5.78101 44.4103 5.67396 44.3839 5.64719C44.0671 5.64719 43.7502 5.64719 43.4334 5.64719C43.4334 5.72748 43.4334 5.80778 43.4598 5.88807C43.4862 5.9416 43.4862 6.02189 43.5126 6.07542C43.5918 6.236 43.6974 6.39658 43.8558 6.50364C43.8822 6.50364 43.9086 6.5304 43.9086 6.5304C44.0935 6.63746 44.3047 6.69099 44.5159 6.69099C44.5687 6.71775 44.6479 6.69099 44.7007 6.71775C44.8064 6.71775 44.912 6.71775 44.9912 6.69099C45.0968 6.66422 45.2288 6.69099 45.308 6.63746C45.3608 6.63746 45.4136 6.6107 45.4664 6.6107C45.6249 6.58393 45.7833 6.47688 45.8889 6.42335C45.9153 6.36982 45.9945 6.31629 46.0473 6.26276C46.0737 6.20924 46.1001 6.18247 46.1529 6.15571C46.1793 6.07542 46.2321 6.02189 46.2585 5.9416C46.2849 5.83454 46.3113 5.75425 46.3377 5.64719C46.3377 5.5669 46.3642 5.48661 46.3642 5.40632C46.3642 4.06812 46.3642 2.72992 46.3642 1.39172C46.3642 1.39172 46.3641 1.36495 46.3377 1.36495C46.3113 1.36495 46.3113 1.36495 46.2849 1.36495C45.9945 1.36495 45.7041 1.36495 45.44 1.36495C45.4136 1.39172 45.4136 1.39172 45.3872 1.41848C45.3872 1.52554 45.3872 1.63259 45.3872 1.73965L45.3608 1.76641C45.308 1.71288 45.308 1.60583 45.2288 1.57907C45.176 1.49877 45.0704 1.39172 44.9648 1.36495C44.912 1.31143 44.8064 1.31143 44.7271 1.28466C44.5951 1.2579 44.4367 1.28466 44.3047 1.28466C44.2519 1.31143 44.1991 1.31143 44.1199 1.33819C44.0407 1.36495 43.8822 1.41848 43.8294 1.49877C43.7766 1.49877 43.7238 1.60583 43.6974 1.60583C43.6446 1.68612 43.5918 1.73965 43.539 1.81994C43.5126 1.90023 43.4862 1.95376 43.4598 2.03405C43.4334 2.06082 43.4334 2.08758 43.4334 2.14111C43.3806 2.24816 43.3542 2.40875 43.3278 2.5158C43.3278 2.67639 43.3014 2.86374 43.275 3.05108C43.275 3.29196 43.275 3.53284 43.275 3.74695C43.3278 3.88077 43.3278 3.9343 43.3542 3.98782ZM44.3311 3.10461C44.3311 3.02432 44.3311 2.91726 44.3575 2.86374C44.3575 2.64962 44.4103 2.46228 44.5159 2.27493C44.5423 2.24816 44.5687 2.2214 44.5951 2.19464C44.6215 2.16787 44.6479 2.16787 44.6743 2.14111C44.8064 2.11434 44.8856 2.11434 45.0176 2.14111C45.044 2.16787 45.0968 2.19464 45.1496 2.2214C45.176 2.24816 45.2024 2.30169 45.2288 2.32846C45.2288 2.35522 45.2552 2.38198 45.2552 2.40875C45.2552 2.43551 45.2816 2.48904 45.2816 2.5158C45.2816 2.56933 45.308 2.62286 45.308 2.67639C45.3344 2.83697 45.3344 2.97079 45.3608 3.13138C45.3608 3.31872 45.3608 3.53284 45.3608 3.72018C45.3344 3.854 45.3344 3.96106 45.308 4.09488C45.308 4.12164 45.2816 4.12164 45.2816 4.14841C45.2816 4.20194 45.2552 4.25546 45.2288 4.30899C45.176 4.36252 45.1496 4.41605 45.0968 4.49634C45.0704 4.5231 45.044 4.54987 44.9912 4.57663C44.9384 4.57663 44.912 4.6034 44.8592 4.6034C44.8064 4.6034 44.7535 4.6034 44.7007 4.6034C44.6215 4.57663 44.5423 4.54987 44.5159 4.49634C44.4631 4.46958 44.3839 4.30899 44.3575 4.25546C44.3311 4.20194 44.3311 4.14841 44.3047 4.09488C44.2783 3.98782 44.2783 3.90753 44.2783 3.80048C44.3311 3.58636 44.3311 3.34549 44.3311 3.10461Z" fill="white"/>
<path d="M32.1592 5.16545C32.1856 5.13869 32.212 5.08516 32.2384 5.0584C32.2648 5.08516 32.2912 5.24574 32.2912 5.27251C32.3176 5.32604 32.3176 5.40633 32.3704 5.45986C32.6873 5.45986 33.0041 5.45986 33.3209 5.45986C33.3209 5.45986 33.3209 5.43309 33.3473 5.43309C33.2945 5.29927 33.2417 5.13869 33.2417 4.9781C33.2417 4.12166 33.2417 3.26521 33.2417 2.382C33.2153 2.30171 33.2153 2.22141 33.2153 2.14112C33.1889 2.11436 33.1889 2.06083 33.1889 2.03407C33.1625 1.95377 33.1097 1.81995 33.0569 1.76643C33.0305 1.7129 32.9777 1.65937 32.9513 1.63261C32.8985 1.60584 32.8457 1.55231 32.7929 1.55231C32.7401 1.49879 32.6609 1.49879 32.608 1.47202C32.2648 1.36497 31.8688 1.36497 31.5255 1.39173C31.4727 1.39173 31.4199 1.41849 31.3407 1.41849C31.2615 1.44526 31.0767 1.47202 30.9974 1.55231C30.9182 1.57908 30.8654 1.63261 30.7862 1.68613C30.7598 1.7129 30.7334 1.73966 30.707 1.76643C30.6542 1.81995 30.6014 1.90025 30.575 1.98054C30.5486 2.03407 30.5222 2.11436 30.4958 2.19465C30.4694 2.24818 30.4694 2.30171 30.4694 2.35523C30.4694 2.43553 30.4166 2.72993 30.4694 2.72993C30.7598 2.72993 31.0503 2.72993 31.3407 2.72993C31.3407 2.64964 31.3407 2.59611 31.3671 2.51582C31.3671 2.46229 31.3935 2.43553 31.3935 2.382C31.4199 2.35523 31.4199 2.32847 31.4463 2.30171C31.4991 2.19465 31.6311 2.14112 31.7367 2.11436C31.8159 2.11436 31.8952 2.11436 31.9744 2.11436C32.08 2.14112 32.1328 2.16789 32.212 2.24818C32.2384 2.27494 32.2648 2.32847 32.2648 2.35523C32.2648 2.40876 32.2912 2.46229 32.2912 2.51582C32.2912 2.56935 32.2912 2.62287 32.2912 2.6764C32.2648 2.72993 32.2648 2.75669 32.2648 2.81022C32.2384 2.89051 32.1856 2.94404 32.1064 2.97081C32.0272 3.02433 31.9216 3.0511 31.8424 3.07786C31.8159 3.07786 31.8159 3.07786 31.8159 3.10463C31.6047 3.15815 31.3671 3.21168 31.1559 3.29197C31.1031 3.29197 31.0239 3.3455 30.971 3.37227C30.7334 3.45256 30.5222 3.66667 30.443 3.90755C30.3902 4.0146 30.3638 4.20195 30.3638 4.33577C30.3638 4.41606 30.3638 4.52312 30.3638 4.63017C30.3902 4.76399 30.3902 4.89781 30.443 5.00487C30.5486 5.3528 30.8654 5.59368 31.2087 5.59368C31.3407 5.59368 31.4463 5.59368 31.5783 5.59368C31.6575 5.56691 31.7367 5.56691 31.8424 5.54015C31.9216 5.40633 32.08 5.29927 32.1592 5.16545ZM31.4199 4.76399C31.2615 4.57664 31.2351 4.28224 31.3143 4.04137C31.3407 3.98784 31.3671 3.93431 31.3935 3.88078C31.4199 3.85402 31.4463 3.82725 31.4727 3.80049C31.5255 3.77373 31.5783 3.7202 31.6311 3.7202C31.7103 3.69343 31.7895 3.66667 31.8952 3.63991C31.8952 3.63991 31.9216 3.63991 31.9216 3.61314C31.9744 3.61314 32.1328 3.55961 32.1856 3.50609C32.212 3.47932 32.2384 3.47932 32.2384 3.47932H32.2648C32.2648 3.74696 32.2648 4.0146 32.2648 4.30901C32.2384 4.3893 32.2384 4.46959 32.1856 4.54988C32.1592 4.60341 32.1064 4.63017 32.08 4.6837C32.0272 4.71046 31.9744 4.76399 31.9216 4.79076C31.8952 4.79076 31.8688 4.81752 31.8159 4.81752C31.7367 4.81752 31.6575 4.84429 31.5783 4.84429C31.5519 4.81752 31.4727 4.81752 31.4199 4.76399Z" fill="white"/>
<path d="M37.7567 2.72992C37.7303 2.75669 37.7039 2.81022 37.7039 2.83698C37.6775 2.86374 37.651 2.89051 37.5982 2.91727C37.5454 2.94404 37.4926 2.9708 37.4398 2.99756C37.1494 3.05109 36.859 3.15815 36.5685 3.23844C36.5685 3.23844 36.5421 3.23844 36.5421 3.2652C36.4629 3.29197 36.3837 3.31873 36.3309 3.3455C36.2253 3.39902 36.0933 3.50608 36.0405 3.61314C36.0405 3.61314 36.014 3.61314 36.014 3.6399C35.8292 3.90754 35.8292 4.22871 35.8292 4.52311C35.8292 4.6034 35.8556 4.68369 35.8556 4.76399C35.8556 4.81751 35.882 4.84428 35.882 4.89781C35.9348 5.03163 35.9876 5.16545 36.0933 5.2725C36.1197 5.32603 36.1725 5.35279 36.2253 5.37956C36.2517 5.40632 36.2781 5.40632 36.3309 5.43309C36.4365 5.48661 36.5685 5.51338 36.7005 5.51338C36.8325 5.51338 36.9382 5.51338 37.0702 5.51338C37.1758 5.48661 37.2814 5.45985 37.387 5.43309C37.4398 5.40632 37.4926 5.35279 37.5718 5.32603C37.5718 5.29927 37.651 5.24574 37.6775 5.21897C37.7303 5.16545 37.7831 5.08515 37.8095 5.03163C37.8095 5.05839 37.8359 5.11192 37.8359 5.13868C37.8623 5.21897 37.8623 5.35279 37.9415 5.40632C38.2583 5.40632 38.5752 5.40632 38.892 5.40632C38.892 5.37956 38.892 5.37956 38.892 5.37956C38.8656 5.32603 38.8392 5.2725 38.8392 5.19221C38.8128 5.13868 38.8128 5.08515 38.8128 5.03163C38.8128 4.95133 38.8128 4.87104 38.8128 4.79075C38.8128 3.96107 38.8128 3.15815 38.8128 2.32846C38.7864 2.24817 38.7864 2.16788 38.7864 2.08759C38.7864 2.03406 38.76 2.0073 38.76 1.95377C38.7072 1.84671 38.6544 1.73966 38.5752 1.65936C38.5752 1.6326 38.5488 1.6326 38.5488 1.60584C38.4167 1.49878 38.2583 1.39172 38.0999 1.36496C38.0207 1.3382 37.9151 1.31143 37.8359 1.31143C37.5982 1.31143 37.3606 1.31143 37.1494 1.31143C37.0702 1.3382 36.991 1.3382 36.9118 1.36496C36.859 1.39172 36.7797 1.39172 36.7269 1.41849C36.5685 1.44525 36.4629 1.55231 36.3309 1.65936C36.3045 1.71289 36.2781 1.73966 36.2253 1.79318C36.1989 1.79318 36.1989 1.81995 36.1989 1.84671C36.1989 1.84671 36.1989 1.84671 36.1725 1.84671C36.1461 1.87348 36.1461 1.90024 36.1461 1.927C36.1197 2.03406 36.0669 2.14112 36.0405 2.24817C36.014 2.38199 36.014 2.51581 36.014 2.62287C36.3045 2.62287 36.5949 2.62287 36.8854 2.62287C36.9118 2.5961 36.9118 2.40876 36.9118 2.38199C36.9118 2.35523 36.9382 2.3017 36.9382 2.27494C36.9646 2.24817 36.991 2.19464 36.991 2.16788C37.0702 2.08759 37.123 2.06082 37.2286 2.03406C37.3078 2.03406 37.4134 2.03406 37.4926 2.03406C37.5982 2.06082 37.6775 2.11435 37.7303 2.19464C37.7303 2.22141 37.7567 2.24817 37.7567 2.27494C37.7567 2.32846 37.7831 2.38199 37.7831 2.46228C37.7831 2.51581 37.7831 2.56934 37.7831 2.62287C37.7831 2.64963 37.7567 2.70316 37.7567 2.72992ZM37.7567 4.44282C37.7303 4.49635 37.7039 4.52311 37.6775 4.57664C37.651 4.6034 37.6511 4.6034 37.6511 4.63017C37.6511 4.63017 37.6511 4.63017 37.6246 4.63017C37.5718 4.71046 37.4398 4.76399 37.3606 4.81751C37.2814 4.81751 37.2022 4.84428 37.123 4.84428C37.0966 4.84428 37.0702 4.81751 37.0174 4.81751C36.9118 4.76399 36.8325 4.71046 36.8061 4.57664C36.7533 4.46958 36.7533 4.309 36.7533 4.17518C36.7533 4.12165 36.7797 4.06812 36.7797 4.0146C36.7797 3.98783 36.8061 3.96107 36.8061 3.9343C36.859 3.85401 36.9118 3.80048 36.991 3.74696C37.0702 3.72019 37.1494 3.66666 37.2286 3.6399C37.3078 3.61314 37.387 3.58637 37.4662 3.58637C37.519 3.55961 37.651 3.47932 37.7303 3.47932C37.7303 3.74696 37.7303 4.0146 37.7303 4.28223C37.7831 4.33576 37.7567 4.38929 37.7567 4.44282Z" fill="white"/>
<path d="M26.2977 5.45985C26.6409 5.45985 26.9577 5.45985 27.301 5.45985C27.301 5.45985 27.301 5.45985 27.3274 5.45985C27.3274 4.76399 27.3274 4.09489 27.3538 3.39903V3.37226C27.6442 3.37226 27.9347 3.3455 28.1987 3.3455C28.2779 3.31874 28.3307 3.31873 28.4099 3.31873C28.4099 3.31873 28.4363 3.31874 28.4363 3.29197C28.5947 3.26521 28.7268 3.21168 28.8588 3.13139C28.9116 3.10462 28.938 3.07786 28.9908 3.0511C28.9908 3.0511 28.9908 3.0511 28.9908 3.02433C29.0436 2.9708 29.0964 2.94404 29.1492 2.89051C29.2284 2.78346 29.3076 2.70316 29.334 2.59611C29.3604 2.56934 29.3868 2.46229 29.4132 2.43552C29.4396 2.35523 29.466 2.24818 29.4924 2.16788C29.4924 2.06083 29.5188 1.98054 29.5188 1.87348C29.5453 1.76642 29.5188 1.55231 29.5188 1.44526C29.4924 1.3382 29.466 1.20438 29.4396 1.09732C29.4396 1.07056 29.4132 1.07056 29.4132 1.07056C29.3868 0.990267 29.3604 0.936739 29.334 0.856447C29.2812 0.776155 29.2284 0.695863 29.1756 0.642335C29.1492 0.642335 29.1492 0.615571 29.1492 0.615571C29.1492 0.615571 28.938 0.454987 28.938 0.428223C28.8324 0.374695 28.7003 0.294403 28.5683 0.267639C28.5419 0.240875 28.4363 0.240875 28.3835 0.214111V0.187347C27.6706 0.187347 26.9313 0.187347 26.2184 0.187347C26.2713 1.90024 26.2713 3.66667 26.2977 5.45985C26.2977 5.43309 26.2977 5.43309 26.2977 5.45985ZM27.3538 0.963503C27.5914 0.936739 27.8026 0.936739 28.0139 0.963503C28.0403 0.963503 28.0931 0.990267 28.1459 0.990267C28.1723 0.990267 28.1987 1.01703 28.2251 1.01703C28.2515 1.0438 28.3043 1.07056 28.3307 1.09732C28.3571 1.12409 28.3835 1.17762 28.4099 1.20438C28.4363 1.23114 28.4363 1.28467 28.4627 1.31144C28.5419 1.47202 28.5155 1.65937 28.5155 1.81995C28.4891 1.87348 28.4891 1.95377 28.4891 2.03406C28.4627 2.06083 28.4627 2.11436 28.4363 2.14112C28.4099 2.19465 28.3571 2.24818 28.3307 2.3017C28.2779 2.35523 28.1987 2.40876 28.1195 2.43552C28.0667 2.46229 28.0139 2.46229 27.9611 2.48905C27.7498 2.48905 27.565 2.51582 27.3538 2.51582L27.3274 2.48905C27.3538 2.0073 27.3538 1.47202 27.3538 0.963503Z" fill="white"/>
<path d="M34.0866 5.43309C34.0866 5.43309 34.113 5.43309 34.113 5.45985C34.4299 5.45985 34.7467 5.45985 35.0636 5.45985H35.09C35.09 3.69343 35.09 1.92701 35.09 0.160583C34.7467 0.160583 34.4035 0.160583 34.0602 0.160583C34.0866 1.90024 34.0866 3.66667 34.0866 5.43309Z" fill="white"/>
<path d="M40.6083 5.43309C40.6347 4.52311 40.6347 3.6399 40.6347 2.72993C40.6347 2.64963 40.6611 2.56934 40.6611 2.48905C40.6875 2.38199 40.7667 2.24817 40.8459 2.22141C40.8723 2.19465 40.8987 2.19465 40.9515 2.16788C41.1363 2.14112 41.3212 2.11435 41.4796 2.24817C41.5324 2.3017 41.5588 2.35523 41.5588 2.43552C41.5588 2.48905 41.5852 2.56934 41.5852 2.62287C41.5852 3.55961 41.5852 4.49635 41.5852 5.45985C41.5852 5.45985 41.5852 5.45985 41.6116 5.45985C41.9284 5.45985 42.2717 5.45985 42.5885 5.45985C42.5885 4.38929 42.5885 3.31873 42.5885 2.24817C42.5621 2.16788 42.5621 2.08759 42.5357 2.0073C42.5093 1.98053 42.5093 1.92701 42.5093 1.90024C42.4829 1.87348 42.4829 1.84671 42.4829 1.81995C42.4565 1.76642 42.4037 1.71289 42.3773 1.65937C42.3245 1.60584 42.2453 1.52555 42.1661 1.49878C42.1133 1.44525 42.034 1.44525 41.9812 1.41849C41.77 1.36496 41.5324 1.36496 41.3212 1.39173C41.2419 1.41849 41.1363 1.44525 41.0571 1.49878C40.8987 1.52555 40.7667 1.68613 40.6875 1.79319C40.6611 1.84671 40.6347 1.87348 40.6083 1.92701C40.5819 1.90024 40.5819 1.55231 40.5819 1.49878V1.47202H40.5555C40.2386 1.47202 39.9482 1.47202 39.6313 1.47202V1.49878C39.6313 2.81022 39.6313 4.14842 39.6313 5.45985C39.6313 5.45985 39.6313 5.45985 39.6313 5.48662C39.9482 5.45985 40.265 5.43309 40.6083 5.43309Z" fill="white"/>
<path d="M80.4772 0.0535278H79.1307V6.3163H79.7908V3.85401H80.398C80.8997 3.85401 81.2693 3.72019 81.5334 3.45255C81.771 3.18491 81.903 2.81022 81.903 2.3017V1.6326C81.903 1.15085 81.7974 0.749392 81.5598 0.481752C81.3221 0.187348 80.9525 0.0535278 80.4772 0.0535278ZM80.3716 3.21168H79.7644V0.6691H80.4772C80.7413 0.6691 80.9261 0.749392 81.0581 0.883211C81.1637 1.0438 81.2429 1.28467 81.2429 1.60584V2.3017C81.2429 2.62287 81.1901 2.86375 81.0581 2.99757C80.8997 3.15815 80.6885 3.21168 80.3716 3.21168Z" fill="white"/>
<path d="M85.9691 5.45985V4.52311C85.9691 3.82725 85.6787 3.47932 85.3618 3.29197C85.5203 3.21168 85.6523 3.10462 85.7315 2.9708C85.8899 2.75669 85.9691 2.43552 85.9691 2.06083V1.52555C85.9691 0.562044 85.4939 0.0267639 84.5697 0.0267639H83.1968V6.28954H83.8569V3.61314H84.3321C84.6754 3.61314 84.913 3.66667 85.0714 3.80049C85.2298 3.93431 85.309 4.14842 85.309 4.49635V5.43309C85.309 5.62044 85.309 5.75426 85.3354 5.88808C85.3618 6.0219 85.3882 6.12895 85.4411 6.23601L85.4675 6.28954H86.1803L86.0483 6.07543C86.0219 5.96837 85.9691 5.75426 85.9691 5.45985ZM83.8569 0.6691H84.5697C84.8338 0.6691 85.0186 0.749392 85.1506 0.883212C85.2826 1.0438 85.3354 1.25791 85.3354 1.55231V2.14112C85.3354 2.48905 85.2562 2.70316 85.1242 2.81022C84.9658 2.94404 84.7282 2.99757 84.3849 2.99757H83.8833V0.6691H83.8569Z" fill="white"/>
<path d="M88.8735 0C88.3982 0 88.055 0.160584 87.7909 0.454988C87.5533 0.749392 87.4477 1.15085 87.4477 1.6326V4.6837C87.4477 5.16545 87.5797 5.56691 87.7909 5.86131C88.0286 6.18248 88.3982 6.3163 88.8735 6.3163C89.3487 6.3163 89.7184 6.15572 89.956 5.86131C90.1936 5.56691 90.2993 5.16545 90.2993 4.6837V1.65937C90.2993 1.17762 90.1672 0.776156 89.956 0.481752C89.7184 0.160584 89.3487 0 88.8735 0ZM88.8735 5.72749C88.6094 5.72749 88.4246 5.6472 88.2926 5.48662C88.1606 5.29927 88.1078 5.05839 88.1078 4.73723V1.6326C88.1078 1.31144 88.1606 1.07056 88.2926 0.883212C88.4246 0.722628 88.6094 0.642336 88.8735 0.642336C89.1375 0.642336 89.3487 0.722628 89.4543 0.883212C89.5864 1.07056 89.6392 1.31144 89.6392 1.6326V4.73723C89.6392 5.05839 89.56 5.29927 89.4543 5.48662C89.3487 5.6472 89.1375 5.72749 88.8735 5.72749Z" fill="white"/>
<path d="M93.3356 5.08516L92.2531 0.0535278H91.5666L92.9396 6.3163H93.7317L95.0519 0.0535278H94.4182L93.3356 5.08516Z" fill="white"/>
<path d="M97.0057 0.0535278H96.3456V6.3163H97.0057V0.0535278Z" fill="white"/>
<path d="M100.702 4.46959L99.1708 0.0535278H98.4315V6.3163H99.0387V1.6326L100.676 6.3163H101.336V0.0535278H100.702V4.46959Z" fill="white"/>
<path d="M104.927 3.42579C104.768 3.29197 104.583 3.13139 104.319 2.94404C104.082 2.78345 103.923 2.62287 103.791 2.51581C103.659 2.40876 103.58 2.27494 103.474 2.11436C103.395 1.95377 103.342 1.79319 103.342 1.60584C103.342 1.31144 103.395 1.0438 103.527 0.883212C103.633 0.722628 103.818 0.642336 104.082 0.642336C104.346 0.642336 104.531 0.722628 104.636 0.883212C104.768 1.07056 104.821 1.31144 104.821 1.60584V1.90024H105.455V1.6326C105.455 1.15085 105.349 0.749392 105.111 0.454988C104.874 0.160584 104.531 0 104.055 0C103.607 0 103.237 0.160584 102.999 0.454988C102.762 0.749392 102.656 1.12409 102.656 1.6326C102.656 1.92701 102.709 2.16788 102.814 2.40876C102.92 2.62287 103.052 2.81022 103.237 2.9708C103.395 3.10462 103.606 3.26521 103.844 3.45255C104.055 3.61314 104.24 3.74696 104.372 3.88078C104.504 3.98783 104.61 4.12165 104.689 4.28224C104.768 4.41606 104.795 4.60341 104.795 4.79075C104.795 5.11192 104.742 5.3528 104.61 5.51338C104.504 5.67397 104.293 5.75426 104.029 5.75426C103.765 5.75426 103.58 5.67397 103.448 5.51338C103.316 5.3528 103.263 5.08516 103.263 4.79075V4.28224H102.63V4.73723C102.63 5.21898 102.735 5.62044 102.973 5.91484C103.21 6.20925 103.554 6.36983 104.029 6.36983C104.504 6.36983 104.874 6.20925 105.085 5.91484C105.323 5.62044 105.428 5.21898 105.428 4.73723C105.428 4.44282 105.376 4.20195 105.27 3.98783C105.217 3.74696 105.085 3.55961 104.927 3.42579Z" fill="white"/>
<path d="M107.514 0.0535278H106.854V6.3163H107.514V0.0535278Z" fill="white"/>
<path d="M78.9194 11.2944H81.5334C83.1968 11.2944 83.9889 12.2311 83.9889 13.944V19.3504C83.9889 21.0633 83.1704 22 81.5334 22H78.9194V11.2944ZM80.5828 12.82V20.4477H81.507C82.035 20.4477 82.3519 20.18 82.3519 19.4039V13.8637C82.3519 13.1144 82.035 12.82 81.507 12.82H80.5828Z" fill="white"/>
<path d="M87.21 17.7178L86.7084 18.6813V21.9732H85.045V11.2944H86.7084V15.9246H86.7348L88.8735 11.2944H90.5369L88.2398 16.0584L90.5369 21.9732H88.8471L87.21 17.7178Z" fill="white"/>
<path d="M91.2762 11.2944H92.9396V21.9732H91.2762V11.2944Z" fill="white"/>
<path d="M96.0288 20.4477C96.2136 20.4745 96.4248 20.4745 96.6096 20.4745C97.1377 20.4745 97.5602 20.2871 97.5602 19.4574V11.2944H99.2236V19.3236C99.2236 21.4647 98.0882 22 96.8473 22C96.5568 22 96.3192 22 96.0552 21.9732V20.4477H96.0288Z" fill="white"/>
<path d="M105.692 21.9732H104.029L103.739 20.0462H101.705L101.415 21.9732H99.8836L101.573 11.2944H104.003L105.692 21.9732ZM101.917 18.601H103.501L102.709 13.1946H102.682L101.917 18.601Z" fill="white"/>
<path d="M108.623 17.7178L108.121 18.6813V21.9732H106.458V11.2944H108.121V15.9246H108.148L110.287 11.2944H111.95L109.626 16.0584L111.924 21.9732H110.234L108.623 17.7178Z" fill="white"/>
<path d="M118.023 21.9732H116.359L116.069 20.0462H114.036L113.745 21.9732H112.214L113.904 11.2944H116.333L118.023 21.9732ZM114.247 18.601H115.831L115.039 13.1946H115.013L114.247 18.601Z" fill="white"/>
<path d="M122.274 21.9732C122.194 21.7056 122.115 21.5182 122.115 20.6618V19.0024C122.115 18.0122 121.772 17.6375 121.033 17.6375H120.452V21.9732H118.788V11.2944H121.297C123.013 11.2944 123.752 12.0973 123.752 13.7567V14.5864C123.752 15.6837 123.409 16.3796 122.67 16.7275V16.7543C123.488 17.1022 123.779 17.9051 123.779 19.0024V20.6618C123.779 21.1703 123.805 21.5718 123.963 21.9465H122.274V21.9732ZM120.452 12.82V16.1119H121.112C121.719 16.1119 122.115 15.8443 122.115 14.9878V13.9173C122.115 13.1679 121.851 12.82 121.27 12.82H120.452Z" fill="white"/>
<path d="M124.359 11.2944H129.482V12.82H127.739V21.9732H126.076V12.82H124.359V11.2944Z" fill="white"/>
<path d="M135 21.9732H133.337L133.046 20.0462H131.013L130.723 21.9732H129.191L130.881 11.2944H133.31L135 21.9732ZM131.224 18.601H132.809L132.016 13.1946H131.99L131.224 18.601Z" fill="white"/>
</g>
<defs>
<clipPath id="clip0">
<rect width="135" height="22" fill="white"/>
</clipPath>
</defs>
</svg>
