<svg width="161" height="26" viewBox="0 0 161 26" fill="none" xmlns="http://www.w3.org/2000/svg">
<g clip-path="url(#clip0)">
<path d="M80.6732 0.221405H80.3268V25.7786H80.6732V0.221405Z" fill="#E1E4E6"/>
<path d="M26.4187 10.7543L26.3873 10.4696L26.3243 10.1849L26.2613 9.90024L26.1983 9.61556L26.1039 9.33089L26.0094 9.07785L25.8834 8.82481L25.7575 8.57177L25.6315 8.31873L25.4741 8.09732L25.3166 7.8759L25.1592 7.65449L24.9703 7.43308L24.7813 7.2433L24.5609 7.02189L24.3405 6.83211L24.1201 6.67396L23.8997 6.51581L23.6792 6.35766L23.4273 6.23114L23.1754 6.10461L22.9235 5.97809L22.6716 5.8832L22.3567 5.78831L22.0733 5.69342L21.7899 5.63016L21.5066 5.5669L21.2232 5.53527L20.9398 5.50364H20.6564H20.5619H20.4674H20.4045H20.3415H20.2785H20.2155H20.1526H20.0896H20.0266H19.9636H19.9006H19.8377H19.7747H19.7117H19.6487H19.5858L19.5228 5.53527L19.2394 5.69342H19.1764L19.1134 5.72505L19.0505 5.75668V5.72505L19.019 5.44038L18.9875 5.15571L18.9245 4.87104L18.8615 4.58637L18.7671 4.30169L18.6726 4.01702L18.5781 3.76398L18.4837 3.47931L18.3577 3.22627L18.2318 2.97323L18.0743 2.75182L17.9169 2.53041L17.7594 2.30899L17.5705 2.08758L17.3816 1.8978L17.1926 1.70802L16.9722 1.51824L16.7518 1.36009L16.5314 1.20194L16.311 1.04379L16.0591 0.917266L15.7442 0.727485L15.4923 0.632595L15.2404 0.537704L14.957 0.442814L14.6736 0.347923L14.3902 0.284663L14.1068 0.221402L13.8234 0.189772L13.54 0.158142H13.2566H12.9732L12.6898 0.189772L12.4064 0.221402L12.123 0.284663L11.8396 0.347923L11.5562 0.442814L11.2728 0.537704L10.958 0.632595L10.706 0.727485L10.4541 0.854006L10.2022 0.980527L9.95032 1.13868L9.76139 1.32846L9.54097 1.48661L9.32056 1.67639L9.13163 1.86617L8.9427 2.05595L8.75377 2.27736L8.59632 2.49878L8.43888 2.72019L8.28144 2.9416L8.15549 3.19464L7.99804 3.47931L7.87209 3.73235L7.77763 3.98539L7.68316 4.27006L7.5887 4.55474L7.52572 4.83941L7.46274 5.12408L7.43125 5.40875V5.69342V5.72505L7.36828 5.69342H7.27381L7.21084 5.66179L7.14786 5.63016L7.08488 5.59853L7.0219 5.5669H6.95893H6.89595H6.83298H6.77H6.70702H6.64405H6.58107H6.51809H6.45511H6.39214H6.32916H6.2347H6.14023H6.04577H5.9513H5.66791L5.38451 5.59853L5.10112 5.63016L4.81772 5.69342H4.37688L4.09349 5.75668L3.81009 5.85157L3.55819 5.94646L3.30628 6.07298L3.05437 6.19951L2.80246 6.32603L2.58205 6.48418L2.36163 6.64233L2.14121 6.80048L1.92079 6.99026L1.73186 7.18004L1.54293 7.36982L1.354 7.59123L1.19656 7.81264L1.03912 8.03406L0.881674 8.25547L0.755721 8.50851L0.629767 8.76155L0.503814 9.01459L0.409349 9.26763L0.314884 9.5523L0.220419 9.83698L0.157442 10.1216L0.0944651 10.4063L0.0314884 10.7543L0 11.0389V11.3236V11.5766L0.0314884 11.8297L0.0629767 12.0827L0.0944651 12.3358L0.157442 12.5888L0.220419 12.8418L0.283395 13.0949L0.37786 13.3163L0.472325 13.5377L0.566791 13.7591L0.629767 14.0122L0.755721 14.2336L0.881674 14.455L1.00763 14.6448L1.16507 14.8662L1.32251 15.056L1.47995 15.2457L1.63739 15.4355L1.79484 15.5937L1.98377 15.7518L2.1727 15.91L2.36163 16.0681L2.55056 16.1946L2.73949 16.3212L2.99139 16.4477L3.21181 16.5742L3.43223 16.6691L3.65265 16.764L3.81009 16.8272L3.7786 16.8905L3.71563 16.9854L3.65265 17.1119L3.58967 17.2384L3.5267 17.365L3.46372 17.4915L3.40074 17.618L3.33777 17.7445L3.27479 17.871L3.21181 17.9976L3.18033 18.1241L3.14884 18.1873L3.11735 18.3139L3.08586 18.4404L3.05437 18.5669L3.02288 18.6934L2.99139 18.8199L2.95991 18.9465L2.92842 19.073L2.89693 19.1995L2.86544 19.326V19.4525V19.5791V19.7056V19.8321V19.9586V20.2433L2.89693 20.528L2.92842 20.8126L2.95991 21.1922L3.02288 21.4769L3.11735 21.7616L3.21181 22.0462L3.30628 22.2993L3.43223 22.5523L3.55819 22.8053L3.68414 23.0584L3.84158 23.2798L3.99902 23.5012L4.15646 23.7226L4.34539 23.944L4.53432 24.1338L4.72325 24.3236L4.94367 24.5134L5.16409 24.6715L5.38451 24.8297L5.60493 24.9878L5.85684 25.1143L6.10874 25.2409L6.36065 25.3674L6.61256 25.4623L6.92744 25.6204L7.21084 25.7153L7.49423 25.7786L7.77763 25.8418L8.06102 25.8735L8.34442 25.9051H8.62781H8.81674H9.00567L9.1946 25.8735L9.38353 25.8418L9.57246 25.8102L9.76139 25.7786L9.95032 25.747L10.1393 25.6837L10.3282 25.6204L10.5171 25.5572L10.706 25.4939L10.895 25.4307L11.0839 25.3674L11.2413 25.2725L11.3988 25.1776L11.5562 25.0827L11.7137 24.9878L11.8711 24.8929L12.0286 24.798L12.186 24.6715L12.3434 24.545L12.5009 24.4185L12.6268 24.292L12.7528 24.1654L12.8787 24.0389L13.0047 23.9124L13.1306 23.7543L13.1936 23.691L13.2566 23.7543L13.3826 23.9124L13.5085 24.0706L13.6345 24.1971L13.7604 24.3236L13.8864 24.4501L14.0438 24.5766L14.2013 24.7032L14.3587 24.8297L14.5161 24.9562L14.6736 25.0511L14.831 25.146L14.9885 25.2409L15.1459 25.3358L15.3033 25.4307L15.4923 25.5255L15.6812 25.5888L15.8701 25.6521L16.0591 25.7153L16.248 25.7786L16.4369 25.8418L16.6259 25.8735L16.8148 25.9051L17.0037 25.9367L17.1926 25.9684L17.3816 26H17.5705H17.7909H18.0743L18.3577 25.9684L18.6411 25.9367L18.9245 25.8735L19.2079 25.8102L19.4913 25.7153L19.7747 25.6204L20.0266 25.5255L20.2785 25.399L20.5304 25.2725L20.7823 25.146L21.0027 24.9878L21.2232 24.8297L21.4436 24.6715L21.664 24.4817L21.8529 24.292L22.0419 24.1022L22.2308 23.8808L22.3882 23.6594L22.5457 23.4379L22.7031 23.2165L22.8291 22.9635L22.955 22.7105L23.081 22.4574L23.1754 22.2044L23.2699 21.9197L23.3644 21.635L23.4273 21.3504L23.4903 21.0657L23.5218 20.781L23.5533 20.4963V20.2117V20.0535V19.927V19.8005V19.674V19.5474L23.6163 19.2311L23.5848 19.1046L23.5533 18.9781L23.5218 18.8516L23.4903 18.7251L23.4588 18.5985L23.4273 18.472L23.3959 18.3455L23.3644 18.219L23.3014 18.0608L23.2699 17.9343L23.2069 17.8078L23.1439 17.6813L23.081 17.5547L23.018 17.4282L22.9865 17.3333L22.9235 17.2068L22.8606 17.0803L22.7976 16.9538L22.7346 16.8589L22.7031 16.7956L22.8606 16.7324L23.081 16.6375L23.3014 16.5426L23.5218 16.4161L23.7422 16.2895L23.9312 16.163L24.1201 16.0365L24.309 15.8783L24.4979 15.7202L24.6869 15.562L24.8443 15.4039L25.0018 15.2141L25.1592 15.0243L25.3166 14.8345L25.4426 14.6448L25.5686 14.455L25.6945 14.2336L25.8205 14.0122L25.9149 13.7907L26.0094 13.5693L26.1039 13.3479L26.1983 13.1265L26.2613 12.8735L26.3243 12.6204L26.3873 12.3674L26.4187 12.1143L26.4502 11.8613L26.4817 11.6083V11.3552V11.0706L26.4187 10.7543ZM21.7585 16.5426C22.5772 17.4915 23.1125 18.7251 23.1125 20.0535C23.1125 22.9635 20.7508 25.3358 17.8539 25.3358C15.8701 25.3358 14.1698 24.2287 13.2566 22.6156C12.3434 24.1971 10.6431 25.3041 8.69079 25.3041C5.79386 25.3041 3.43223 22.9319 3.43223 20.0219C3.43223 18.6934 3.93605 17.4598 4.75474 16.5426C2.33014 16.0049 0.535302 13.8856 0.535302 11.3552C0.535302 8.44525 2.89693 6.07298 5.79386 6.07298C6.54958 6.07298 7.3053 6.23114 7.96656 6.54744C7.93507 6.38929 7.93507 6.19951 7.93507 6.04135C7.93507 3.13138 10.2967 0.759115 13.1936 0.759115C16.0906 0.759115 18.4522 3.13138 18.4522 6.04135C18.4522 6.23114 18.4522 6.38929 18.4207 6.54744C19.0819 6.26277 19.8062 6.07298 20.5619 6.07298C23.4588 6.07298 25.8205 8.44525 25.8205 11.3552C25.9149 13.8856 24.1201 16.0049 21.7585 16.5426Z" fill="#ED1C24"/>
<path d="M15.8072 5.69342H10.6431V10.8808H5.51046V16.0681H10.6431V21.2238H15.8072V16.0681H20.9398V10.8808H15.8072V5.69342Z" fill="#ED1C24"/>
<path d="M40.683 19.6423C40.6515 19.6423 40.62 19.6423 40.62 19.674C40.62 20.3066 40.62 20.9392 40.62 21.5401C40.62 21.5401 40.62 21.5718 40.5885 21.5718C40.5885 21.5718 40.5885 21.5718 40.557 21.5718C40.4625 21.4452 40.3366 21.2871 40.1792 21.1922C40.1162 21.1289 40.0217 21.1289 39.9272 21.0657C39.8328 21.0341 39.7383 21.0341 39.6438 21.0341C39.5179 21.0341 39.3605 21.0657 39.2345 21.0657C39.1715 21.0657 39.14 21.0973 39.1085 21.0973C39.0771 21.1289 39.0141 21.1289 38.9826 21.1606C38.9196 21.1922 38.8566 21.2555 38.7937 21.2871C38.5732 21.4769 38.3843 21.7616 38.3213 22.0462C38.2269 22.3309 38.1954 22.6156 38.1639 22.9002C38.1639 23.2798 38.1639 23.6594 38.1639 24.0389C38.1954 24.1971 38.1954 24.3869 38.2269 24.545C38.2269 24.6083 38.2584 24.7032 38.2584 24.7664C38.2898 24.9246 38.3528 25.0511 38.3843 25.2092C38.4788 25.4307 38.6992 25.747 38.9196 25.8418C39.0456 25.9367 39.203 25.9684 39.3605 25.9684C39.4549 26 39.8328 25.9684 39.9902 25.9367C40.3051 25.8102 40.4311 25.7153 40.62 25.4307H40.6515C40.6515 25.5572 40.6515 25.6837 40.6515 25.8102L40.683 25.8418C41.0293 25.8418 41.3757 25.8418 41.7221 25.8418C41.7536 25.8418 41.7851 25.8418 41.8165 25.8102C41.8165 23.7543 41.8165 21.6667 41.8165 19.6107C41.7851 19.5791 41.7851 19.5791 41.7536 19.5791C41.4072 19.6423 41.0293 19.6423 40.683 19.6423ZM40.5255 24.4501C40.494 24.5134 40.494 24.5766 40.4625 24.6715C40.4311 24.7032 40.4311 24.7664 40.3996 24.798C40.3681 24.8613 40.3051 24.9562 40.2421 24.9878C40.2106 25.0195 40.1792 25.0195 40.1477 25.0511C40.0532 25.0827 39.9272 25.0827 39.8328 25.0827C39.8013 25.0827 39.7698 25.0511 39.7383 25.0511C39.6124 24.9878 39.5179 24.9246 39.4549 24.798C39.4234 24.7664 39.4234 24.7032 39.3919 24.6715C39.3605 24.5766 39.3605 24.4817 39.329 24.3869C39.329 24.2603 39.2975 24.1338 39.2975 24.0073C39.2975 23.7859 39.2975 23.5645 39.2975 23.3431C39.2975 23.1217 39.329 22.9319 39.329 22.7421C39.3605 22.5523 39.3919 22.3625 39.5179 22.2044C39.5179 22.1411 39.7383 22.0462 39.8013 22.0146C39.8958 22.0146 39.9902 22.0146 40.0532 22.0146C40.0847 22.0146 40.1477 22.0462 40.1792 22.0462C40.2106 22.0779 40.2421 22.0779 40.2736 22.1095C40.3681 22.2044 40.3996 22.2993 40.4311 22.3942C40.4625 22.4258 40.4625 22.5207 40.494 22.5839C40.494 22.7105 40.5255 22.8053 40.5255 22.9319C40.5885 23.438 40.62 23.9757 40.5255 24.4501Z" fill="black"/>
<path d="M46.3509 22.1411C46.3509 22.1411 46.3194 22.1411 46.3509 22.1411C46.2564 21.8564 46.1305 21.6034 45.91 21.4136C45.91 21.4136 45.91 21.4136 45.91 21.382C45.8785 21.382 45.7841 21.3187 45.7841 21.2871C45.7211 21.2555 45.6581 21.2238 45.5951 21.1922C45.4692 21.1289 45.3118 21.0973 45.1858 21.0657C45.0598 21.0341 44.9339 21.0341 44.8079 21.0341C44.5245 21.0341 44.2726 21.0657 44.0207 21.1289C43.9263 21.1606 43.8318 21.1922 43.7688 21.2238C43.7373 21.2238 43.7058 21.2555 43.6744 21.2555C43.6429 21.2871 43.4854 21.3504 43.4854 21.382C43.4225 21.4136 43.2965 21.5401 43.265 21.6034C43.265 21.6034 43.2335 21.6034 43.2335 21.635C43.202 21.6667 43.1705 21.6983 43.1705 21.7616C43.1076 21.9197 43.0131 22.0462 42.9816 22.236C42.9186 22.4574 42.8557 22.7105 42.8557 22.9319C42.8242 22.9951 42.8242 23.09 42.8242 23.1849C42.8242 23.438 42.8242 23.691 42.8242 23.944C42.8242 23.944 42.8242 23.944 42.8242 23.9757C42.8557 24.1971 42.8872 24.4185 42.9186 24.6715C42.9501 24.798 42.9816 24.8929 43.0131 25.0195C43.0446 25.0511 43.202 25.4623 43.265 25.4623C43.2965 25.5255 43.3595 25.5888 43.391 25.6204C43.4539 25.6837 43.5169 25.7153 43.6114 25.7786C43.6744 25.8102 43.7058 25.8418 43.7688 25.8735C43.9263 25.9367 44.1467 25.9684 44.3041 26V26.0316C44.3041 26.0316 44.3041 26.0316 44.3356 26.0316V26H44.3671C44.3671 26 44.3671 26 44.3671 26.0316C44.556 26.0316 44.745 26.0316 44.9339 26.0316V26C45.1228 25.9684 45.3747 25.9367 45.5637 25.8418C45.6896 25.8102 45.8156 25.7153 45.91 25.6521C45.91 25.6204 46.036 25.5255 46.0675 25.5255C46.1619 25.399 46.2564 25.2409 46.3509 25.0827C46.3509 25.0511 46.3824 25.0195 46.3824 24.9878C46.4138 24.9246 46.4138 24.8929 46.4453 24.8297C46.4768 24.7348 46.4768 24.6399 46.5083 24.545C46.5713 24.4501 46.5398 24.2287 46.5713 24.1338C46.5713 23.8491 46.5713 23.5328 46.5713 23.2482C46.5713 23.09 46.5713 22.9002 46.5398 22.7421C46.4453 22.5523 46.3824 22.3625 46.3509 22.1411ZM45.2803 23.8808C45.2803 24.0706 45.2488 24.292 45.2173 24.4817C45.1858 24.545 45.1858 24.6083 45.1858 24.6715C45.1543 24.7348 45.1228 24.8613 45.0913 24.9246C45.0598 24.9878 45.0284 25.0195 44.9654 25.0827C44.9024 25.1144 44.8394 25.146 44.7765 25.1776C44.682 25.1776 44.5875 25.1776 44.4931 25.1776C44.4301 25.146 44.3986 25.146 44.3356 25.1144C44.3356 25.1144 44.3356 25.1144 44.3356 25.0827C44.2411 25.0511 44.2097 24.9562 44.1467 24.8929C44.1152 24.8297 44.0837 24.7664 44.0522 24.7032C44.0207 24.545 43.9892 24.3552 43.9892 24.1971C43.9263 23.7859 43.9578 23.3747 43.9578 22.9635C43.9892 22.7105 43.9892 22.4574 44.0837 22.2044C44.1152 22.1411 44.1467 22.1095 44.1782 22.0462C44.2726 21.9197 44.3671 21.8881 44.4931 21.8564C44.556 21.8564 44.745 21.8248 44.8079 21.8881C44.8394 21.9197 44.9024 21.9197 44.9339 21.9513C44.9339 21.983 44.9654 21.983 44.9654 21.983C44.9969 22.0462 45.0598 22.1411 45.0913 22.236C45.3118 22.8053 45.2803 23.3431 45.2803 23.8808Z" fill="black"/>
<path d="M55.577 22.6472C55.5455 22.5207 55.5455 22.4258 55.514 22.2993C55.514 22.2993 55.514 22.2676 55.4825 22.2676C55.451 22.1411 55.4195 22.0146 55.3565 21.8881C55.2621 21.6667 55.1361 21.5085 54.9472 21.3504C54.7898 21.2555 54.6008 21.1289 54.4119 21.1289C54.2859 21.0657 54.0655 21.0657 53.9396 21.0657C53.6247 21.0657 53.3098 21.0973 53.0264 21.1922C53.0264 21.1922 52.9949 21.1922 52.9949 21.2238C52.9634 21.2238 52.9319 21.2238 52.9319 21.2555C52.9005 21.2871 52.7115 21.3504 52.7115 21.4136C52.6485 21.4452 52.5856 21.5085 52.5226 21.5718C52.4596 21.635 52.3966 21.7299 52.3337 21.8248C52.3337 21.8564 52.2707 21.9513 52.2707 21.983C52.2392 22.0462 52.2077 22.1411 52.1762 22.2044C52.1447 22.3309 52.1132 22.4574 52.0818 22.5523C52.0503 22.6472 52.0503 22.7421 52.0503 22.8686C52.0503 22.9635 52.0188 23.09 52.0188 23.2165C52.0188 23.3747 52.0188 23.5328 51.9873 23.691C52.0503 23.8175 51.9558 24.0073 52.0188 24.1022C52.0188 24.2287 52.0188 24.3552 52.0188 24.4817C52.0503 24.6399 52.0503 24.8613 52.1447 24.9878C52.1762 25.1776 52.3022 25.3674 52.4281 25.5572C52.4596 25.5888 52.6485 25.8102 52.7115 25.8102C52.7115 25.8102 52.7115 25.8102 52.7115 25.8418C52.743 25.8735 52.869 25.9367 52.9005 25.9367C53.0894 26.0316 53.3098 26.0633 53.5302 26.0949C53.5302 26.0949 53.5302 26.0949 53.5302 26.1265C53.7191 26.1265 53.9081 26.1265 54.097 26.1265V26.0949C54.16 26.0949 54.2545 26.0633 54.3489 26.0633C54.4434 26.0316 54.5378 26 54.6323 25.9684C54.6638 25.9367 54.9157 25.8418 54.9157 25.8102C55.1676 25.6837 55.388 25.2725 55.451 24.9878C55.4825 24.9246 55.4825 24.8297 55.514 24.7664C55.514 24.6715 55.514 24.545 55.5455 24.4501C55.5455 24.4185 55.514 24.4185 55.514 24.4185C55.1676 24.4185 54.8212 24.4185 54.4749 24.4185L54.4434 24.4501C54.4434 24.5766 54.3804 24.7348 54.3489 24.8613C54.2859 25.0195 54.1915 25.146 54.0655 25.2409C54.034 25.2409 53.9711 25.2725 53.9396 25.2725C53.8451 25.2725 53.7821 25.2725 53.6877 25.2725C53.6562 25.2409 53.5932 25.2409 53.5617 25.2092C53.3098 24.9878 53.2468 24.6399 53.2468 24.3236C53.2153 24.1971 53.2153 24.0389 53.2153 23.8808C53.2153 23.8491 53.2153 23.8491 53.2468 23.8175C54.034 23.8175 54.7898 23.8175 55.577 23.8175C55.6085 23.7859 55.577 23.3747 55.577 23.2798C55.6085 22.9951 55.577 22.837 55.577 22.6472ZM54.4434 22.9951C54.0655 22.9951 53.6562 22.9951 53.2783 22.9951L53.2468 22.9635C53.2468 22.9002 53.2468 22.837 53.2468 22.8053C53.2783 22.5839 53.2783 22.3625 53.4043 22.1727C53.4043 22.1411 53.4043 22.1411 53.4358 22.1095C53.4358 22.1095 53.4358 22.1095 53.4672 22.1095C53.4672 22.0462 53.5932 21.983 53.6247 21.9513C53.6562 21.9197 53.6877 21.9197 53.7192 21.9197C53.8451 21.8881 53.9711 21.8881 54.097 21.9197C54.16 21.9513 54.223 21.983 54.2859 22.0462C54.4434 22.3309 54.4434 22.6472 54.4434 22.9951Z" fill="black"/>
<path d="M59.8594 23.7226C59.7964 23.6594 59.7649 23.5961 59.7019 23.5328C59.7019 23.5328 59.7019 23.5328 59.7019 23.5012C59.6704 23.4696 59.6704 23.4696 59.639 23.4379C59.6075 23.4063 59.576 23.4063 59.5445 23.3747C59.4815 23.3114 59.3556 23.2798 59.2926 23.2165C59.1037 23.1533 58.9462 23.09 58.7888 23.0268C58.5998 22.9951 58.4109 22.9002 58.222 22.837C58.1275 22.7737 58.0331 22.7105 57.9386 22.6156C57.9071 22.5839 57.9071 22.5523 57.8756 22.5207C57.8756 22.489 57.8441 22.4574 57.8441 22.4258C57.8441 22.3625 57.8441 22.3309 57.8441 22.2676C57.8441 22.2044 57.8756 22.1727 57.8756 22.1095C57.9071 22.0779 57.9386 22.0146 57.9701 21.983C58.0331 21.9197 58.1275 21.8881 58.222 21.8248C58.3479 21.8248 58.4739 21.7932 58.5998 21.8248C58.6313 21.8248 58.6628 21.8564 58.6943 21.8564C58.7258 21.8881 58.7573 21.9197 58.8203 21.9513C58.8518 22.0146 58.8832 22.0779 58.9147 22.1411C58.9147 22.2044 58.9462 22.2676 58.9462 22.3309C58.9462 22.3942 58.9462 22.4574 58.9777 22.489C59.3241 22.489 59.6704 22.489 60.0483 22.489C60.0483 22.2676 60.0483 22.0146 59.9853 21.7932C59.9538 21.6667 59.8594 21.5401 59.7964 21.4452C59.7649 21.4136 59.7334 21.382 59.7019 21.3504C59.639 21.2871 59.5445 21.2238 59.4815 21.1922C59.3241 21.0973 59.1351 21.0657 58.9462 21.0024C58.7258 20.9708 58.4739 20.9392 58.2535 20.9708C58.0645 20.9708 57.8441 21.0024 57.6552 21.0657C57.5292 21.0973 57.4348 21.1606 57.3088 21.2238C57.2144 21.2871 57.1514 21.3504 57.0569 21.4136C56.8995 21.5718 56.7735 21.7616 56.742 21.9513C56.6791 22.0779 56.7105 22.2044 56.6791 22.2993C56.6791 22.3625 56.6791 22.4258 56.6791 22.489C56.6791 22.5839 56.7105 22.6472 56.7105 22.7421C56.742 22.8053 56.742 22.8686 56.7735 22.9319C56.7735 22.9319 56.7735 22.9635 56.805 22.9635C56.8365 23.1216 56.9939 23.2798 57.0884 23.3747C57.1829 23.5012 57.3403 23.5645 57.4663 23.6277C57.5607 23.6594 57.6552 23.691 57.7182 23.7226C57.7811 23.7859 57.9071 23.7859 58.0016 23.8491C58.0331 23.8491 58.1275 23.8808 58.1275 23.8808C58.159 23.8808 58.222 23.9124 58.2535 23.9124C58.3794 23.944 58.5054 24.0389 58.6628 24.0706C58.7258 24.1022 58.7888 24.1654 58.8517 24.2287C58.8832 24.2603 58.8832 24.292 58.9147 24.292C58.9147 24.3236 58.9462 24.3236 58.9462 24.3552C58.9462 24.4185 58.9777 24.4501 58.9777 24.5134C58.9777 24.6083 58.9462 24.7032 58.9462 24.7664C58.8832 24.8613 58.8518 24.9246 58.7573 24.9878C58.6943 25.0195 58.5998 25.0511 58.5054 25.0827C58.4109 25.0827 58.3164 25.0827 58.222 25.0827C58.159 25.0827 57.9071 24.9878 57.9071 24.9246C57.8126 24.8929 57.7811 24.7032 57.7497 24.6083C57.7497 24.4817 57.7182 24.3869 57.7182 24.2603C57.3718 24.2603 57.0254 24.2603 56.6791 24.2603L56.6476 24.292C56.6476 24.4185 56.6476 24.5134 56.6476 24.6399C56.6791 24.8613 56.6791 25.1143 56.8365 25.3041C56.8995 25.4939 57.1514 25.6521 57.3403 25.747C57.4033 25.7786 57.4663 25.8102 57.5607 25.8102C57.7182 25.8418 57.8756 25.8735 58.0331 25.8735C58.0331 25.8735 58.0331 25.8735 58.0331 25.9051H58.0645V25.8735H58.096C58.096 25.8735 58.096 25.8735 58.096 25.9051C58.285 25.9051 58.4739 25.9051 58.6628 25.9051V25.8735C58.7573 25.8735 58.8517 25.8418 58.9462 25.8418C59.0722 25.8102 59.1666 25.7786 59.2926 25.747C59.3556 25.7153 59.6704 25.5888 59.6704 25.5255C59.7964 25.4306 59.8909 25.2725 60.0168 25.146C60.1113 24.9562 60.1428 24.7664 60.1743 24.5766C60.1743 24.4185 60.1743 24.2287 60.1428 24.0706C60.0168 24.1338 59.9224 23.7226 59.8594 23.7226Z" fill="black"/>
<path d="M66.8498 25.7786C66.7868 25.6521 66.7868 25.4939 66.7553 25.3674C66.7553 24.3236 66.7553 23.2798 66.7238 22.2676C66.7238 22.2044 66.6924 22.1411 66.6924 22.0778C66.6294 21.9513 66.6294 21.7299 66.5034 21.6034C66.409 21.4136 66.1885 21.2555 65.9996 21.2238C65.9366 21.1922 65.8737 21.1606 65.8107 21.1606C65.7477 21.1289 65.6847 21.1289 65.6218 21.1289C65.5273 21.1289 65.4643 21.0973 65.3698 21.0973C65.2124 21.0973 65.0235 21.0657 64.866 21.0973C64.7401 21.0973 64.6456 21.1289 64.5197 21.1289C64.4567 21.1289 64.3937 21.1606 64.3307 21.1606C64.2678 21.1922 64.1733 21.1922 64.1103 21.2238C64.0158 21.2555 63.9214 21.3187 63.8269 21.382C63.7639 21.4136 63.7325 21.4769 63.6695 21.5085C63.4805 21.7932 63.3861 21.983 63.3231 22.3309C63.3231 22.4258 63.3231 22.5207 63.3231 22.6472C63.3231 22.6472 63.3231 22.6472 63.3546 22.6472C63.701 22.6472 64.0788 22.6472 64.4252 22.6472C64.4252 22.5523 64.4252 22.4258 64.4252 22.3309C64.4567 22.236 64.4882 22.1095 64.5826 22.0462C64.7086 21.8881 64.992 21.8881 65.1809 21.9197C65.2124 21.9197 65.2439 21.9513 65.2754 21.9513C65.3069 21.983 65.3384 21.983 65.3384 22.0146C65.3698 22.0462 65.4013 22.1095 65.4013 22.1411C65.4013 22.1411 65.4013 22.1411 65.4328 22.1411C65.4328 22.1727 65.4328 22.1727 65.4643 22.2044C65.5273 22.2676 65.4958 22.5207 65.4958 22.6156C65.4958 22.6788 65.4643 22.7104 65.4328 22.7737C65.4013 22.8053 65.4013 22.8053 65.4013 22.837C65.3384 22.8686 65.3069 22.9002 65.2439 22.9319C65.2124 22.9319 65.1809 22.9635 65.1494 22.9635C65.1179 22.9635 65.055 22.9951 65.0235 22.9951C64.8345 23.0268 64.6456 23.1216 64.4252 23.1533C64.3937 23.1533 64.3622 23.1849 64.3622 23.1849C64.2678 23.1849 64.1733 23.2482 64.0788 23.2798C63.8899 23.3431 63.7639 23.4063 63.6065 23.5012C63.6065 23.5012 63.6065 23.5328 63.575 23.5328C63.4176 23.6277 63.2601 23.8491 63.2286 24.0389C63.1657 24.1338 63.1657 24.2603 63.1657 24.3552C63.1657 24.545 63.1657 24.7348 63.1657 24.8929C63.1972 24.9878 63.1972 25.2409 63.2916 25.3358C63.3231 25.4306 63.3861 25.5255 63.4491 25.6204C63.575 25.8418 63.8584 25.9367 64.0788 25.9684V26C64.2363 26 64.3937 26 64.5197 26C64.5197 26 64.5197 26 64.5197 25.9684C64.6771 25.9367 64.866 25.9367 64.992 25.8735C65.1809 25.8102 65.3384 25.6204 65.4328 25.4623C65.4328 25.4623 65.4643 25.4623 65.4643 25.4306C65.4643 25.4939 65.4958 25.5572 65.4958 25.6204C65.4958 25.6521 65.5273 25.7153 65.5273 25.7786C65.5588 25.8102 65.5588 25.8418 65.5903 25.9051C65.5903 25.9051 65.6218 25.9051 65.6218 25.9367C65.9996 25.9367 66.346 25.9367 66.7238 25.9367C66.8813 25.8735 66.8498 25.8102 66.8498 25.7786ZM65.5588 24.6083C65.5273 24.7348 65.4958 24.8297 65.4013 24.9246C65.3384 24.9878 65.2754 25.0195 65.2124 25.0827C65.1494 25.1143 65.055 25.146 64.992 25.1776C64.8975 25.1776 64.8031 25.1776 64.7086 25.1776C64.6456 25.146 64.5826 25.1143 64.5511 25.0511C64.3937 24.8929 64.3937 24.6399 64.3937 24.4185C64.4252 24.1654 64.5197 23.9757 64.7401 23.8808C64.7716 23.8491 64.8345 23.8491 64.866 23.8491C65.0865 23.7542 65.3384 23.7226 65.5273 23.5961H65.5588C65.5588 23.944 65.5588 24.292 65.5588 24.6083Z" fill="black"/>
<path d="M32.559 19.6423C32.1811 19.6423 31.8032 19.6423 31.3939 19.6423C31.3624 19.6423 31.3624 19.6423 31.3624 19.6423C31.3624 21.7299 31.3624 23.7859 31.3624 25.8735C31.3939 25.8735 31.4254 25.8735 31.4569 25.9051C31.8347 25.9051 32.2126 25.9051 32.6219 25.9051L32.6534 25.8735C32.6534 23.7859 32.6534 21.7299 32.6534 19.674C32.5905 19.6423 32.559 19.6423 32.559 19.6423Z" fill="black"/>
<path d="M37.0618 21.6667C37.0303 21.6034 36.9988 21.5401 36.9359 21.4453C36.9044 21.4136 36.9044 21.382 36.8729 21.382C36.8099 21.2871 36.6839 21.2555 36.621 21.1606C36.5895 21.1289 36.5265 21.1289 36.495 21.0973C36.432 21.0657 36.4005 21.0657 36.3376 21.0657C36.2431 21.0341 36.1172 21.0341 36.0227 21.0341C35.8338 21.0341 35.6133 21.0657 35.4244 21.1289C35.3614 21.1606 35.0151 21.2871 35.0151 21.382C34.9836 21.4136 34.9836 21.4136 34.9521 21.4453C34.8891 21.5085 34.8576 21.5718 34.7946 21.6667C34.7632 21.6983 34.7632 21.6983 34.7632 21.7299C34.7632 21.7299 34.7632 21.6983 34.7317 21.6983C34.7317 21.5401 34.7317 21.382 34.7317 21.2238C34.7317 21.2238 34.7317 21.1922 34.7002 21.1922C34.3223 21.1922 33.9445 21.1922 33.5666 21.1922V21.2238C33.5666 22.7737 33.5666 24.3236 33.5666 25.8735C33.5981 25.9051 33.6296 25.9051 33.6611 25.9051C34.0074 25.9051 34.3538 25.9051 34.7002 25.9051C34.7317 25.9051 34.7946 25.9051 34.7946 25.8418C34.7946 24.798 34.7946 23.7226 34.7946 22.6788C34.7946 22.6156 34.8261 22.5207 34.8261 22.4574C34.8261 22.4258 34.8576 22.3942 34.8576 22.3625C34.8891 22.2993 34.9206 22.2676 34.9521 22.2044C34.9836 22.1727 35.0151 22.1411 35.078 22.1095C35.1095 22.0779 35.141 22.0779 35.1725 22.0462C35.2985 22.0146 35.3929 22.0146 35.5189 22.0146C35.6448 22.0462 35.7393 22.0462 35.8338 22.1727C35.8338 22.1727 35.8338 22.1727 35.8652 22.1727C35.8967 22.2044 35.8967 22.236 35.9282 22.2676C35.9597 22.3309 35.9597 22.3942 35.9912 22.489C35.9912 23.6277 35.9912 24.7664 35.9912 25.9051C35.9912 25.9051 35.9912 25.9367 36.0227 25.9367C36.4005 25.9367 36.8099 25.9367 37.1878 25.9367L37.2192 25.9051C37.2192 24.6715 37.2192 23.438 37.2192 22.2044C37.2192 22.0779 37.1878 21.9513 37.1563 21.8248C37.0933 21.7616 37.0618 21.7299 37.0618 21.6667Z" fill="black"/>
<path d="M50.6333 21.2871C50.6018 21.2238 50.4758 21.1606 50.4129 21.1606C50.3499 21.1289 50.2869 21.0973 50.2239 21.0973C50.1295 21.0657 50.035 21.0657 49.9091 21.0657C49.6886 21.0657 49.4682 21.0973 49.2793 21.1922C49.1533 21.2238 49.0589 21.3187 48.9329 21.382C48.9329 21.4136 48.8384 21.4769 48.807 21.5085C48.807 21.5401 48.744 21.6034 48.744 21.6034C48.744 21.635 48.681 21.7299 48.6495 21.7299C48.5551 21.6034 48.681 21.382 48.618 21.2238H48.5865C48.2087 21.2238 47.8623 21.2238 47.4845 21.2238C47.4845 21.2238 47.453 21.2555 47.453 21.2871C47.453 22.837 47.453 24.3552 47.453 25.9051C47.453 25.9367 47.4844 25.9367 47.5159 25.9367C47.8938 25.9367 48.2717 25.9367 48.6495 25.9367C48.6495 25.9367 48.6495 25.9367 48.681 25.9051C48.681 24.8297 48.681 23.7859 48.681 22.7105C48.7125 22.6156 48.7125 22.489 48.744 22.3942C48.7755 22.3625 48.7755 22.3309 48.7755 22.2993C48.8384 22.2044 48.8699 22.1727 48.9644 22.0778C48.9959 22.0778 48.9959 22.0462 49.0274 22.0462C49.0589 22.0146 49.1218 22.0146 49.1848 22.0146C49.2793 22.0146 49.3738 22.0146 49.4682 22.0146C49.4997 22.0146 49.5312 22.0462 49.5627 22.0462C49.6257 22.0778 49.6886 22.1411 49.7516 22.2044C49.7516 22.236 49.7831 22.2676 49.7831 22.3309C49.7831 22.3941 49.8146 22.4574 49.8146 22.5207C49.8146 23.6277 49.8146 24.7664 49.8461 25.9051C49.8461 25.9051 49.8776 25.9051 49.8776 25.9367C50.2554 25.9367 50.6333 25.9367 51.0111 25.9367C51.0111 25.9367 51.0426 25.9367 51.0426 25.9051C51.0426 24.6715 51.0426 23.4379 51.0426 22.2044C51.0426 22.0462 51.0111 21.9197 50.9482 21.7615C50.9167 21.6034 50.7907 21.382 50.6333 21.2871Z" fill="black"/>
<path d="M61.0559 21.1922C61.0559 21.1922 61.0559 21.2238 61.0245 21.2238C61.0245 22.7737 61.0245 24.3236 61.0245 25.8735C61.0245 25.8735 61.0244 25.8735 61.0559 25.9051C61.4338 25.9051 61.8432 25.9051 62.221 25.9051C62.221 25.9051 62.221 25.9051 62.221 25.8735C62.221 24.3236 62.221 22.7421 62.221 21.1922V21.1606C61.8432 21.1922 61.4653 21.1922 61.0559 21.1922Z" fill="black"/>
<path d="M62.221 19.6423C61.8431 19.6423 61.4653 19.6423 61.1189 19.6423C61.0874 19.6423 61.0874 19.6423 61.0874 19.674C61.0874 19.9903 61.0874 20.3066 61.0874 20.6229C61.0874 20.6545 61.0874 20.6545 61.0874 20.6861C61.4653 20.6861 61.8746 20.6861 62.284 20.6861V20.6545C62.284 20.3066 62.284 19.9903 62.284 19.6423C62.221 19.6423 62.221 19.6423 62.221 19.6423Z" fill="black"/>
<path d="M38.6992 16.5109C38.7307 16.5426 38.8881 16.5742 38.9511 16.5742C39.1085 16.5742 39.2975 16.6058 39.4549 16.6058C39.5494 16.6058 39.6124 16.6058 39.7068 16.6058C39.8013 16.6058 39.8643 16.5742 39.9587 16.5742C40.0217 16.5426 40.0847 16.5426 40.1477 16.5426C40.2106 16.5109 40.2421 16.5109 40.3051 16.4793C40.3366 16.4477 40.3681 16.4477 40.3996 16.4477C40.4625 16.416 40.5255 16.3844 40.5885 16.3528C40.62 16.3212 40.7459 16.1946 40.7774 16.163C40.8404 16.0681 40.9349 15.9732 40.9664 15.8783C40.9979 15.7834 41.0293 15.6886 41.0608 15.5937C41.1238 15.4039 41.1553 15.1825 41.1553 14.9611V14.9294C40.8089 14.9294 40.4625 14.9294 40.1162 14.9294L40.0847 14.9611C40.0532 15.056 40.0532 15.1508 40.0217 15.2457C40.0217 15.2774 39.8958 15.6253 39.8643 15.6253C39.8328 15.6569 39.8013 15.6886 39.8013 15.6886C39.7383 15.7202 39.6753 15.7518 39.6124 15.7834C39.5179 15.7834 39.4549 15.7834 39.3605 15.7834C39.329 15.7518 39.2975 15.7518 39.266 15.7518C39.1085 15.6569 39.0456 15.4988 38.9826 15.3406C38.9511 15.2774 38.9511 15.2457 38.9511 15.1825C38.9196 15.056 38.9196 14.8978 38.9196 14.7713C38.9196 14.6131 38.9196 14.4866 38.9196 14.3285C39.7068 14.3285 40.494 14.2968 41.3127 14.2968C41.3127 14.107 41.3127 13.9489 41.3127 13.7591C41.2812 13.5693 41.2812 13.3796 41.2812 13.2214C41.2498 13.1265 41.2498 13.0316 41.2498 12.9684C41.2183 12.9051 41.2183 12.8418 41.2183 12.7786C41.1868 12.747 41.1868 12.6837 41.1868 12.6521C41.1553 12.6204 41.1553 12.5572 41.1238 12.5255C41.0608 12.4306 40.9978 12.3041 40.9349 12.2092C40.9034 12.1776 40.8719 12.1143 40.8089 12.0827C40.7459 12.0511 40.7145 11.9878 40.6515 11.9562C40.62 11.9246 40.4625 11.8297 40.4311 11.8297C40.3366 11.7664 40.2106 11.7348 40.0847 11.7032C39.9902 11.6715 39.8958 11.6715 39.8013 11.6715C39.6439 11.6715 39.5179 11.6715 39.3605 11.6715C39.266 11.6715 39.1715 11.7032 39.0771 11.7032C38.9826 11.7348 38.8881 11.7348 38.8252 11.7664C38.7622 11.798 38.6992 11.798 38.6677 11.8297C38.6047 11.8613 38.5418 11.8929 38.5103 11.9246C38.4473 11.9878 38.3528 12.0511 38.2898 12.1143C38.2584 12.146 38.2269 12.1776 38.1954 12.2092V12.2409C38.1009 12.3041 38.0379 12.4306 38.0065 12.5255C37.975 12.5888 37.975 12.6521 37.9435 12.7153C37.912 12.7469 37.8805 12.9051 37.849 13C37.8175 13.0633 37.8175 13.1898 37.786 13.253C37.7545 13.5061 37.7545 13.7591 37.7231 14.0122C37.7231 14.2336 37.7231 14.4233 37.7231 14.6448C37.7231 14.8029 37.7545 14.9611 37.7545 15.1192C37.786 15.2141 37.786 15.3406 37.8175 15.4355C37.849 15.6253 37.9435 15.7834 38.0065 15.9416C38.0694 16.0049 38.1009 16.0997 38.1639 16.1314C38.2898 16.2895 38.5418 16.4477 38.6992 16.5109C38.6677 16.5109 38.6677 16.5109 38.6992 16.5109ZM39.1715 12.5888C39.2975 12.5255 39.3605 12.5255 39.5179 12.5255C39.6439 12.5572 39.7068 12.5888 39.8013 12.6521C39.8328 12.6837 39.8643 12.7153 39.8958 12.7469C39.8958 12.7786 39.9272 12.8102 39.9272 12.8102C39.9272 12.8418 39.9587 12.8735 39.9587 12.9051C39.9587 12.9684 39.9902 13.0316 39.9902 13.0633C39.9902 13.2214 40.0217 13.4112 40.0217 13.5693C40.0217 13.5693 40.0217 13.5693 40.0217 13.601C39.6438 13.601 39.2345 13.601 38.8566 13.601C38.8252 13.601 38.8252 13.5693 38.8252 13.5693C38.8566 13.2214 38.8566 12.8102 39.1715 12.5888Z" fill="black"/>
<path d="M47.5159 16.0681C47.5474 16.163 47.5789 16.2579 47.5789 16.3528C47.6104 16.4161 47.6419 16.5426 47.7049 16.5426C48.0827 16.5426 48.4291 16.5426 48.807 16.5426C48.807 16.5109 48.807 16.5109 48.807 16.4793C48.744 16.3212 48.681 16.1314 48.681 15.9416C48.681 14.9294 48.681 13.9173 48.681 12.8735C48.6495 12.7786 48.6495 12.6837 48.6495 12.6204C48.618 12.5572 48.618 12.4939 48.618 12.4623C48.5865 12.399 48.5551 12.3358 48.5236 12.2725C48.4606 12.2092 48.4291 12.146 48.3976 12.0827C48.3031 11.9878 48.2087 11.9246 48.0827 11.8613C48.0198 11.8297 47.9253 11.798 47.8623 11.7664C47.5159 11.6715 47.1696 11.6715 46.8232 11.6715C46.7287 11.6715 46.6028 11.7032 46.5083 11.7032C46.4453 11.7032 46.3824 11.7348 46.3194 11.7348C46.036 11.8297 45.6896 11.9878 45.5637 12.2725C45.5322 12.3041 45.5322 12.3358 45.5007 12.3358C45.4062 12.5255 45.3747 12.7153 45.3432 12.9367C45.3432 13.0316 45.3432 13.1265 45.3432 13.2214C45.6896 13.2214 46.0675 13.2214 46.4138 13.2214C46.4138 13.1581 46.4138 13.0633 46.4138 13C46.4453 12.8735 46.4768 12.6204 46.6343 12.5888C46.7602 12.4623 47.0121 12.4939 47.2011 12.5255C47.3585 12.5572 47.4215 12.6837 47.4845 12.8102C47.4845 12.8735 47.5159 12.9367 47.5159 13C47.5159 13.0633 47.5159 13.1265 47.5159 13.1898C47.4844 13.253 47.4845 13.2847 47.4845 13.3479C47.453 13.3796 47.453 13.4112 47.453 13.4112C47.39 13.4744 47.327 13.5061 47.264 13.5693C47.2325 13.5693 47.2011 13.601 47.1696 13.601C47.0436 13.6326 46.8862 13.6642 46.7602 13.6959C46.6972 13.7275 46.6343 13.7275 46.5713 13.7591C46.3824 13.7907 46.1934 13.854 46.0045 13.9489C45.8785 13.9805 45.7526 14.0754 45.6266 14.1387C45.6266 14.1387 45.6266 14.1387 45.6266 14.1703C45.4377 14.2652 45.2803 14.5499 45.2488 14.7397C45.1858 14.9294 45.1858 15.1825 45.1858 15.4039C45.1858 15.4988 45.2173 15.5937 45.2173 15.6886C45.2488 15.7518 45.2488 15.8151 45.2803 15.8783C45.2803 15.91 45.3118 15.9416 45.3118 15.9732C45.3747 16.0997 45.4377 16.2579 45.5637 16.3212C45.6266 16.4477 45.8785 16.5426 46.0045 16.5742C46.0675 16.5742 46.1305 16.6058 46.2249 16.6058C46.3509 16.6058 46.4768 16.6058 46.6028 16.6058C46.6658 16.5742 46.7602 16.5742 46.8232 16.5742C46.8862 16.5426 46.9491 16.5426 47.0436 16.5109C47.0751 16.4793 47.264 16.416 47.264 16.3844C47.327 16.3212 47.453 16.163 47.5159 16.0681ZM47.2955 15.6253C47.2325 15.6569 47.1696 15.7202 47.0751 15.7518C46.9491 15.7834 46.8547 15.8151 46.7287 15.8151C46.6343 15.8151 46.5398 15.7518 46.4768 15.6886C46.4453 15.6569 46.4453 15.6253 46.4138 15.5937C46.3824 15.562 46.3824 15.5304 46.3824 15.4671C46.3509 15.4039 46.3509 15.309 46.3509 15.2457C46.3509 15.056 46.3824 14.9294 46.4453 14.7713C46.4453 14.7397 46.4768 14.7397 46.4768 14.708C46.5083 14.6764 46.5713 14.6131 46.6028 14.5815C46.7602 14.4866 46.9491 14.4233 47.1381 14.3917C47.1696 14.3601 47.2325 14.3601 47.264 14.3601C47.327 14.3285 47.4215 14.2968 47.4845 14.2336C47.5159 14.2336 47.5159 14.2336 47.5474 14.2336C47.5474 14.5499 47.5474 14.8978 47.5474 15.2141C47.5159 15.2774 47.5159 15.3406 47.5159 15.4039C47.4215 15.4671 47.3585 15.562 47.2955 15.6253Z" fill="black"/>
<path d="M33.6611 16.5109C33.9759 16.5109 34.2908 16.5109 34.6057 16.5109C34.6687 16.4477 34.7002 16.2263 34.7002 16.1314C34.7317 16.0365 34.7317 15.9416 34.7632 15.8467C34.8261 15.4671 34.9206 15.0876 35.0151 14.7397C35.078 14.5182 35.1095 14.2968 35.1725 14.0754C35.1725 13.9489 35.204 13.8224 35.267 13.7275C35.2985 13.601 35.2985 13.4428 35.3614 13.3479C35.3929 13.0316 35.4874 12.747 35.5504 12.4306C35.6448 12.1776 35.6448 11.8613 35.7393 11.6083V11.6399C35.7393 13.253 35.7393 14.8662 35.7708 16.5109C36.1486 16.5109 36.5265 16.5109 36.9044 16.5109C36.9044 16.5109 36.9044 16.4793 36.9359 16.4793C36.9359 14.4233 36.9359 12.3358 36.9359 10.2798C36.9359 10.2482 36.9044 10.2482 36.9044 10.2165C36.3061 10.2165 35.6763 10.2165 35.078 10.2165C34.9836 10.3431 34.9836 10.5012 34.9836 10.6277C34.9521 10.7859 34.9206 10.944 34.8891 11.1022C34.8891 11.1022 34.8891 11.1338 34.8576 11.1338C34.7946 11.4817 34.7317 11.8297 34.6687 12.146C34.6372 12.2409 34.6057 12.3674 34.6057 12.4623C34.5742 12.7786 34.4798 13.0633 34.4168 13.3796C34.3853 13.4744 34.3853 13.601 34.3538 13.6959C34.3223 13.8224 34.3223 13.9489 34.2908 14.0754C34.2593 14.1387 34.2593 14.2336 34.2279 14.2968C34.2279 14.3917 34.1964 14.5182 34.1334 14.6131C34.0704 14.2968 33.9759 13.9489 33.9445 13.6326C33.913 13.5061 33.8815 13.3479 33.85 13.2214C33.8185 13.1265 33.8185 13 33.787 12.9051C33.7555 12.7786 33.7555 12.6521 33.724 12.5255C33.6925 12.4623 33.6926 12.3358 33.6611 12.2725C33.6296 12.146 33.5981 12.0195 33.5981 11.8929C33.5666 11.8297 33.5666 11.7664 33.5666 11.7032C33.5351 11.6399 33.5351 11.545 33.5036 11.4501C33.4406 11.2287 33.4092 11.0073 33.3777 10.7859C33.3777 10.7543 33.3777 10.7543 33.3462 10.7543C33.3147 10.6277 33.3147 10.5012 33.2832 10.3747C33.2517 10.3431 33.2517 10.2798 33.2517 10.2482C32.6534 10.2482 32.0237 10.2482 31.4254 10.2482L31.3939 10.2798C31.3939 12.3674 31.3939 14.4234 31.3939 16.5109H31.4254C31.8032 16.5109 32.1496 16.5109 32.5275 16.5109C32.5275 14.8978 32.5275 13.253 32.5275 11.6399C32.5275 11.6083 32.5275 11.6083 32.5275 11.5766C32.5275 11.6083 32.559 11.6399 32.559 11.7032C32.559 11.7348 32.5905 11.7348 32.5905 11.7664C32.6219 12.0195 32.7164 12.2409 32.7479 12.4939C32.8109 12.6204 32.7794 12.7786 32.8424 12.9051C32.9368 13.3479 33.0628 13.7907 33.1258 14.2652C33.1572 14.2968 33.1572 14.3917 33.1572 14.455C33.1887 14.5182 33.1887 14.6131 33.2202 14.6764C33.2517 14.8662 33.2832 15.0243 33.3147 15.2141C33.3462 15.2774 33.3462 15.3723 33.3777 15.4355C33.4092 15.7202 33.5036 16.0049 33.5666 16.2579C33.5666 16.3212 33.5981 16.4161 33.6611 16.5109C33.6296 16.5109 33.6296 16.5109 33.6611 16.5109Z" fill="black"/>
<path d="M43.1705 16.4793C43.1705 15.4671 43.1705 14.4866 43.1705 13.4744C43.1705 13.4112 43.202 13.3796 43.202 13.3163C43.2335 13.253 43.265 13.2214 43.2965 13.1581C43.328 13.1265 43.3595 13.0949 43.391 13.0633C43.4539 12.9684 43.6114 12.9367 43.7058 12.8735C43.7688 12.8418 43.8633 12.8418 43.9263 12.8418C44.0837 12.8418 44.2412 12.8418 44.3986 12.8418C44.3986 12.8418 44.3986 12.8102 44.4301 12.8102C44.4301 12.4306 44.4301 12.0511 44.4301 11.7032C44.2726 11.6399 44.0207 11.7032 43.8633 11.7348C43.8318 11.7348 43.8003 11.7664 43.7688 11.7664C43.7373 11.798 43.7058 11.798 43.6744 11.8297C43.6114 11.8613 43.5484 11.8929 43.5169 11.9562C43.391 12.0827 43.265 12.2409 43.1705 12.399C43.1705 12.3674 43.1391 12.3674 43.1391 12.3358C43.1391 12.146 43.1391 11.9878 43.1391 11.8297C43.1391 11.8297 43.1391 11.8297 43.1076 11.8297C42.7297 11.8297 42.3518 11.8297 41.974 11.8297C41.974 13.3796 41.974 14.9611 41.974 16.5109C41.974 16.5109 41.974 16.5426 42.0055 16.5426C42.3833 16.5426 42.7927 16.5426 43.1705 16.5426C43.1705 16.5109 43.1705 16.4793 43.1705 16.4793Z" fill="black"/>
<path d="M53.1209 16.5109C53.1209 15.2774 53.1209 14.0754 53.1209 12.8418C53.1209 12.7786 53.0894 12.7153 53.0894 12.6204C53.0579 12.5572 53.0579 12.4939 53.0579 12.4307C53.0264 12.399 53.0264 12.3358 52.9949 12.3041C52.9634 12.2092 52.9004 12.0827 52.806 12.0195C52.7745 12.0195 52.7745 11.9878 52.7745 11.9878C52.6485 11.8929 52.4911 11.8297 52.3337 11.7664C52.2392 11.7348 52.1762 11.7348 52.0817 11.7348C51.9558 11.7348 51.8298 11.7348 51.7039 11.7348C51.6409 11.7348 51.4835 11.7348 51.452 11.798C51.2001 11.8613 50.9482 12.0511 50.7907 12.2725C50.7592 12.2725 50.7592 12.2725 50.7278 12.2409C50.7278 11.6083 50.7278 10.9757 50.7278 10.3431C50.7278 10.3114 50.6963 10.3114 50.6963 10.2798C50.3184 10.2798 49.9405 10.2798 49.5312 10.2798C49.4997 10.2798 49.4997 10.3114 49.4997 10.3431C49.4997 12.399 49.4997 14.455 49.4997 16.5426C49.5312 16.5426 49.5312 16.5742 49.5627 16.5742C49.9405 16.5742 50.3184 16.5742 50.7278 16.5742C50.7278 16.5426 50.7592 16.5109 50.7592 16.5109C50.7592 15.4671 50.7592 14.455 50.7592 13.4112C50.7592 13.2847 50.7907 13.1898 50.8222 13.0633C50.8537 13.0316 50.9167 12.8735 50.9482 12.8735C51.0112 12.7786 51.1371 12.747 51.2316 12.7153C51.452 12.6837 51.6724 12.7153 51.7984 12.9051C51.8298 12.9684 51.8613 13.0633 51.8928 13.1581C51.8928 14.3285 51.8928 15.4671 51.9243 16.6375C52.3337 16.5109 52.7115 16.5109 53.1209 16.5109Z" fill="black"/>
<path d="M51.7039 4.71289C51.7354 4.96593 51.7669 5.21897 51.8613 5.47201C51.8928 5.5669 51.9558 5.66179 51.9873 5.75668C51.9873 5.75668 52.1132 5.91483 52.1132 5.94646C52.1132 5.94646 52.1132 5.94646 52.1447 5.94646C52.2392 6.10461 52.4596 6.16787 52.5856 6.26276C52.6485 6.29439 52.7115 6.29439 52.7745 6.32603C52.869 6.32603 52.9634 6.35766 53.0579 6.35766C53.1209 6.35766 53.1524 6.35766 53.2153 6.35766C53.2783 6.32603 53.3728 6.32603 53.4358 6.32603C53.4672 6.29439 53.4987 6.29439 53.5617 6.29439C53.6247 6.26276 53.6877 6.23113 53.7506 6.1995C53.7821 6.16787 53.7821 6.16787 53.8136 6.13624C53.8766 6.10461 53.9081 6.07298 53.9711 6.00972C54.034 5.94646 54.097 5.8832 54.1285 5.81994H54.16C54.16 6.13624 54.1915 6.45255 54.1285 6.73722C54.097 6.80048 54.0655 6.89537 54.034 6.927C54.0025 7.05352 53.8766 7.11678 53.7821 7.14841C53.6247 7.18004 53.4358 7.18004 53.2783 7.14841C53.2468 7.11678 53.2153 7.11678 53.2153 7.11678C53.1524 7.08515 53.1209 7.05352 53.0894 7.02189C53.0579 6.99026 53.0579 6.99026 53.0264 6.95863C52.9949 6.927 52.9949 6.89537 52.9949 6.86374C52.9949 6.83211 52.9634 6.70559 52.9319 6.67396C52.5541 6.67396 52.1762 6.67396 51.7984 6.67396C51.7984 6.76885 51.7984 6.86374 51.8299 6.95863C51.8613 7.02189 51.8613 7.11678 51.8928 7.18004C51.9873 7.36982 52.1132 7.5596 52.3022 7.68612C52.3337 7.68612 52.3652 7.71775 52.3652 7.71775C52.5856 7.84427 52.8375 7.90753 53.0894 7.90753C53.1524 7.93916 53.2468 7.90753 53.3098 7.93916C53.4358 7.93916 53.5617 7.93916 53.6562 7.90753C53.7821 7.8759 53.9396 7.90753 54.034 7.84427C54.097 7.84427 54.16 7.81264 54.223 7.81264C54.4119 7.78101 54.6008 7.65449 54.7268 7.59123C54.7583 7.52797 54.8527 7.46471 54.9157 7.40145C54.9472 7.33819 54.9787 7.30656 55.0417 7.27493C55.0732 7.18004 55.1361 7.11678 55.1676 7.02189C55.1991 6.89537 55.2306 6.80048 55.2621 6.67396C55.2621 6.57907 55.2936 6.48418 55.2936 6.38929C55.2936 4.80778 55.2936 3.22627 55.2936 1.64476C55.2936 1.64476 55.2936 1.61313 55.2621 1.61313C55.2306 1.61313 55.2306 1.61313 55.1991 1.61313C54.8527 1.61313 54.5064 1.61313 54.1915 1.61313C54.16 1.64476 54.16 1.64476 54.1285 1.67639C54.1285 1.80291 54.1285 1.92943 54.1285 2.05595L54.097 2.08758C54.034 2.02432 54.034 1.8978 53.9396 1.86617C53.8766 1.77128 53.7506 1.64476 53.6247 1.61313C53.5617 1.54987 53.4358 1.54987 53.3413 1.51824C53.1838 1.48661 52.9949 1.51824 52.8375 1.51824C52.7745 1.54987 52.7115 1.54987 52.6171 1.5815C52.5226 1.61313 52.3337 1.67639 52.2707 1.77128C52.2077 1.77128 52.1447 1.8978 52.1132 1.8978C52.0503 1.99269 51.9873 2.05595 51.9243 2.15084C51.8928 2.24573 51.8613 2.30899 51.8299 2.40388C51.7984 2.43551 51.7984 2.46714 51.7984 2.5304C51.7354 2.65692 51.7039 2.84671 51.6724 2.97323C51.6724 3.16301 51.6409 3.38442 51.6094 3.60583C51.6094 3.8905 51.6094 4.17517 51.6094 4.42821C51.6724 4.58637 51.6724 4.64963 51.7039 4.71289ZM52.869 3.66909C52.869 3.5742 52.869 3.44768 52.9005 3.38442C52.9005 3.13138 52.9634 2.90997 53.0894 2.68856C53.1209 2.65692 53.1524 2.62529 53.1838 2.59366C53.2153 2.56203 53.2468 2.56203 53.2783 2.5304C53.4358 2.49877 53.5302 2.49877 53.6877 2.5304C53.7192 2.56203 53.7821 2.59366 53.8451 2.62529C53.8766 2.65693 53.9081 2.72019 53.9396 2.75182C53.9396 2.78345 53.9711 2.81508 53.9711 2.84671C53.9711 2.87834 54.0025 2.9416 54.0025 2.97323C54.0025 3.03649 54.034 3.09975 54.034 3.16301C54.0655 3.35279 54.0655 3.51094 54.097 3.70072C54.097 3.92213 54.097 4.17517 54.097 4.39658C54.0655 4.55474 54.0655 4.68126 54.034 4.83941C54.034 4.87104 54.0025 4.87104 54.0025 4.90267C54.0025 4.96593 53.9711 5.02919 53.9396 5.09245C53.8766 5.15571 53.8451 5.21897 53.7821 5.31386C53.7506 5.34549 53.7191 5.37712 53.6562 5.40875C53.5932 5.40875 53.5617 5.44038 53.4987 5.44038C53.4358 5.44038 53.3728 5.44038 53.3098 5.44038C53.2153 5.40875 53.1209 5.37712 53.0894 5.31386C53.0264 5.28223 52.9319 5.09245 52.9005 5.02919C52.869 4.96593 52.869 4.90267 52.8375 4.83941C52.806 4.71289 52.806 4.618 52.806 4.49147C52.869 4.23843 52.869 3.95376 52.869 3.66909Z" fill="black"/>
<path d="M38.3528 6.10461C38.3843 6.07298 38.4158 6.00972 38.4473 5.97809C38.4788 6.00972 38.5103 6.1995 38.5103 6.23113C38.5418 6.29439 38.5418 6.38928 38.6047 6.45254C38.9826 6.45254 39.3605 6.45254 39.7383 6.45254C39.7383 6.45254 39.7383 6.42091 39.7698 6.42091C39.7068 6.26276 39.6438 6.07298 39.6438 5.8832C39.6438 4.87103 39.6438 3.85887 39.6438 2.81507C39.6124 2.72018 39.6124 2.62529 39.6124 2.5304C39.5809 2.49877 39.5809 2.43551 39.5809 2.40388C39.5494 2.30899 39.4864 2.15084 39.4234 2.08758C39.3919 2.02432 39.329 1.96106 39.2975 1.92943C39.2345 1.8978 39.1715 1.83454 39.1085 1.83454C39.0456 1.77128 38.9511 1.77128 38.8881 1.73964C38.4788 1.61312 38.0065 1.61312 37.5971 1.64475C37.5341 1.64475 37.4712 1.67638 37.3767 1.67638C37.2822 1.70801 37.0618 1.73964 36.9673 1.83454C36.8729 1.86617 36.8099 1.92943 36.7154 1.99269C36.6839 2.02432 36.6525 2.05595 36.621 2.08758C36.558 2.15084 36.495 2.24573 36.4635 2.34062C36.432 2.40388 36.4006 2.49877 36.3691 2.59366C36.3376 2.65692 36.3376 2.72018 36.3376 2.78344C36.3376 2.87833 36.2746 3.22626 36.3376 3.22626C36.6839 3.22626 37.0303 3.22626 37.3767 3.22626C37.3767 3.13137 37.3767 3.06811 37.4082 2.97322C37.4082 2.90996 37.4397 2.87833 37.4397 2.81507C37.4712 2.78344 37.4712 2.75181 37.5026 2.72018C37.5656 2.59366 37.7231 2.5304 37.849 2.49877C37.9435 2.49877 38.0379 2.49877 38.1324 2.49877C38.2584 2.5304 38.3213 2.56203 38.4158 2.65692C38.4473 2.68855 38.4788 2.75181 38.4788 2.78344C38.4788 2.8467 38.5103 2.90996 38.5103 2.97322C38.5103 3.03648 38.5103 3.09974 38.5103 3.163C38.4788 3.22626 38.4788 3.25789 38.4788 3.32115C38.4473 3.41604 38.3843 3.4793 38.2898 3.51093C38.1954 3.57419 38.0694 3.60582 37.975 3.63745C37.9435 3.63745 37.9435 3.63746 37.9435 3.66909C37.6916 3.73235 37.4082 3.79561 37.1563 3.8905C37.0933 3.8905 36.9988 3.95376 36.9359 3.98539C36.6525 4.08028 36.4006 4.33332 36.3061 4.61799C36.2431 4.74451 36.2116 4.96592 36.2116 5.12407C36.2116 5.21896 36.2116 5.34548 36.2116 5.472C36.2431 5.63016 36.2431 5.78831 36.3061 5.91483C36.432 6.32602 36.8099 6.61069 37.2192 6.61069C37.3767 6.61069 37.5026 6.61069 37.6601 6.61069C37.7545 6.57906 37.849 6.57906 37.975 6.54743C38.0694 6.38928 38.2584 6.26276 38.3528 6.10461ZM37.4712 5.63016C37.2822 5.40874 37.2507 5.06081 37.3452 4.77614C37.3767 4.71288 37.4082 4.64962 37.4397 4.58636C37.4712 4.55473 37.5026 4.5231 37.5341 4.49147C37.5971 4.45984 37.6601 4.39658 37.7231 4.39658C37.8175 4.36495 37.912 4.33332 38.0379 4.30169C38.0379 4.30169 38.0694 4.30169 38.0694 4.27006C38.1324 4.27006 38.3213 4.2068 38.3843 4.14354C38.4158 4.11191 38.4473 4.11191 38.4473 4.11191H38.4788C38.4788 4.42821 38.4788 4.74451 38.4788 5.09244C38.4473 5.18733 38.4473 5.28222 38.3843 5.37711C38.3528 5.44037 38.2898 5.472 38.2584 5.53527C38.1954 5.5669 38.1324 5.63016 38.0694 5.66179C38.0379 5.66179 38.0065 5.69342 37.9435 5.69342C37.849 5.69342 37.7545 5.72505 37.6601 5.72505C37.6286 5.69342 37.5341 5.69342 37.4712 5.63016Z" fill="black"/>
<path d="M45.0284 3.22626C44.9969 3.25789 44.9654 3.32116 44.9654 3.35279C44.9339 3.38442 44.9024 3.41605 44.8394 3.44768C44.7765 3.47931 44.7135 3.51094 44.6505 3.54257C44.3041 3.60583 43.9578 3.73235 43.6114 3.82724C43.6114 3.82724 43.5799 3.82724 43.5799 3.85887C43.4854 3.8905 43.391 3.92213 43.328 3.95376C43.202 4.01702 43.0446 4.14354 42.9816 4.27006C42.9816 4.27006 42.9501 4.27006 42.9501 4.30169C42.7297 4.61799 42.7297 4.99755 42.7297 5.34549C42.7297 5.44038 42.7612 5.53527 42.7612 5.63016C42.7612 5.69342 42.7927 5.72505 42.7927 5.78831C42.8557 5.94646 42.9186 6.10461 43.0446 6.23113C43.0761 6.29439 43.1391 6.32602 43.202 6.35765C43.2335 6.38928 43.265 6.38928 43.328 6.42091C43.4539 6.48417 43.6114 6.5158 43.7688 6.5158C43.9263 6.5158 44.0522 6.5158 44.2097 6.5158C44.3356 6.48417 44.4616 6.45254 44.5875 6.42091C44.6505 6.38928 44.7135 6.32602 44.8079 6.29439C44.8079 6.26276 44.9024 6.1995 44.9339 6.16787C44.9969 6.10461 45.0598 6.00972 45.0913 5.94646C45.0913 5.97809 45.1228 6.04135 45.1228 6.07298C45.1543 6.16787 45.1543 6.32602 45.2488 6.38928C45.6266 6.38928 46.0045 6.38928 46.3824 6.38928C46.3824 6.35765 46.3824 6.35765 46.3824 6.35765C46.3509 6.29439 46.3194 6.23113 46.3194 6.13624C46.2879 6.07298 46.2879 6.00972 46.2879 5.94646C46.2879 5.85157 46.2879 5.75668 46.2879 5.66179C46.2879 4.68125 46.2879 3.73235 46.2879 2.75181C46.2564 2.65692 46.2564 2.56203 46.2564 2.46714C46.2564 2.40388 46.2249 2.37225 46.2249 2.30899C46.1619 2.18247 46.099 2.05595 46.0045 1.96106C46.0045 1.92943 45.973 1.92943 45.973 1.8978C45.8156 1.77128 45.6266 1.64476 45.4377 1.61313C45.3432 1.5815 45.2173 1.54987 45.1228 1.54987C44.8394 1.54987 44.556 1.54987 44.3041 1.54987C44.2097 1.5815 44.1152 1.5815 44.0207 1.61313C43.9578 1.64476 43.8633 1.64476 43.8003 1.67639C43.6114 1.70802 43.4854 1.83454 43.328 1.96106C43.2965 2.02432 43.265 2.05595 43.202 2.11921C43.1705 2.11921 43.1705 2.15084 43.1705 2.18247C43.1705 2.18247 43.1705 2.18247 43.1391 2.18247C43.1076 2.2141 43.1076 2.24573 43.1076 2.27736C43.0761 2.40388 43.0131 2.5304 42.9816 2.65692C42.9501 2.81507 42.9501 2.97322 42.9501 3.09974C43.2965 3.09974 43.6429 3.09974 43.9892 3.09974C44.0207 3.06811 44.0207 2.8467 44.0207 2.81507C44.0207 2.78344 44.0522 2.72018 44.0522 2.68855C44.0837 2.65692 44.1152 2.59366 44.1152 2.56203C44.2097 2.46714 44.2726 2.43551 44.3986 2.40388C44.4931 2.40388 44.619 2.40388 44.7135 2.40388C44.8394 2.43551 44.9339 2.49877 44.9969 2.59366C44.9969 2.62529 45.0284 2.65692 45.0284 2.68855C45.0284 2.75181 45.0598 2.81507 45.0598 2.90996C45.0598 2.97322 45.0598 3.03648 45.0598 3.09974C45.0598 3.13137 45.0284 3.19463 45.0284 3.22626ZM45.0284 5.2506C44.9969 5.31386 44.9654 5.34549 44.9339 5.40875C44.9024 5.44038 44.9024 5.44038 44.9024 5.47201C44.9024 5.47201 44.9024 5.47201 44.8709 5.47201C44.8079 5.5669 44.6505 5.63016 44.556 5.69342C44.4616 5.69342 44.3671 5.72505 44.2726 5.72505C44.2412 5.72505 44.2097 5.69342 44.1467 5.69342C44.0207 5.63016 43.9263 5.5669 43.8948 5.40875C43.8318 5.28223 43.8318 5.09244 43.8318 4.93429C43.8318 4.87103 43.8633 4.80777 43.8633 4.74451C43.8633 4.71288 43.8948 4.68125 43.8948 4.64962C43.9578 4.55473 44.0207 4.49147 44.1152 4.42821C44.2097 4.39658 44.3041 4.33332 44.3986 4.30169C44.4931 4.27006 44.5875 4.23843 44.682 4.23843C44.745 4.2068 44.9024 4.11191 44.9969 4.11191C44.9969 4.42821 44.9969 4.74451 44.9969 5.06081C45.0598 5.12407 45.0284 5.18734 45.0284 5.2506Z" fill="black"/>
<path d="M31.3624 6.45255C31.7718 6.45255 32.1496 6.45255 32.559 6.45255C32.559 6.45255 32.559 6.45255 32.5905 6.45255C32.5905 5.63016 32.5905 4.83941 32.6219 4.01703V3.9854C32.9683 3.9854 33.3147 3.95377 33.6296 3.95377C33.724 3.92214 33.787 3.92214 33.8815 3.92214C33.8815 3.92214 33.913 3.92214 33.913 3.89051C34.1019 3.85888 34.2593 3.79561 34.4168 3.70072C34.4798 3.66909 34.5112 3.63746 34.5742 3.60583C34.5742 3.60583 34.5742 3.60583 34.5742 3.5742C34.6372 3.51094 34.7002 3.47931 34.7632 3.41605C34.8576 3.28953 34.9521 3.19464 34.9836 3.06812C35.0151 3.03649 35.0465 2.90997 35.078 2.87834C35.1095 2.78345 35.141 2.65693 35.1725 2.56204C35.1725 2.43552 35.204 2.34063 35.204 2.21411C35.2355 2.08759 35.204 1.83454 35.204 1.70802C35.1725 1.5815 35.141 1.42335 35.1095 1.29683C35.1095 1.2652 35.078 1.2652 35.078 1.2652C35.0465 1.17031 35.0151 1.10705 34.9836 1.01216C34.9206 0.917269 34.8576 0.822378 34.7946 0.759118C34.7632 0.759118 34.7632 0.727488 34.7632 0.727488C34.7632 0.727488 34.5112 0.537707 34.5112 0.506077C34.3853 0.442816 34.2278 0.347926 34.0704 0.316296C34.0389 0.284665 33.913 0.284665 33.85 0.253035V0.221405C32.9998 0.221405 32.1181 0.221405 31.2679 0.221405C31.3309 2.24574 31.3309 4.33333 31.3624 6.45255C31.3624 6.42092 31.3624 6.42092 31.3624 6.45255ZM32.6219 1.13868C32.9053 1.10705 33.1572 1.10705 33.4092 1.13868C33.4406 1.13868 33.5036 1.17031 33.5666 1.17031C33.5981 1.17031 33.6296 1.20194 33.6611 1.20194C33.6925 1.23357 33.7555 1.2652 33.787 1.29683C33.8185 1.32846 33.85 1.39172 33.8815 1.42335C33.913 1.45498 33.913 1.51824 33.9445 1.54987C34.0389 1.73965 34.0074 1.96106 34.0074 2.15085C33.9759 2.21411 33.9759 2.309 33.9759 2.40389C33.9445 2.43552 33.9445 2.49878 33.913 2.53041C33.8815 2.59367 33.8185 2.65693 33.787 2.72019C33.724 2.78345 33.6296 2.84671 33.5351 2.87834C33.4721 2.90997 33.4092 2.90997 33.3462 2.9416C33.0943 2.9416 32.8739 2.97323 32.6219 2.97323L32.5905 2.9416C32.6219 2.37226 32.6219 1.73965 32.6219 1.13868Z" fill="black"/>
<path d="M40.6515 6.42092C40.6515 6.42092 40.683 6.42092 40.683 6.45255C41.0608 6.45255 41.4387 6.45255 41.8165 6.45255H41.848C41.848 4.36496 41.848 2.27736 41.848 0.189774C41.4387 0.189774 41.0293 0.189774 40.62 0.189774C40.6515 2.24573 40.6515 4.33333 40.6515 6.42092Z" fill="black"/>
<path d="M48.4291 6.42091C48.4606 5.34548 48.4606 4.30169 48.4606 3.22626C48.4606 3.13137 48.4921 3.03648 48.4921 2.94159C48.5236 2.81507 48.618 2.65692 48.7125 2.62529C48.744 2.59366 48.7755 2.59366 48.8385 2.56203C49.0589 2.5304 49.2793 2.49877 49.4682 2.65692C49.5312 2.72018 49.5627 2.78344 49.5627 2.87833C49.5627 2.94159 49.5942 3.03648 49.5942 3.09974C49.5942 4.2068 49.5942 5.31385 49.5942 6.45254C49.5942 6.45254 49.5942 6.45254 49.6257 6.45254C50.0035 6.45254 50.4129 6.45254 50.7907 6.45254C50.7907 5.18733 50.7907 3.92213 50.7907 2.65692C50.7592 2.56203 50.7592 2.46714 50.7278 2.37225C50.6963 2.34062 50.6963 2.27736 50.6963 2.24573C50.6648 2.2141 50.6648 2.18247 50.6648 2.15084C50.6333 2.08758 50.5703 2.02432 50.5388 1.96106C50.4758 1.8978 50.3814 1.8029 50.2869 1.77127C50.2239 1.70801 50.1295 1.70801 50.0665 1.67638C49.8146 1.61312 49.5312 1.61312 49.2793 1.64475C49.1848 1.67638 49.0589 1.70801 48.9644 1.77127C48.7755 1.8029 48.618 1.99269 48.5236 2.11921C48.4921 2.18247 48.4606 2.2141 48.4291 2.27736C48.3976 2.24573 48.3976 1.83454 48.3976 1.77127V1.73964H48.3661C47.9883 1.73964 47.6419 1.73964 47.264 1.73964V1.77127C47.264 3.32115 47.264 4.90266 47.264 6.45254C47.264 6.45254 47.264 6.45254 47.264 6.48417C47.6419 6.45254 48.0198 6.42091 48.4291 6.42091Z" fill="black"/>
<path d="M95.9765 0.0632629H94.3706V7.46472H95.1578V4.55475H95.8821C96.4803 4.55475 96.9212 4.3966 97.2361 4.08029C97.5195 3.76399 97.6769 3.32117 97.6769 2.7202V1.92944C97.6769 1.3601 97.5509 0.885647 97.2675 0.569346C96.9842 0.221414 96.5433 0.0632629 95.9765 0.0632629ZM95.8506 3.79562H95.1263V0.790757H95.9765C96.2914 0.790757 96.5118 0.885647 96.6693 1.0438C96.7952 1.23358 96.8897 1.51825 96.8897 1.89781V2.7202C96.8897 3.09976 96.8267 3.38443 96.6693 3.54258C96.4803 3.73236 96.2284 3.79562 95.8506 3.79562Z" fill="black"/>
<path d="M102.526 6.45256V5.3455C102.526 4.52312 102.18 4.11192 101.802 3.89051C101.991 3.79562 102.148 3.6691 102.243 3.51095C102.432 3.25791 102.526 2.87835 102.526 2.43552V1.80292C102.526 0.664235 101.959 0.0316315 100.857 0.0316315H99.2198V7.43309H100.007V4.27007H100.574C100.983 4.27007 101.267 4.33333 101.456 4.49149C101.644 4.64964 101.739 4.90268 101.739 5.31387V6.42093C101.739 6.64234 101.739 6.80049 101.77 6.95864C101.802 7.11679 101.833 7.24331 101.896 7.36983L101.928 7.43309H102.778L102.621 7.18005C102.589 7.05353 102.526 6.80049 102.526 6.45256ZM100.007 0.790756H100.857C101.172 0.790756 101.393 0.885646 101.55 1.0438C101.707 1.23358 101.77 1.48662 101.77 1.83455V2.53042C101.77 2.94161 101.676 3.19465 101.518 3.32117C101.33 3.47932 101.046 3.54258 100.637 3.54258H100.039V0.790756H100.007Z" fill="black"/>
<path d="M105.99 0C105.423 0 105.014 0.189781 104.699 0.537713C104.415 0.885645 104.289 1.3601 104.289 1.92944V5.53528C104.289 6.10462 104.447 6.57908 104.699 6.92701C104.982 7.30657 105.423 7.46472 105.99 7.46472C106.557 7.46472 106.997 7.27494 107.281 6.92701C107.564 6.57908 107.69 6.10462 107.69 5.53528V1.96107C107.69 1.39173 107.533 0.917275 107.281 0.569343C106.997 0.189781 106.557 0 105.99 0ZM105.99 6.76886C105.675 6.76886 105.455 6.67397 105.297 6.48419C105.14 6.26277 105.077 5.9781 105.077 5.59854V1.92944C105.077 1.54988 105.14 1.26521 105.297 1.0438C105.455 0.854015 105.675 0.759124 105.99 0.759124C106.305 0.759124 106.557 0.854015 106.683 1.0438C106.84 1.26521 106.903 1.54988 106.903 1.92944V5.59854C106.903 5.9781 106.809 6.26277 106.683 6.48419C106.557 6.67397 106.305 6.76886 105.99 6.76886Z" fill="black"/>
<path d="M111.311 6.00973L110.02 0.0632629H109.202L110.839 7.46472H111.784L113.358 0.0632629H112.602L111.311 6.00973Z" fill="black"/>
<path d="M115.688 0.0632629H114.901V7.46472H115.688V0.0632629Z" fill="black"/>
<path d="M120.097 5.28224L118.27 0.0632629H117.389V7.46472H118.113V1.92944L120.065 7.46472H120.852V0.0632629H120.097V5.28224Z" fill="black"/>
<path d="M125.135 4.04866C124.946 3.89051 124.725 3.70073 124.411 3.47932C124.127 3.28954 123.938 3.09976 123.781 2.97324C123.623 2.84672 123.529 2.68856 123.403 2.49878C123.308 2.309 123.245 2.11922 123.245 1.89781C123.245 1.54988 123.308 1.23358 123.466 1.0438C123.592 0.854015 123.812 0.759124 124.127 0.759124C124.442 0.759124 124.662 0.854015 124.788 1.0438C124.946 1.26521 125.009 1.54988 125.009 1.89781V2.24574H125.765V1.92944C125.765 1.3601 125.639 0.885645 125.355 0.537713C125.072 0.189781 124.662 0 124.096 0C123.56 0 123.12 0.189781 122.836 0.537713C122.553 0.885645 122.427 1.32847 122.427 1.92944C122.427 2.27737 122.49 2.56204 122.616 2.84672C122.742 3.09976 122.899 3.32117 123.12 3.51095C123.308 3.6691 123.56 3.85888 123.844 4.08029C124.096 4.27007 124.316 4.42822 124.473 4.58637C124.631 4.7129 124.757 4.87105 124.851 5.06083C124.946 5.21898 124.977 5.44039 124.977 5.6618C124.977 6.04136 124.914 6.32603 124.757 6.51582C124.631 6.7056 124.379 6.80049 124.064 6.80049C123.749 6.80049 123.529 6.7056 123.371 6.51582C123.214 6.32603 123.151 6.00973 123.151 5.6618V5.06083H122.395V5.59854C122.395 6.16788 122.521 6.64234 122.805 6.99027C123.088 7.3382 123.497 7.52798 124.064 7.52798C124.631 7.52798 125.072 7.3382 125.324 6.99027C125.607 6.64234 125.733 6.16788 125.733 5.59854C125.733 5.25061 125.67 4.96594 125.544 4.7129C125.481 4.42822 125.324 4.20681 125.135 4.04866Z" fill="black"/>
<path d="M128.221 0.0632629H127.433V7.46472H128.221V0.0632629Z" fill="black"/>
<path d="M94.1187 13.3479H97.2361C99.2198 13.3479 100.164 14.455 100.164 16.4793V22.8686C100.164 24.8929 99.1883 26 97.2361 26H94.1187V13.3479ZM96.1025 15.1509V24.1655H97.2046C97.8344 24.1655 98.2122 23.8491 98.2122 22.9319V16.3844C98.2122 15.4988 97.8344 15.1509 97.2046 15.1509H96.1025Z" fill="black"/>
<path d="M104.006 20.9392L103.408 22.0779V25.9684H101.424V13.3479H103.408V18.82H103.439L105.99 13.3479H107.974L105.234 18.9781L107.974 25.9684H105.958L104.006 20.9392Z" fill="black"/>
<path d="M108.855 13.3479H110.839V25.9684H108.855V13.3479Z" fill="black"/>
<path d="M114.523 24.1655C114.744 24.1971 114.995 24.1971 115.216 24.1971C115.846 24.1971 116.35 23.9757 116.35 22.9951V13.3479H118.333V22.837C118.333 25.3674 116.979 26 115.499 26C115.153 26 114.87 26 114.555 25.9684V24.1655H114.523Z" fill="black"/>
<path d="M126.048 25.9684H124.064L123.718 23.691H121.293L120.947 25.9684H119.12L121.136 13.3479H124.033L126.048 25.9684ZM121.545 21.983H123.434L122.49 15.5937H122.458L121.545 21.983Z" fill="black"/>
<path d="M129.543 20.9392L128.945 22.0779V25.9684H126.961V13.3479H128.945V18.82H128.976L131.527 13.3479H133.511L130.74 18.9781L133.479 25.9684H131.464L129.543 20.9392Z" fill="black"/>
<path d="M140.753 25.9684H138.769L138.423 23.691H135.998L135.652 25.9684H133.826L135.841 13.3479H138.738L140.753 25.9684ZM136.25 21.983H138.139L137.195 15.5937H137.163L136.25 21.983Z" fill="black"/>
<path d="M145.823 25.9684C145.728 25.6521 145.634 25.4307 145.634 24.4185V22.4574C145.634 21.2871 145.224 20.8443 144.343 20.8443H143.65V25.9684H141.666V13.3479H144.658C146.704 13.3479 147.586 14.2968 147.586 16.2579V17.2384C147.586 18.5353 147.177 19.3577 146.295 19.7689V19.8005C147.271 20.2117 147.617 21.1606 147.617 22.4574V24.4185C147.617 25.0195 147.649 25.4939 147.838 25.9367H145.823V25.9684ZM143.65 15.1509V19.0414H144.437C145.161 19.0414 145.634 18.7251 145.634 17.7129V16.4477C145.634 15.562 145.319 15.1509 144.626 15.1509H143.65Z" fill="black"/>
<path d="M148.31 13.3479H154.419V15.1509H152.341V25.9684H150.357V15.1509H148.31V13.3479Z" fill="black"/>
<path d="M161 25.9684H159.016L158.67 23.691H156.245L155.899 25.9684H154.073L156.088 13.3479H158.985L161 25.9684ZM156.497 21.983H158.386L157.442 15.5937H157.41L156.497 21.983Z" fill="black"/>
</g>
<defs>
<clipPath id="clip0">
<rect width="161" height="26" fill="white"/>
</clipPath>
</defs>
</svg>
