<svg width="92" height="92" viewBox="0 0 92 92" fill="none" xmlns="http://www.w3.org/2000/svg">
<rect width="92" height="92" rx="2" fill="#085ABB"/>
<path d="M68.2372 41.9772L68.1844 41.4954L68.0788 41.0136L67.9732 40.5318L67.8675 40.05L67.7091 39.5682L67.5507 39.1399L67.3394 38.7116L67.1282 38.2833L66.9169 37.855L66.6528 37.4803L66.3888 37.1055L66.1247 36.7308L65.8078 36.3561L65.4909 36.0348L65.1213 35.6601L64.7516 35.3389L64.3819 35.0712L64.0122 34.8035L63.6425 34.5359L63.22 34.3217L62.7975 34.1076L62.375 33.8935L61.9524 33.7328L61.4243 33.5722L60.949 33.4116L60.4737 33.3046L59.9984 33.1975L59.523 33.144L59.0477 33.0904H58.5724H58.4139H58.2555H58.1499H58.0443H57.9386H57.833H57.7274H57.6217H57.5161H57.4105H57.3049H57.1992H57.0936H56.988H56.8824H56.7767L56.6711 33.144L56.1958 33.4116H56.0902L55.9845 33.4652L55.8789 33.5187V33.4652L55.8261 32.9834L55.7733 32.5015L55.6677 32.0197L55.562 31.5379L55.4036 31.0561L55.2451 30.5743L55.0867 30.146L54.9283 29.6642L54.717 29.2359L54.5058 28.8076L54.2417 28.4329L53.9776 28.0581L53.7136 27.6834L53.3967 27.3087L53.0798 26.9874L52.7629 26.6662L52.3932 26.345L52.0235 26.0774L51.6538 25.8097L51.2841 25.542L50.8616 25.3279L50.3335 25.0067L49.911 24.8461L49.4885 24.6854L49.0132 24.5248L48.5378 24.3642L48.0625 24.2572L47.5872 24.1501L47.1119 24.0966L46.6366 24.043H46.1612H45.6859L45.2106 24.0966L44.7353 24.1501L44.26 24.2572L43.7846 24.3642L43.3093 24.5248L42.834 24.6854L42.3059 24.8461L41.8834 25.0067L41.4608 25.2208L41.0383 25.4349L40.6158 25.7026L40.299 26.0238L39.9293 26.2915L39.5596 26.6127L39.2427 26.9339L38.9258 27.2551L38.6089 27.6299L38.3449 28.0046L38.0808 28.3794L37.8167 28.7541L37.6055 29.1824L37.3414 29.6642L37.1301 30.0925L36.9717 30.5208L36.8133 31.0026L36.6548 31.4844L36.5492 31.9662L36.4436 32.448L36.3908 32.9298V33.4116V33.4652L36.2851 33.4116H36.1267L36.0211 33.3581L35.9154 33.3046L35.8098 33.251L35.7042 33.1975H35.5986H35.4929H35.3873H35.2817H35.1761H35.0704H34.9648H34.8592H34.7535H34.6479H34.5423H34.3838H34.2254H34.067H33.9085H33.4332L32.9579 33.251L32.4826 33.3046L32.0072 33.4116H31.2679L30.7925 33.5187L30.3172 33.6793L29.8947 33.8399L29.4722 34.0541L29.0497 34.2682L28.6272 34.4823L28.2575 34.75L27.8878 35.0177L27.5181 35.2854L27.1484 35.6066L26.8315 35.9278L26.5147 36.249L26.1978 36.6237L25.9337 36.9985L25.6696 37.3732L25.4056 37.748L25.1943 38.1762L24.9831 38.6045L24.7718 39.0328L24.6134 39.4611L24.4549 39.9429L24.2965 40.4247L24.1909 40.9065L24.0852 41.3883L23.9796 41.9772L23.9268 42.459V42.9408V43.3691L23.9796 43.7974L24.0324 44.2257L24.0852 44.654L24.1909 45.0822L24.2965 45.5105L24.4021 45.9388L24.5606 46.3135L24.719 46.6883L24.8774 47.063L24.9831 47.4913L25.1943 47.8661L25.4056 48.2408L25.6168 48.562L25.8809 48.9368L26.145 49.258L26.409 49.5792L26.6731 49.9004L26.9372 50.1681L27.254 50.4357L27.5709 50.7034L27.8878 50.9711L28.2047 51.1852L28.5216 51.3994L28.9441 51.6135L29.3138 51.8276L29.6835 51.9883L30.0532 52.1489L30.3172 52.2559L30.2644 52.363L30.1588 52.5236L30.0532 52.7377L29.9475 52.9519L29.8419 53.166L29.7363 53.3802L29.6306 53.5943L29.525 53.8084L29.4194 54.0226L29.3138 54.2367L29.2609 54.4509L29.2081 54.5579L29.1553 54.7721L29.1025 54.9862L29.0497 55.2003L28.9969 55.4145L28.9441 55.6286L28.8913 55.8428L28.8384 56.0569L28.7856 56.271L28.7328 56.4852V56.6993V56.9135V57.1276V57.3417V57.5559V58.0377L28.7856 58.5195L28.8384 59.0013L28.8913 59.6437L28.9969 60.1256L29.1553 60.6074L29.3138 61.0892L29.4722 61.5175L29.6835 61.9457L29.8947 62.374L30.106 62.8023L30.37 63.177L30.6341 63.5518L30.8982 63.9265L31.215 64.3013L31.5319 64.6225L31.8488 64.9437L32.2185 65.2649L32.5882 65.5326L32.9579 65.8003L33.3276 66.0679L33.7501 66.2821L34.1726 66.4962L34.5951 66.7103L35.0176 66.871L35.5457 67.1386L36.0211 67.2992L36.4964 67.4063L36.9717 67.5134L37.447 67.5669L37.9223 67.6204H38.3977H38.7145H39.0314L39.3483 67.5669L39.6652 67.5134L39.9821 67.4598L40.299 67.4063L40.6158 67.3528L40.9327 67.2457L41.2496 67.1386L41.5665 67.0316L41.8834 66.9245L42.2002 66.8174L42.5171 66.7103L42.7812 66.5497L43.0452 66.3891L43.3093 66.2285L43.5734 66.0679L43.8375 65.9073L44.1015 65.7467L44.3656 65.5326L44.6297 65.3184L44.8937 65.1043L45.105 64.8902L45.3162 64.676L45.5275 64.4619L45.7387 64.2477L45.95 63.9801L46.0556 63.873L46.1612 63.9801L46.3725 64.2477L46.5837 64.5154L46.795 64.7296L47.0063 64.9437L47.2175 65.1578L47.4816 65.372L47.7456 65.5861L48.0097 65.8003L48.2738 66.0144L48.5378 66.175L48.8019 66.3356L49.066 66.4962L49.33 66.6568L49.5941 66.8174L49.911 66.978L50.2279 67.0851L50.5448 67.1922L50.8616 67.2992L51.1785 67.4063L51.4954 67.5134L51.8123 67.5669L52.1292 67.6204L52.446 67.674L52.7629 67.7275L53.0798 67.781H53.3967H53.7664H54.2417L54.717 67.7275L55.1923 67.674L55.6677 67.5669L56.143 67.4598L56.6183 67.2992L57.0936 67.1386L57.5161 66.978L57.9386 66.7639L58.3611 66.5497L58.7836 66.3356L59.1533 66.0679L59.523 65.8003L59.8927 65.5326L60.2624 65.2114L60.5793 64.8902L60.8962 64.5689L61.2131 64.1942L61.4771 63.8195L61.7412 63.4447L62.0053 63.07L62.2165 62.6417L62.4278 62.2134L62.639 61.7851L62.7975 61.3569L62.9559 60.875L63.1143 60.3932L63.22 59.9114L63.3256 59.4296L63.3784 58.9478L63.4312 58.466V57.9842V57.7165V57.5023V57.2882V57.0741V56.8599L63.5368 56.3246L63.484 56.1104L63.4312 55.8963L63.3784 55.6822L63.3256 55.468L63.2728 55.2539L63.22 55.0397L63.1672 54.8256L63.1143 54.6115L63.0087 54.3438L62.9559 54.1296L62.8503 53.9155L62.7446 53.7014L62.639 53.4872L62.5334 53.2731L62.4806 53.1125L62.375 52.8983L62.2693 52.6842L62.1637 52.4701L62.0581 52.3095L62.0053 52.2024L62.2693 52.0953L62.639 51.9347L63.0087 51.7741L63.3784 51.56L63.7481 51.3458L64.065 51.1317L64.3819 50.9176L64.6987 50.6499L65.0156 50.3822L65.3325 50.1145L65.5966 49.8469L65.8606 49.5256L66.1247 49.2044L66.3888 48.8832L66.6 48.562L66.8113 48.2408L67.0225 47.8661L67.2338 47.4913L67.3922 47.1166L67.5507 46.7418L67.7091 46.3671L67.8675 45.9923L67.9732 45.5641L68.0788 45.1358L68.1844 44.7075L68.2372 44.2792L68.2901 43.8509L68.3429 43.4227V42.9944V42.5126L68.2372 41.9772ZM60.4209 51.7741C61.794 53.3802 62.6918 55.468 62.6918 57.7165C62.6918 62.6417 58.7308 66.6568 53.872 66.6568C50.5448 66.6568 47.6928 64.7831 46.1612 62.0528C44.6297 64.7296 41.7777 66.6033 38.5033 66.6033C33.6445 66.6033 29.6835 62.5882 29.6835 57.6629C29.6835 55.4145 30.5285 53.3266 31.9016 51.7741C27.835 50.864 24.8246 47.2772 24.8246 42.9944C24.8246 38.0692 28.7856 34.0541 33.6445 34.0541C34.912 34.0541 36.1795 34.3217 37.2886 34.8571C37.2358 34.5894 37.2358 34.2682 37.2358 34.0005C37.2358 29.0753 41.1968 25.0602 46.0556 25.0602C50.9144 25.0602 54.8755 29.0753 54.8755 34.0005C54.8755 34.3217 54.8755 34.5894 54.8226 34.8571C55.9317 34.3753 57.1464 34.0541 58.4139 34.0541C63.2728 34.0541 67.2338 38.0692 67.2338 42.9944C67.3922 47.2772 64.3819 50.864 60.4209 51.7741Z" fill="white"/>
<path d="M50.4392 33.4116H41.7778V42.1913H33.1692V50.971H41.7778V59.6972H50.4392V50.971H59.0478V42.1913H50.4392V33.4116Z" fill="white"/>
</svg>
