<svg width="92" height="92" viewBox="0 0 92 92" fill="none" xmlns="http://www.w3.org/2000/svg">
<path d="M37.3568 67.6982H31.5953C30.8511 67.6982 30.2477 68.3016 30.2477 69.0458C30.2477 69.7903 30.8511 70.3935 31.5953 70.3935H37.3568C38.1011 70.3935 38.7044 69.7903 38.7044 69.0458C38.7046 68.3017 38.1012 67.6982 37.3568 67.6982Z" fill="black"/>
<path d="M71.2002 51.2031L62.7785 47.9546L58.4752 43.6512C58.1895 43.3655 57.8057 43.2344 57.4296 43.2602V39.5894C59.4635 37.4413 60.908 34.7079 61.4743 31.6238C61.4819 31.5961 61.527 31.5506 61.5581 31.538C61.9342 31.5639 62.3147 31.5382 62.6901 31.4615C64.6496 31.0604 66.072 29.239 66.072 27.1305V26.008C66.072 24.7493 65.5457 23.5972 64.6949 22.7934C66.0802 15.4 64.9836 9.38289 61.5103 5.37175C58.1721 1.51747 52.7831 -0.323956 45.9264 0.0467372C39.4901 0.39461 35.379 3.39232 34.1581 4.41078C32.4428 4.62479 27.367 5.85582 27.367 12.9155C27.367 16.9098 28.0275 20.2169 28.4753 22.0008C26.9562 22.6673 25.9266 24.2279 25.9266 26.0251V27.1307C25.9266 29.239 27.349 31.0604 29.3085 31.4617C29.6839 31.5386 30.0648 31.5643 30.4405 31.5382C30.4714 31.5508 30.5167 31.5961 30.5239 31.6225C31.0904 34.7072 32.5351 37.4409 34.569 39.5893V43.2602C34.1927 43.2344 33.8089 43.3657 33.5234 43.6512L29.2203 47.9544L20.7985 51.2029C16.8072 52.7425 14.2404 56.6489 14.4118 60.9234L15.6045 90.7057C15.6336 91.4311 16.2307 91.9995 16.9502 91.9995C16.9685 91.9995 16.9869 91.9991 17.0052 91.9984C17.7489 91.9686 18.3275 91.3416 18.2979 90.5979L17.1051 60.8156C17.0701 59.9422 17.1919 59.0899 17.449 58.2905L22.35 63.1914C23.7278 64.5693 24.4866 66.4012 24.4866 68.3497V90.652C24.4866 91.3963 25.09 91.9997 25.8343 91.9997C26.5785 91.9997 27.1819 91.3963 27.1819 90.652V68.3493C27.1819 65.681 26.1428 63.1722 24.2559 61.2853L18.8053 55.8349C19.5805 54.9106 20.5894 54.1726 21.7689 53.7176L29.693 50.6612L35.7273 59.7127C36.4327 60.7711 37.5633 61.4497 38.829 61.575C38.9699 61.589 39.1104 61.5958 39.2502 61.5958C40.103 61.5958 40.9281 61.3385 41.6267 60.8613L40.3323 90.5931C40.2999 91.3366 40.8764 91.9657 41.6201 91.998C41.64 91.9989 41.66 91.9993 41.6797 91.9993C42.397 91.9993 42.9936 91.434 43.025 90.7102L44.2212 63.2365H47.7786L48.9748 90.7102C49.0063 91.4338 49.6028 91.9993 50.3201 91.9993C50.3399 91.9993 50.3598 91.9989 50.3798 91.998C51.1233 91.9655 51.6999 91.3366 51.6676 90.5931L50.3731 60.8616C51.0716 61.339 51.8967 61.5962 52.7497 61.5962C52.8895 61.5962 53.0302 61.5892 53.1709 61.5753C54.4364 61.4501 55.567 60.7712 56.2726 59.7131L62.3068 50.6615L70.231 53.718C71.4105 54.173 72.4194 54.9111 73.1946 55.8352L67.744 61.2857C65.8571 63.1726 64.818 65.6813 64.818 68.3497V90.652C64.818 91.3963 65.4213 91.9997 66.1656 91.9997C66.9099 91.9997 67.5132 91.3963 67.5132 90.652V68.3497C67.5132 66.4012 68.2721 64.5693 69.6499 63.1914L74.5508 58.2905C74.808 59.0899 74.9298 59.9422 74.8948 60.8156L73.7022 90.5979C73.6724 91.3416 74.2511 91.9686 74.9949 91.9984C75.0134 91.9991 75.0315 91.9995 75.0498 91.9995C75.7691 91.9995 76.3664 91.4311 76.3955 90.7057L77.5883 60.9236C77.7584 56.649 75.1916 52.7427 71.2002 51.2031ZM33.1739 31.1352C32.9204 29.7518 31.641 28.7479 30.2596 28.8489C30.1252 28.8587 29.987 28.8492 29.8486 28.821C29.1489 28.6778 28.6214 27.9511 28.6214 27.1307V26.0251C28.6214 25.2072 29.1567 24.4963 29.8666 24.3716C30.4517 24.269 31.0137 24.4845 31.3693 24.948C31.6274 25.2846 31.9709 25.525 32.363 25.6436C32.9373 25.817 33.5707 25.7153 34.0573 25.3717C35.236 24.5398 36.2352 23.4843 37.0269 22.2348C37.4253 21.6061 37.2388 20.7736 36.6101 20.375C35.9813 19.9767 35.1487 20.1634 34.7503 20.7919C34.2686 21.552 33.6882 22.2161 33.0201 22.7728C32.5026 22.2944 31.8778 21.9593 31.2049 21.7866C30.815 20.3337 30.0617 16.9982 30.0617 12.9157C30.0617 7.29295 34.2481 7.06834 34.7156 7.06134C35.0639 7.06134 35.3984 6.92657 35.6495 6.68525C35.6868 6.6495 39.4565 3.09566 46.0713 2.73808C52.0654 2.41429 56.6995 3.93497 59.4719 7.13645C62.2946 10.3958 63.2151 15.4054 62.1572 21.668C61.672 21.635 61.1179 21.6715 60.5714 21.7748L59.0657 18.1589C58.8073 17.5385 58.1298 17.2037 57.4803 17.3734C57.3363 17.4109 43.0004 21.0476 36.9597 13.5275C36.4938 12.9473 35.6457 12.8546 35.0651 13.3207C34.4849 13.7868 34.3922 14.6351 34.8585 15.2153C40.9615 22.8137 53.189 21.0273 57.0136 20.2426L58.1929 23.0741C58.6373 24.1416 59.774 24.7247 60.8958 24.4606C61.3913 24.3439 61.9011 24.3294 62.1295 24.3747C62.8401 24.5161 63.376 25.2181 63.376 26.0078V27.1303C63.376 27.9508 62.8484 28.6774 62.1487 28.8206C62.0103 28.849 61.8724 28.8582 61.7379 28.8485C60.3599 28.7472 59.0771 29.7514 58.8231 31.1352C57.6864 37.3239 52.2929 41.8159 45.9985 41.8159C39.7043 41.8159 34.3108 37.3239 33.1739 31.1352ZM40.329 58.4513C40.0031 58.7774 39.5533 58.9386 39.0939 58.893C38.6349 58.8475 38.2251 58.6013 37.9692 58.2177L31.889 49.0972L34.5374 46.4488L44.0275 54.7526L40.329 58.4513ZM44.3378 60.5414L44.4419 58.1501L45.9992 56.5928L47.5564 58.1501L47.6604 60.5414H44.3378ZM45.9992 52.8965L37.2641 45.2533V41.8619C39.7792 43.5418 42.7913 44.5118 45.9992 44.5118C49.2072 44.5118 52.2192 43.5418 54.7343 41.8621V45.2533L45.9992 52.8965ZM54.029 58.2177C53.7732 58.6013 53.3633 58.8475 52.9044 58.893C52.4449 58.9388 51.9954 58.7772 51.6692 58.4513L47.9707 54.7526L57.4609 46.4488L60.1093 49.0972L54.029 58.2177Z" fill="black"/>
</svg>
