<svg width="16" height="16" viewBox="0 0 16 16" fill="none" xmlns="http://www.w3.org/2000/svg">
<path d="M8.01038 16C6.63171 16 5.51038 14.8787 5.51038 13.5C5.51038 13.224 5.73438 13 6.01038 13C6.28638 13 6.51038 13.224 6.51038 13.5C6.51038 14.3274 7.18311 15 8.01038 15C8.83777 15 9.51038 14.3274 9.51038 13.5C9.51038 13.224 9.73438 13 10.0104 13C10.2864 13 10.5104 13.224 10.5104 13.5C10.5104 14.8787 9.38904 16 8.01038 16Z" fill="black"/>
<path d="M13.5104 14H2.51038C1.86707 14 1.34375 13.4767 1.34375 12.8334C1.34375 12.4919 1.49243 12.1687 1.75171 11.9467C2.76575 11.09 3.34375 9.84473 3.34375 8.52539V6.66663C3.34375 4.09338 5.43713 2 8.01038 2C10.5837 2 12.6771 4.09338 12.6771 6.66663V8.52539C12.6771 9.84473 13.2551 11.09 14.2625 11.942C14.5284 12.1687 14.6771 12.4919 14.6771 12.8334C14.6771 13.4767 14.1538 14 13.5104 14ZM8.01038 3C5.9884 3 4.34375 4.64465 4.34375 6.66663V8.52539C4.34375 10.1393 3.63647 11.6633 2.40381 12.7053C2.38037 12.7253 2.34375 12.7667 2.34375 12.8334C2.34375 12.924 2.4198 13 2.51038 13H13.5104C13.6011 13 13.6771 12.924 13.6771 12.8334C13.6771 12.7667 13.6404 12.7253 13.6184 12.7067C12.3844 11.6633 11.6771 10.1393 11.6771 8.52539V6.66663C11.6771 4.64465 10.0325 3 8.01038 3Z" fill="black"/>
<path d="M8.01038 3C7.73438 3 7.51038 2.776 7.51038 2.5V0.5C7.51038 0.223999 7.73438 0 8.01038 0C8.28638 0 8.51038 0.223999 8.51038 0.5V2.5C8.51038 2.776 8.28638 3 8.01038 3Z" fill="black"/>
</svg>
