<svg width="46" height="46" viewBox="0 0 46 46" fill="none" xmlns="http://www.w3.org/2000/svg">
<path d="M28.305 32.4954H25.7834C25.4112 32.4954 25.1095 32.7971 25.1095 33.1692C25.1095 33.5414 25.4112 33.843 25.7834 33.843H28.305C28.6772 33.843 28.9789 33.5414 28.9789 33.1692C28.9789 32.7971 28.6772 32.4954 28.305 32.4954Z" fill="#131927"/>
<path d="M43.1474 25.2816L39.4781 23.8663L37.6073 21.9955C37.4872 21.8754 37.3324 21.8103 37.1742 21.8002V20.3115C38.056 19.3714 38.6836 18.1809 38.9369 16.8397C39.0941 16.8468 39.2529 16.8341 39.4095 16.8021C40.306 16.6186 40.9568 15.7867 40.9568 14.8243V14.3329C40.9568 13.7762 40.731 13.2651 40.3633 12.8997C40.9584 9.66356 40.4683 7.02628 38.9397 5.26111C37.4611 3.5538 35.079 2.73775 32.0512 2.90154C29.2538 3.05274 27.4479 4.33985 26.8758 4.81072C26.5626 4.84792 26.0291 4.95789 25.4891 5.28187C24.7407 5.73091 23.8487 6.67418 23.8487 8.61778C23.8487 10.3133 24.1196 11.7289 24.3158 12.532C23.6582 12.8524 23.2182 13.5467 23.2182 14.3405V14.8242C23.2182 15.7866 23.869 16.6185 24.7655 16.802C24.9221 16.8341 25.081 16.8467 25.2381 16.8396C25.4914 18.1808 26.1191 19.3713 27.0007 20.3114V21.8001C26.8426 21.8102 26.6877 21.8753 26.5677 21.9954L24.6969 23.8662L21.0276 25.2815C20.7101 25.4039 20.4069 25.5626 20.1264 25.7532C19.8186 25.9624 19.7387 26.3814 19.9477 26.6892C20.0781 26.8811 20.29 26.9844 20.5056 26.9844C20.636 26.9844 20.7677 26.9466 20.8837 26.8679C21.0793 26.735 21.2909 26.6243 21.5125 26.5388L24.9179 25.2253L27.5216 29.1309C27.8443 29.6151 28.3616 29.9256 28.9407 29.983C29.0051 29.9893 29.0695 29.9925 29.1335 29.9925C29.4687 29.9925 29.7939 29.9044 30.0818 29.7415L29.523 42.4156C29.5066 42.7874 29.7947 43.1021 30.1666 43.1184C30.1766 43.1189 30.1867 43.1191 30.1968 43.1191C30.5552 43.1191 30.8535 42.8365 30.8694 42.4749L31.388 30.7106H32.7869L33.3055 42.4749C33.3214 42.8366 33.6196 43.1191 33.9781 43.1191C33.9882 43.1191 33.9983 43.1189 34.0083 43.1184C34.3801 43.1021 34.6682 42.7874 34.6519 42.4156L34.0931 29.7415C34.381 29.9044 34.7061 29.9925 35.0414 29.9925C35.1054 29.9925 35.1698 29.9893 35.2342 29.983C35.8133 29.9256 36.3305 29.6151 36.6533 29.1309L39.257 25.2253L42.6624 26.5388C43.14 26.723 43.5511 27.0169 43.8744 27.3835L41.5446 29.7133C40.7029 30.555 40.2394 31.6741 40.2394 32.8644V42.4453C40.2394 42.8175 40.5411 43.1192 40.9132 43.1192C41.2853 43.1192 41.587 42.8175 41.587 42.4453V32.8644C41.587 32.0341 41.9104 31.2534 42.4975 30.6662L44.5422 28.6216C44.6243 28.9228 44.6627 29.2395 44.6497 29.5633L44.1278 42.418C44.1127 42.7899 44.4019 43.1035 44.7737 43.1187C44.783 43.1191 44.7923 43.1193 44.8016 43.1193C45.161 43.1193 45.4597 42.8353 45.4743 42.4728L45.9964 29.6178C46.0728 27.7109 44.928 25.9684 43.1474 25.2816ZM26.5572 16.5618C26.4383 15.9148 25.8392 15.4446 25.1926 15.4925C25.1415 15.4962 25.0889 15.4926 25.0359 15.4818C24.7679 15.427 24.5659 15.1442 24.5659 14.8243V14.3404C24.5659 14.0278 24.7748 13.7463 25.0413 13.6994C25.2663 13.6599 25.4818 13.7425 25.618 13.9203C25.7418 14.0816 25.9068 14.1969 26.0952 14.2537C26.3712 14.3371 26.6755 14.2881 26.9095 14.123C27.3308 13.8255 27.7026 13.4621 28.0145 13.0427C28.2366 12.744 28.1744 12.322 27.8758 12.1C27.5771 11.8779 27.1551 11.9399 26.933 12.2386C26.7775 12.4477 26.6017 12.6376 26.4083 12.8056C26.1947 12.6228 25.9451 12.4908 25.6776 12.4154C25.5045 11.7522 25.1963 10.3313 25.1963 8.6176C25.1963 7.58556 25.5145 6.86043 26.1418 6.46242C26.6314 6.15183 27.1495 6.13943 27.1492 6.13934C27.3214 6.13934 27.489 6.07151 27.6141 5.95318C27.6306 5.93773 29.287 4.4005 32.1237 4.24713C34.7204 4.10697 36.725 4.76248 37.9208 6.1432C39.1259 7.53489 39.5273 9.67147 39.0919 12.3457C38.9114 12.3393 38.7138 12.353 38.5171 12.3857L37.8841 10.8654C37.7549 10.5553 37.4165 10.3878 37.0915 10.4725C37.0289 10.4889 30.8062 12.0664 28.197 8.81795C27.9641 8.52784 27.54 8.48148 27.2497 8.71454C26.9596 8.9476 26.9132 9.37166 27.1464 9.66186C29.8108 12.9791 35.0976 12.2575 36.8575 11.9055L37.347 13.0811C37.5575 13.5865 38.096 13.8625 38.6268 13.7374C38.8447 13.6861 39.0529 13.6849 39.131 13.7003C39.4035 13.7546 39.609 14.0264 39.609 14.3328V14.8242C39.609 15.1442 39.407 15.4269 39.139 15.4817C39.0861 15.4926 39.0332 15.4962 38.9823 15.4924C38.3357 15.4453 37.7367 15.9146 37.6177 16.5618C37.1275 19.2305 34.8017 21.1676 32.0874 21.1676C29.3732 21.1676 27.0474 19.2305 26.5572 16.5618ZM29.5464 28.473C29.3755 28.6438 29.1769 28.6522 29.0735 28.642C28.9703 28.6318 28.7771 28.5845 28.643 28.3835L26.02 24.449L27.0749 23.3942L31.1017 26.9177L29.5464 28.473ZM31.4474 29.363L31.4882 28.4369L32.0874 27.8378L32.6865 28.4369L32.7273 29.363H31.4474ZM32.0874 25.9894L28.3484 22.7177V21.4281C29.4355 22.1195 30.7217 22.5152 32.0874 22.5152C33.4532 22.5152 34.7395 22.1195 35.8266 21.4281V22.7177L32.0874 25.9894ZM35.5321 28.3835C35.3979 28.5846 35.2047 28.6318 35.1015 28.642C34.9981 28.6522 34.7995 28.6438 34.6286 28.4729L33.0733 26.9176L37.1001 23.3941L38.155 24.4489L35.5321 28.3835Z" fill="#131927"/>
<path d="M21.369 28.8129L18.0787 27.3768L16.2801 25.5782C16.1596 25.4576 16.0047 25.3929 15.8471 25.3828V24.3228C17.3842 23.3127 18.5091 21.7062 18.8705 19.7918C19.0475 19.7998 19.2262 19.7828 19.4023 19.7412C20.2645 19.5371 20.8903 18.7108 20.8903 17.7765V17.2852C20.8903 16.6026 20.5516 15.9885 20.0268 15.6282C20.1811 15.0167 20.2598 14.3911 20.2598 13.7614C20.2598 10.9698 18.7508 8.51094 16.4762 7.09913C16.452 4.7692 14.4633 2.88068 12.0211 2.88068C9.57882 2.88068 7.59012 4.7692 7.56586 7.09913C5.29137 8.51094 3.78235 10.9699 3.78235 13.7614C3.78235 14.3893 3.86051 15.013 4.01397 15.6228C3.48946 15.9813 3.15191 16.5983 3.15191 17.2926V17.7765C3.15191 18.7108 3.77768 19.5371 4.63991 19.7412C4.816 19.7829 4.99461 19.7998 5.1717 19.7918C5.53314 21.7062 6.65808 23.3127 8.19522 24.3228V25.3828C8.03755 25.3929 7.88265 25.4576 7.76217 25.5782L5.96358 27.3768L2.6734 28.8129C0.999337 29.5437 -0.0734019 31.2608 0.00395388 33.0858L0.401873 42.4739C0.417237 42.836 0.715609 43.1192 1.07463 43.1192C1.08424 43.1192 1.09394 43.1191 1.10365 43.1186C1.47551 43.1029 1.76409 42.7887 1.74837 42.4168L1.35036 33.0287C1.32475 32.4238 1.48198 31.8368 1.77757 31.3316L3.54615 33.4539C4.10507 34.1246 4.41278 34.9747 4.41278 35.8476V42.4454C4.41278 42.8175 4.71448 43.1192 5.08661 43.1192C5.45875 43.1192 5.76045 42.8175 5.76045 42.4454V35.8476C5.76045 34.6601 5.34168 33.5036 4.58142 32.5912L2.70125 30.335C2.86109 30.2248 3.03098 30.1272 3.21256 30.048L6.08002 28.7963L8.10637 32.0854C8.30645 32.4102 8.63725 32.6304 9.01406 32.6897C9.0818 32.7004 9.14972 32.7056 9.21738 32.7056C9.52545 32.7056 9.82553 32.5964 10.0634 32.3934L11.3475 31.2977V42.4453C11.3475 42.8175 11.6492 43.1192 12.0213 43.1192C12.3935 43.1192 12.6952 42.8175 12.6952 42.4453V31.2979L13.9791 32.3936C14.217 32.5966 14.5171 32.7058 14.8252 32.7058C14.8927 32.7058 14.9608 32.7005 15.0285 32.6899C15.4053 32.6306 15.7361 32.4104 15.9362 32.0856L17.9625 28.7964L20.83 30.0481C21.0115 30.1273 21.1815 30.2249 21.3413 30.3351L19.4611 32.5913C18.7009 33.5036 18.2821 34.6601 18.2821 35.8477V42.4455C18.2821 42.8176 18.5838 43.1193 18.9559 43.1193C19.3281 43.1193 19.6298 42.8176 19.6298 42.4455V35.8477C19.6298 34.9748 19.9376 34.1247 20.4964 33.454L22.265 31.3317C22.5606 31.8369 22.7178 32.4238 22.6922 33.0288L22.2943 42.4169C22.2786 42.7887 22.5671 43.1029 22.939 43.1187C22.9487 43.1192 22.9583 43.1193 22.968 43.1193C23.327 43.1193 23.6254 42.8361 23.6408 42.474L24.0387 33.0859C24.116 31.2609 23.0431 29.5437 21.369 28.8129ZM12.0212 4.22834C13.4548 4.22834 14.6643 5.14286 15.0219 6.38199C14.0917 6.03088 13.0795 5.8378 12.0212 5.8378C10.963 5.8378 9.95078 6.03088 9.02053 6.38199C9.3782 5.14286 10.5876 4.22834 12.0212 4.22834ZM6.49088 19.5141C6.3721 18.867 5.77204 18.3969 5.12642 18.4447C5.06918 18.4488 5.01007 18.4439 4.95041 18.4297C4.69346 18.3689 4.49966 18.088 4.49966 17.7765V17.2926C4.49966 16.98 4.70855 16.6984 4.97512 16.6516C5.20009 16.6121 5.41544 16.6947 5.55165 16.8724C5.67536 17.0337 5.84041 17.1491 6.02899 17.206C6.3049 17.2894 6.60938 17.2405 6.84316 17.0752C7.25815 16.7823 7.62507 16.4253 7.93377 16.0142C8.15722 15.7166 8.09711 15.2942 7.79955 15.0708C7.50189 14.8474 7.07954 14.9075 6.85609 15.205C6.70327 15.4085 6.53122 15.5935 6.34201 15.7579C6.0537 15.5113 5.70016 15.357 5.32515 15.3102C5.19604 14.8026 5.13001 14.2836 5.13001 13.7615C5.13001 10.1356 8.22136 7.18556 12.0212 7.18556C15.821 7.18556 18.9124 10.1355 18.9124 13.7615C18.9124 14.2826 18.8467 14.8006 18.718 15.3072C18.5407 15.3213 18.3605 15.3503 18.1936 15.3936L17.6871 14.9771C17.4325 14.7678 17.1122 14.663 16.7879 14.6823C15.7975 14.7408 10.7251 14.8748 8.12263 11.7602C7.884 11.4747 7.45913 11.4366 7.17351 11.6752C6.8879 11.9139 6.8499 12.3388 7.08852 12.6244C8.37204 14.1604 10.2545 15.1991 12.6837 15.7116C14.5435 16.1039 16.1968 16.0658 16.8446 16.0289L17.6349 16.6788C17.8524 16.8576 18.1574 16.8829 18.401 16.7411C18.5153 16.6788 18.898 16.6194 19.065 16.6527C19.3375 16.7069 19.5429 16.9787 19.5429 17.2852V17.7765C19.5429 18.0881 19.3491 18.369 19.0921 18.4297C19.0326 18.4438 18.9734 18.449 18.9161 18.4446C18.2709 18.3977 17.6705 18.867 17.5516 19.5141C17.0614 22.1829 14.7356 24.1199 12.0213 24.1199C9.30695 24.1199 6.98107 22.1829 6.49088 19.5141ZM9.22717 31.3355L7.20047 28.0457L8.23871 27.0075L11.0291 29.7979L9.22717 31.3355ZM12.0212 28.8841L9.54297 26.4058V25.0118C10.3166 25.3063 11.1526 25.4676 12.0212 25.4676C12.8898 25.4676 13.7258 25.3063 14.4995 25.0119V26.4058L12.0212 28.8841ZM14.8153 31.3355L13.0134 29.7979L15.8038 27.0075L16.842 28.0457L14.8153 31.3355Z" fill="#131927"/>
<path d="M9.49958 35.4674H7.60836C7.23622 35.4674 6.93452 35.7691 6.93452 36.1412C6.93452 36.5134 7.23622 36.8151 7.60836 36.8151H9.49958C9.87171 36.8151 10.1734 36.5134 10.1734 36.1412C10.1734 35.7691 9.87171 35.4674 9.49958 35.4674Z" fill="#131927"/>
</svg>
