<svg width="28" height="28" viewBox="0 0 28 28" fill="none" xmlns="http://www.w3.org/2000/svg">
<path d="M27.75 14C27.75 21.5939 21.5939 27.75 14 27.75C6.40608 27.75 0.25 21.5939 0.25 14C0.25 6.40608 6.40608 0.25 14 0.25C21.5939 0.25 27.75 6.40608 27.75 14Z" fill="#131927"/>
<path d="M27.75 14C27.75 21.5939 21.5939 27.75 14 27.75C6.40608 27.75 0.25 21.5939 0.25 14C0.25 6.40608 6.40608 0.25 14 0.25C21.5939 0.25 27.75 6.40608 27.75 14Z" stroke="url(#paint0_linear)" stroke-width="0.5"/>
<path d="M27.75 14C27.75 21.5939 21.5939 27.75 14 27.75C6.40608 27.75 0.25 21.5939 0.25 14C0.25 6.40608 6.40608 0.25 14 0.25C21.5939 0.25 27.75 6.40608 27.75 14Z" stroke="url(#paint1_linear)" stroke-width="0.5"/>
<path d="M8.90822 13.9496H6.99963L9.54537 16.4953L12.0911 13.9496H10.1811C10.1811 11.8439 11.8925 10.131 13.9997 10.131C14.6425 10.131 15.254 10.2896 15.7811 10.5767L16.7097 9.64812C15.9283 9.15098 14.9983 8.85812 13.9997 8.85812C11.1868 8.85812 8.90822 11.1367 8.90822 13.9496ZM17.8183 13.9496C17.8183 16.0553 16.1068 17.7682 13.9997 17.7682C13.3568 17.7682 12.7454 17.6096 12.2182 17.3225L11.2897 18.251C12.0725 18.7468 13.0011 19.0396 14.0011 19.0396C16.814 19.0396 19.0926 16.761 19.0926 13.9482H20.9997L18.454 11.4038L15.9083 13.9496H17.8183Z" fill="white"/>
<defs>
<linearGradient id="paint0_linear" x1="0.136997" y1="0" x2="0.136997" y2="27.726" gradientUnits="userSpaceOnUse">
<stop stop-opacity="0"/>
<stop offset="0.8" stop-opacity="0.02"/>
<stop offset="1" stop-opacity="0.04"/>
</linearGradient>
<linearGradient id="paint1_linear" x1="0" y1="0" x2="0" y2="28" gradientUnits="userSpaceOnUse">
<stop stop-color="white" stop-opacity="0.12"/>
<stop offset="0.2" stop-color="white" stop-opacity="0.06"/>
<stop offset="1" stop-color="white" stop-opacity="0"/>
</linearGradient>
</defs>
</svg>
