<?xml version="1.0" encoding="utf-8"?>
<!-- Generator: Adobe Illustrator 23.0.4, SVG Export Plug-In . SVG Version: 6.00 Build 0)  -->
<svg version="1.1" id="Layer_1" xmlns="http://www.w3.org/2000/svg" xmlns:xlink="http://www.w3.org/1999/xlink" x="0px" y="0px"
	 viewBox="0 0 28 28" style="enable-background:new 0 0 28 28;" xml:space="preserve">
<style type="text/css">
	.st0{fill:#131927;}
	.st1{fill:none;stroke:url(#SVGID_1_);stroke-width:0.5;}
	.st2{fill:none;stroke:url(#SVGID_2_);stroke-width:0.5;}
	.st3{fill:#FFFFFF;}
</style>
<path class="st0" d="M27.8,14c0,7.6-6.2,13.8-13.8,13.8C6.4,27.8,0.2,21.6,0.2,14C0.2,6.4,6.4,0.2,14,0.2C21.6,0.2,27.8,6.4,27.8,14
	z"/>
<linearGradient id="SVGID_1_" gradientUnits="userSpaceOnUse" x1="14" y1="30" x2="14" y2="2.274" gradientTransform="matrix(1 0 0 -1 0 30)">
	<stop  offset="0" style="stop-color:#000000;stop-opacity:0"/>
	<stop  offset="0.8" style="stop-color:#000000;stop-opacity:2.000000e-02"/>
	<stop  offset="1" style="stop-color:#000000;stop-opacity:4.000000e-02"/>
</linearGradient>
<path class="st1" d="M27.8,14c0,7.6-6.2,13.8-13.8,13.8C6.4,27.8,0.2,21.6,0.2,14C0.2,6.4,6.4,0.2,14,0.2C21.6,0.2,27.8,6.4,27.8,14
	z"/>
<linearGradient id="SVGID_2_" gradientUnits="userSpaceOnUse" x1="14" y1="30" x2="14" y2="2" gradientTransform="matrix(1 0 0 -1 0 30)">
	<stop  offset="0" style="stop-color:#FFFFFF;stop-opacity:0.12"/>
	<stop  offset="0.2" style="stop-color:#FFFFFF;stop-opacity:6.000000e-02"/>
	<stop  offset="1" style="stop-color:#FFFFFF;stop-opacity:0"/>
</linearGradient>
<path class="st2" d="M27.8,14c0,7.6-6.2,13.8-13.8,13.8C6.4,27.8,0.2,21.6,0.2,14C0.2,6.4,6.4,0.2,14,0.2C21.6,0.2,27.8,6.4,27.8,14
	z"/>
<g>
	<path class="st3" d="M19.2,8.2h-0.6V7.6c0-0.3-0.3-0.6-0.6-0.6c-0.3,0-0.6,0.3-0.6,0.6v0.6h-2.9V7.6C14.6,7.3,14.3,7,14,7
		s-0.6,0.3-0.6,0.6v0.6h-2.9V7.6c0-0.3-0.3-0.6-0.6-0.6C9.6,7,9.3,7.3,9.3,7.6v0.6H8.8C7.8,8.2,7,9,7,9.9v7.6c0,1,0.8,1.8,1.8,1.8
		h5.8c0.3,0,0.6-0.3,0.6-0.6c0-0.3-0.3-0.6-0.6-0.6H8.8c-0.3,0-0.6-0.3-0.6-0.6v-5.2h11.7v0.6c0,0.3,0.3,0.6,0.6,0.6
		c0.3,0,0.6-0.3,0.6-0.6V9.9C21,9,20.2,8.2,19.2,8.2z"/>
	<path class="st3" d="M20.4,15.8h-1.7V14c0-0.3-0.3-0.6-0.6-0.6c-0.3,0-0.6,0.3-0.6,0.6v1.7h-1.7c-0.3,0-0.6,0.3-0.6,0.6
		c0,0.3,0.3,0.6,0.6,0.6h1.7v1.7c0,0.3,0.3,0.6,0.6,0.6c0.3,0,0.6-0.3,0.6-0.6v-1.7h1.7c0.3,0,0.6-0.3,0.6-0.6
		C21,16,20.7,15.8,20.4,15.8z"/>
</g>
</svg>
