<svg width="28" height="28" viewBox="0 0 28 28" fill="none" xmlns="http://www.w3.org/2000/svg">
<path d="M27.75 14C27.75 21.5939 21.5939 27.75 14 27.75C6.40608 27.75 0.25 21.5939 0.25 14C0.25 6.40608 6.40608 0.25 14 0.25C21.5939 0.25 27.75 6.40608 27.75 14Z" fill="#ED1C24"/>
<path d="M27.75 14C27.75 21.5939 21.5939 27.75 14 27.75C6.40608 27.75 0.25 21.5939 0.25 14C0.25 6.40608 6.40608 0.25 14 0.25C21.5939 0.25 27.75 6.40608 27.75 14Z" stroke="url(#paint0_linear)" stroke-width="0.5"/>
<path d="M27.75 14C27.75 21.5939 21.5939 27.75 14 27.75C6.40608 27.75 0.25 21.5939 0.25 14C0.25 6.40608 6.40608 0.25 14 0.25C21.5939 0.25 27.75 6.40608 27.75 14Z" stroke="url(#paint1_linear)" stroke-width="0.5"/>
<path d="M19.25 8.16667H18.6667V7.58333C18.6667 7.26119 18.4058 7 18.0833 7C17.7609 7 17.5 7.26119 17.5 7.58333V8.16667H14.5833V7.58333C14.5833 7.26119 14.3221 7 14 7C13.6779 7 13.4167 7.26119 13.4167 7.58333V8.16667H10.5V7.58333C10.5 7.26119 10.2388 7 9.91667 7C9.59452 7 9.33333 7.26119 9.33333 7.58333V8.16667H8.75C7.78499 8.16667 7 8.95166 7 9.91667V17.5C7 18.465 7.78499 19.25 8.75 19.25H11.6667C11.9888 19.25 12.25 18.9891 12.25 18.6667C12.25 18.3442 11.9888 18.0833 11.6667 18.0833H8.75C8.42843 18.0833 8.16667 17.8219 8.16667 17.5V12.25H19.8333V12.8333C19.8333 13.1555 20.0942 13.4167 20.4167 13.4167C20.7391 13.4167 21 13.1555 21 12.8333V9.91667C21 8.95166 20.215 8.16667 19.25 8.16667ZM8.16667 11.0833V9.91667C8.16667 9.59509 8.42843 9.33333 8.75 9.33333H9.33333V9.91667C9.33333 10.2388 9.59452 10.5 9.91667 10.5C10.2388 10.5 10.5 10.2388 10.5 9.91667V9.33333H13.4167V9.91667C13.4167 10.2388 13.6779 10.5 14 10.5C14.3221 10.5 14.5833 10.2388 14.5833 9.91667V9.33333H17.5V9.91667C17.5 10.2388 17.7609 10.5 18.0833 10.5C18.4058 10.5 18.6667 10.2388 18.6667 9.91667V9.33333H19.25C19.5719 9.33333 19.8333 9.59509 19.8333 9.91667V11.0833H8.16667Z" fill="white"/>
<path d="M17.7917 16.625V15.75C17.7917 15.4276 17.5308 15.1667 17.2083 15.1667C16.8859 15.1667 16.625 15.4276 16.625 15.75V16.625H15.75C15.4276 16.625 15.1667 16.8859 15.1667 17.2083C15.1667 17.5308 15.4276 17.7917 15.75 17.7917H16.625V18.6667C16.625 18.9891 16.8859 19.25 17.2083 19.25C17.5308 19.25 17.7917 18.9891 17.7917 18.6667V17.7917H18.6667C18.9891 17.7917 19.25 17.5308 19.25 17.2083C19.25 16.8859 18.9891 16.625 18.6667 16.625H17.7917Z" fill="white"/>
<path d="M17.2083 13.4167C15.1177 13.4167 13.4167 15.1177 13.4167 17.2083C13.4167 19.299 15.1177 21 17.2083 21C19.299 21 21 19.299 21 17.2083C21 15.1177 19.299 13.4167 17.2083 13.4167ZM17.2083 19.8333C15.7608 19.8333 14.5833 18.6558 14.5833 17.2083C14.5833 15.7608 15.7608 14.5833 17.2083 14.5833C18.6558 14.5833 19.8333 15.7608 19.8333 17.2083C19.8333 18.6558 18.6558 19.8333 17.2083 19.8333Z" fill="white"/>
<defs>
<linearGradient id="paint0_linear" x1="0.136997" y1="0" x2="0.136997" y2="27.726" gradientUnits="userSpaceOnUse">
<stop stop-opacity="0"/>
<stop offset="0.8" stop-opacity="0.02"/>
<stop offset="1" stop-opacity="0.04"/>
</linearGradient>
<linearGradient id="paint1_linear" x1="0" y1="0" x2="0" y2="28" gradientUnits="userSpaceOnUse">
<stop stop-color="white" stop-opacity="0.12"/>
<stop offset="0.2" stop-color="white" stop-opacity="0.06"/>
<stop offset="1" stop-color="white" stop-opacity="0"/>
</linearGradient>
</defs>
</svg>
