<?xml version="1.0" encoding="utf-8"?>
<!-- Generator: Adobe Illustrator 23.0.4, SVG Export Plug-In . SVG Version: 6.00 Build 0)  -->
<svg version="1.1" id="Layer_1" xmlns="http://www.w3.org/2000/svg" xmlns:xlink="http://www.w3.org/1999/xlink" x="0px" y="0px"
	 viewBox="0 0 28 28" style="enable-background:new 0 0 28 28;" xml:space="preserve">
<style type="text/css">
	.st0{opacity:0.5;}
	.st1{fill:#131927;}
	.st2{fill:none;stroke:url(#SVGID_1_);stroke-width:0.5;}
	.st3{fill:none;stroke:url(#SVGID_2_);stroke-width:0.5;}
	.st4{fill:#FFFFFF;}
</style>
<g class="st0">
	<path class="st1" d="M27.8,14c0,7.6-6.2,13.8-13.8,13.8C6.4,27.8,0.2,21.6,0.2,14C0.2,6.4,6.4,0.2,14,0.2
		C21.6,0.2,27.8,6.4,27.8,14z"/>
	
		<linearGradient id="SVGID_1_" gradientUnits="userSpaceOnUse" x1="14" y1="30" x2="14" y2="2.274" gradientTransform="matrix(1 0 0 -1 0 30)">
		<stop  offset="0" style="stop-color:#000000;stop-opacity:0"/>
		<stop  offset="0.8" style="stop-color:#000000;stop-opacity:2.000000e-02"/>
		<stop  offset="1" style="stop-color:#000000;stop-opacity:4.000000e-02"/>
	</linearGradient>
	<path class="st2" d="M27.8,14c0,7.6-6.2,13.8-13.8,13.8C6.4,27.8,0.2,21.6,0.2,14C0.2,6.4,6.4,0.2,14,0.2
		C21.6,0.2,27.8,6.4,27.8,14z"/>
	
		<linearGradient id="SVGID_2_" gradientUnits="userSpaceOnUse" x1="14" y1="30" x2="14" y2="2" gradientTransform="matrix(1 0 0 -1 0 30)">
		<stop  offset="0" style="stop-color:#FFFFFF;stop-opacity:0.12"/>
		<stop  offset="0.2" style="stop-color:#FFFFFF;stop-opacity:6.000000e-02"/>
		<stop  offset="1" style="stop-color:#FFFFFF;stop-opacity:0"/>
	</linearGradient>
	<path class="st3" d="M27.8,14c0,7.6-6.2,13.8-13.8,13.8C6.4,27.8,0.2,21.6,0.2,14C0.2,6.4,6.4,0.2,14,0.2
		C21.6,0.2,27.8,6.4,27.8,14z"/>
</g>
<path class="st4" d="M12.4,14.9H11c-0.4,0-0.7-0.3-0.7-0.7v0c0-0.4,0.3-0.7,0.7-0.7h1.4c0.4,0,0.7,0.3,0.7,0.7v0
	C13.2,14.6,12.8,14.9,12.4,14.9z M19,8.5H9C8.7,8.5,8.5,8.7,8.5,9v10.5c0,0.3,0.2,0.5,0.5,0.5h10c0.3,0,0.5-0.2,0.5-0.5V9
	C19.5,8.7,19.3,8.5,19,8.5z"/>
</svg>
