<?xml version="1.0" encoding="utf-8"?>
<!-- Generator: Adobe Illustrator 23.0.4, SVG Export Plug-In . SVG Version: 6.00 Build 0)  -->
<svg version="1.1" id="Layer_1" xmlns="http://www.w3.org/2000/svg" xmlns:xlink="http://www.w3.org/1999/xlink" x="0px" y="0px"
	 viewBox="0 0 28 28" style="enable-background:new 0 0 28 28;" xml:space="preserve">
<style type="text/css">
	.st0{fill:#ED1C24;}
	.st1{fill:none;stroke:url(#SVGID_1_);stroke-width:0.5;}
	.st2{fill:none;stroke:url(#SVGID_2_);stroke-width:0.5;}
	.st3{fill:#FFFFFF;}
</style>
<path class="st0" d="M27.8,14c0,7.6-6.2,13.8-13.8,13.8C6.4,27.8,0.2,21.6,0.2,14C0.2,6.4,6.4,0.2,14,0.2C21.6,0.2,27.8,6.4,27.8,14
	z"/>
<linearGradient id="SVGID_1_" gradientUnits="userSpaceOnUse" x1="14" y1="30" x2="14" y2="2.274" gradientTransform="matrix(1 0 0 -1 0 30)">
	<stop  offset="0" style="stop-color:#000000;stop-opacity:0"/>
	<stop  offset="0.8" style="stop-color:#000000;stop-opacity:2.000000e-02"/>
	<stop  offset="1" style="stop-color:#000000;stop-opacity:4.000000e-02"/>
</linearGradient>
<path class="st1" d="M27.8,14c0,7.6-6.2,13.8-13.8,13.8C6.4,27.8,0.2,21.6,0.2,14C0.2,6.4,6.4,0.2,14,0.2C21.6,0.2,27.8,6.4,27.8,14
	z"/>
<linearGradient id="SVGID_2_" gradientUnits="userSpaceOnUse" x1="14" y1="30" x2="14" y2="2" gradientTransform="matrix(1 0 0 -1 0 30)">
	<stop  offset="0" style="stop-color:#FFFFFF;stop-opacity:0.12"/>
	<stop  offset="0.2" style="stop-color:#FFFFFF;stop-opacity:6.000000e-02"/>
	<stop  offset="1" style="stop-color:#FFFFFF;stop-opacity:0"/>
</linearGradient>
<path class="st2" d="M27.8,14c0,7.6-6.2,13.8-13.8,13.8C6.4,27.8,0.2,21.6,0.2,14C0.2,6.4,6.4,0.2,14,0.2C21.6,0.2,27.8,6.4,27.8,14
	z"/>
<g>
	<path class="st3" d="M19,19.7H9c-0.3,0-0.5-0.2-0.5-0.5V8.8c0-0.3,0.2-0.5,0.5-0.5h10c0.3,0,0.5,0.2,0.5,0.5v10.5
		C19.5,19.5,19.3,19.7,19,19.7z M9.5,18.7h9V9.3h-9V18.7z"/>
	<path class="st3" d="M19.1,8.3L13,6.5c-0.2,0-0.3,0-0.4,0.1c-0.1,0.1-0.2,0.2-0.2,0.4v14c0,0.2,0.1,0.3,0.2,0.4
		c0.1,0.1,0.2,0.1,0.3,0.1c0,0,0.1,0,0.1,0l6.2-1.8c0.2-0.1,0.4-0.3,0.4-0.5V8.8C19.5,8.5,19.4,8.3,19.1,8.3z M15.5,15.1h-1.4
		c-0.4,0-0.7-0.3-0.7-0.7v0c0-0.4,0.3-0.7,0.7-0.7h1.4c0.4,0,0.7,0.3,0.7,0.7v0C16.2,14.8,15.9,15.1,15.5,15.1z"/>
</g>
</svg>
