<svg width="28" height="28" viewBox="0 0 28 28" fill="none" xmlns="http://www.w3.org/2000/svg">
<path d="M27.75 14C27.75 21.5939 21.5939 27.75 14 27.75C6.40608 27.75 0.25 21.5939 0.25 14C0.25 6.40608 6.40608 0.25 14 0.25C21.5939 0.25 27.75 6.40608 27.75 14Z" fill="#ED1C24"/>
<path d="M27.75 14C27.75 21.5939 21.5939 27.75 14 27.75C6.40608 27.75 0.25 21.5939 0.25 14C0.25 6.40608 6.40608 0.25 14 0.25C21.5939 0.25 27.75 6.40608 27.75 14Z" stroke="url(#paint0_linear)" stroke-width="0.5"/>
<path d="M27.75 14C27.75 21.5939 21.5939 27.75 14 27.75C6.40608 27.75 0.25 21.5939 0.25 14C0.25 6.40608 6.40608 0.25 14 0.25C21.5939 0.25 27.75 6.40608 27.75 14Z" stroke="url(#paint1_linear)" stroke-width="0.5"/>
<g clip-path="url(#clip0)">
<path d="M15.125 12.5V13.25C15.125 13.4047 14.9984 13.5312 14.8438 13.5312H13.5312V14.8438C13.5312 14.9984 13.4047 15.125 13.25 15.125H12.5C12.3453 15.125 12.2188 14.9984 12.2188 14.8438V13.5312H10.9062C10.7516 13.5312 10.625 13.4047 10.625 13.25V12.5C10.625 12.3453 10.7516 12.2188 10.9062 12.2188H12.2188V10.9062C12.2188 10.7516 12.3453 10.625 12.5 10.625H13.25C13.4047 10.625 13.5312 10.7516 13.5312 10.9062V12.2188H14.8438C14.9984 12.2188 15.125 12.3453 15.125 12.5ZM19.8359 19.1727L19.1727 19.8359C18.9523 20.0562 18.5961 20.0562 18.3781 19.8359L16.0391 17.4992C15.9336 17.3937 15.875 17.2508 15.875 17.1008V16.7188C15.0477 17.3656 14.007 17.75 12.875 17.75C10.182 17.75 8 15.568 8 12.875C8 10.182 10.182 8 12.875 8C15.568 8 17.75 10.182 17.75 12.875C17.75 14.007 17.3656 15.0477 16.7188 15.875H17.1008C17.2508 15.875 17.3937 15.9336 17.4992 16.0391L19.8359 18.3758C20.0539 18.5961 20.0539 18.9523 19.8359 19.1727ZM16.0625 12.875C16.0625 11.1125 14.6375 9.6875 12.875 9.6875C11.1125 9.6875 9.6875 11.1125 9.6875 12.875C9.6875 14.6375 11.1125 16.0625 12.875 16.0625C14.6375 16.0625 16.0625 14.6375 16.0625 12.875Z" fill="white"/>
</g>
<defs>
<linearGradient id="paint0_linear" x1="0.136997" y1="0" x2="0.136997" y2="27.726" gradientUnits="userSpaceOnUse">
<stop stop-opacity="0"/>
<stop offset="0.8" stop-opacity="0.02"/>
<stop offset="1" stop-opacity="0.04"/>
</linearGradient>
<linearGradient id="paint1_linear" x1="0" y1="0" x2="0" y2="28" gradientUnits="userSpaceOnUse">
<stop stop-color="white" stop-opacity="0.12"/>
<stop offset="0.2" stop-color="white" stop-opacity="0.06"/>
<stop offset="1" stop-color="white" stop-opacity="0"/>
</linearGradient>
<clipPath id="clip0">
<rect width="12" height="12" fill="white" transform="translate(8 8)"/>
</clipPath>
</defs>
</svg>
